<svg width="168" height="64" viewBox="0 0 168 64" fill="none" xmlns="http://www.w3.org/2000/svg">
<rect width="168" height="64" rx="7" fill="#F4F4F4"/>
<path d="M23 31C23 29.1144 23 28.1716 23.5858 27.5858C24.1716 27 25.1144 27 27 27H29C30.8856 27 31.8284 27 32.4142 27.5858C33 28.1716 33 29.1144 33 31V33C33 34.8856 33 35.8284 32.4142 36.4142C31.8284 37 30.8856 37 29 37H27C25.1144 37 24.1716 37 23.5858 36.4142C23 35.8284 23 34.8856 23 33V31Z" stroke="#4E4E4E" stroke-linecap="round"/>
<path d="M29 30H27C26.4477 30 26 30.4477 26 31V33C26 33.5523 26.4477 34 27 34H29C29.5523 34 30 33.5523 30 33V31C30 30.4477 29.5523 30 29 30Z" fill="#4E4E4E"/>
<path d="M26 27V24" stroke="#4E4E4E" stroke-linecap="round"/>
<path d="M30 27V24" stroke="#4E4E4E" stroke-linecap="round"/>
<path d="M33 30H36" stroke="#4E4E4E" stroke-linecap="round"/>
<path d="M33 34H36" stroke="#4E4E4E" stroke-linecap="round"/>
<path d="M26 40V37" stroke="#4E4E4E" stroke-linecap="round"/>
<path d="M30 40V37" stroke="#4E4E4E" stroke-linecap="round"/>
<path d="M20 30H23" stroke="#4E4E4E" stroke-linecap="round"/>
<path d="M20 34H23" stroke="#4E4E4E" stroke-linecap="round"/>
<path d="M48.957 29V19.1357H50.1533L55.5811 26.9219H55.6152V19.1357H56.832V29H55.6357L50.208 21.2139H50.1738V29H48.957ZM60.9883 29.1367C59.4297 29.1367 58.5273 28.125 58.5273 26.5049V21.8906H59.7168V26.293C59.7168 27.4482 60.2568 28.084 61.3506 28.084C62.4717 28.084 63.2031 27.2842 63.2031 26.0742V21.8906H64.3926V29H63.2031V27.9883H63.1758C62.793 28.6514 62.0684 29.1367 60.9883 29.1367ZM65.9443 29V21.8906H67.1338V22.9297H67.1611C67.4824 22.2256 68.1934 21.7539 69.1094 21.7539C70.0801 21.7539 70.7979 22.2529 71.1055 23.1211H71.1328C71.5293 22.2666 72.3633 21.7539 73.3613 21.7539C74.7695 21.7539 75.6787 22.6768 75.6787 24.0918V29H74.4893V24.3652C74.4893 23.3877 73.9492 22.8066 73.0127 22.8066C72.0693 22.8066 71.4062 23.5107 71.4062 24.4814V29H70.2168V24.2354C70.2168 23.374 69.6426 22.8066 68.7607 22.8066C67.8174 22.8066 67.1338 23.5518 67.1338 24.543V29H65.9443ZM80.7305 29.1367C79.7119 29.1367 78.9189 28.624 78.4746 27.7969H78.4473V29H77.2578V19.1357H78.4473V23.0801H78.4746C78.9189 22.2598 79.7461 21.7539 80.751 21.7539C82.5352 21.7539 83.752 23.1963 83.752 25.4385V25.4453C83.752 27.6875 82.5488 29.1367 80.7305 29.1367ZM80.498 28.084C81.7559 28.084 82.5352 27.0791 82.5352 25.4453V25.4385C82.5352 23.8184 81.7559 22.8066 80.498 22.8066C79.3018 22.8066 78.4404 23.8525 78.4404 25.4385V25.4453C78.4404 27.0381 79.2949 28.084 80.498 28.084ZM87.874 29.1367C85.8301 29.1367 84.5996 27.708 84.5996 25.4727V25.4658C84.5996 23.2646 85.8574 21.7539 87.7988 21.7539C89.7402 21.7539 90.9229 23.1963 90.9229 25.3291V25.7666H85.8027C85.8301 27.2295 86.6367 28.084 87.9014 28.084C88.8037 28.084 89.4395 27.6328 89.6445 27.0244L89.665 26.9629H90.834L90.8203 27.0312C90.5879 28.207 89.4258 29.1367 87.874 29.1367ZM87.792 22.8066C86.7598 22.8066 85.9531 23.5107 85.8232 24.8369H89.7129C89.5967 23.4561 88.8311 22.8066 87.792 22.8066ZM92.126 29V21.8906H93.3154V23.0938H93.3428C93.582 22.2734 94.1973 21.7539 94.9971 21.7539C95.2021 21.7539 95.3799 21.7881 95.4756 21.8018V22.957C95.3799 22.9229 95.127 22.8887 94.8398 22.8887C93.917 22.8887 93.3154 23.5312 93.3154 24.6113V29H92.126ZM102.264 29.1367C100.288 29.1367 98.9688 27.708 98.9688 25.4453V25.4316C98.9688 23.1689 100.295 21.7539 102.257 21.7539C104.219 21.7539 105.552 23.1621 105.552 25.4316V25.4453C105.552 27.7148 104.226 29.1367 102.264 29.1367ZM102.271 28.084C103.521 28.084 104.335 27.1133 104.335 25.4453V25.4316C104.335 23.7637 103.515 22.8066 102.257 22.8066C101.02 22.8066 100.186 23.7705 100.186 25.4316V25.4453C100.186 27.1201 101.013 28.084 102.271 28.084ZM107.138 29V22.875H106.146V21.8906H107.138V21.0156C107.138 19.6484 107.773 18.999 109.086 18.999C109.353 18.999 109.633 19.0195 109.811 19.0469V20.0107C109.667 19.9902 109.482 19.9834 109.298 19.9834C108.642 19.9834 108.313 20.3184 108.313 21.0225V21.8906H109.776V22.875H108.327V29H107.138ZM118.185 29.1641C115.443 29.1641 113.68 27.168 113.68 24.0645V24.0576C113.68 20.9541 115.437 18.9717 118.185 18.9717C120.235 18.9717 121.828 20.2158 122.204 22.082L122.218 22.1504H120.974L120.926 22C120.543 20.8037 119.572 20.1064 118.185 20.1064C116.216 20.1064 114.944 21.6582 114.944 24.0576V24.0645C114.944 26.4639 116.223 28.0293 118.185 28.0293C119.565 28.0293 120.522 27.3457 120.953 26.0469L120.974 25.9854H122.218L122.204 26.0537C121.828 27.9404 120.249 29.1641 118.185 29.1641ZM126.436 29.1367C124.46 29.1367 123.141 27.708 123.141 25.4453V25.4316C123.141 23.1689 124.467 21.7539 126.429 21.7539C128.391 21.7539 129.724 23.1621 129.724 25.4316V25.4453C129.724 27.7148 128.397 29.1367 126.436 29.1367ZM126.442 28.084C127.693 28.084 128.507 27.1133 128.507 25.4453V25.4316C128.507 23.7637 127.687 22.8066 126.429 22.8066C125.191 22.8066 124.357 23.7705 124.357 25.4316V25.4453C124.357 27.1201 125.185 28.084 126.442 28.084ZM130.927 29V21.8906H132.116V23.0938H132.144C132.383 22.2734 132.998 21.7539 133.798 21.7539C134.003 21.7539 134.181 21.7881 134.276 21.8018V22.957C134.181 22.9229 133.928 22.8887 133.641 22.8887C132.718 22.8887 132.116 23.5312 132.116 24.6113V29H130.927ZM137.831 29.1367C135.787 29.1367 134.557 27.708 134.557 25.4727V25.4658C134.557 23.2646 135.814 21.7539 137.756 21.7539C139.697 21.7539 140.88 23.1963 140.88 25.3291V25.7666H135.76C135.787 27.2295 136.594 28.084 137.858 28.084C138.761 28.084 139.396 27.6328 139.602 27.0244L139.622 26.9629H140.791L140.777 27.0312C140.545 28.207 139.383 29.1367 137.831 29.1367ZM137.749 22.8066C136.717 22.8066 135.91 23.5107 135.78 24.8369H139.67C139.554 23.4561 138.788 22.8066 137.749 22.8066ZM144.605 29.1367C142.931 29.1367 141.919 28.2822 141.775 27.0107L141.769 26.9492H142.958L142.972 27.0176C143.115 27.7285 143.642 28.1455 144.612 28.1455C145.576 28.1455 146.15 27.7422 146.15 27.0996V27.0928C146.15 26.5801 145.884 26.293 145.077 26.0947L143.949 25.8213C142.609 25.5 141.96 24.8779 141.96 23.8525V23.8457C141.96 22.6221 143.033 21.7539 144.571 21.7539C146.13 21.7539 147.121 22.6631 147.21 23.8525L147.217 23.9414H146.082L146.075 23.8936C145.979 23.2031 145.453 22.7451 144.571 22.7451C143.71 22.7451 143.177 23.1621 143.177 23.791V23.7979C143.177 24.2832 143.498 24.6182 144.284 24.8096L145.412 25.083C146.848 25.4316 147.367 25.999 147.367 27.0107V27.0176C147.367 28.2617 146.191 29.1367 144.605 29.1367Z" fill="#C4C4C4"/>
<path d="M52.4775 45.1641C50.4609 45.1641 48.6016 43.7627 48.6016 40.2148V40.2012C48.6016 36.9131 50.0713 34.9717 52.5391 34.9717C54.2959 34.9717 55.6152 35.9766 55.9297 37.4463L55.9502 37.5283H54.4121L54.3916 37.46C54.1113 36.7217 53.4688 36.2568 52.5254 36.2568C50.8301 36.2568 50.1396 37.8906 50.0781 39.8457C50.0713 39.9346 50.0713 40.0234 50.0713 40.1123H50.1055C50.4951 39.2236 51.4932 38.5264 52.833 38.5264C54.7197 38.5264 56.0801 39.9004 56.0801 41.7666V41.7803C56.0801 43.749 54.5557 45.1641 52.4775 45.1641ZM50.3721 41.7871C50.3721 42.9561 51.2881 43.8789 52.457 43.8789C53.626 43.8789 54.5557 42.9697 54.5557 41.8213V41.8076C54.5557 40.6182 53.6807 39.7705 52.4775 39.7705C51.2812 39.7705 50.3721 40.6113 50.3721 41.7803V41.7871Z" fill="#4E4E4E"/>
</svg>
