<svg width="876" height="16" viewBox="0 0 876 16" fill="none" xmlns="http://www.w3.org/2000/svg">
<path d="M6.62695 14.2109C2.99707 14.2109 0.711914 11.6797 0.711914 7.60156V7.59277C0.711914 3.59375 2.99707 1.10645 6.60059 1.10645C9.57129 1.10645 11.4346 2.82031 11.9619 5.10547L11.9971 5.26367H9.97559L9.94922 5.16699C9.41309 3.69922 8.26172 2.84668 6.60938 2.84668C4.18359 2.84668 2.71582 4.61328 2.71582 7.58398V7.59277C2.71582 10.625 4.22754 12.4707 6.64453 12.4707C8.70117 12.4707 10.125 11.1699 10.1514 9.24512V9.03418H6.82031V7.42578H12.0938V8.72656C12.0938 12.1631 10.0635 14.2109 6.62695 14.2109ZM17.7627 14.1846C15.1084 14.1846 13.377 12.3477 13.377 9.37695V9.35938C13.377 6.40625 15.126 4.57812 17.7539 4.57812C20.3906 4.57812 22.1484 6.39746 22.1484 9.35938V9.37695C22.1484 12.3564 20.4082 14.1846 17.7627 14.1846ZM17.7715 12.5938C19.2568 12.5938 20.2061 11.416 20.2061 9.37695V9.35938C20.2061 7.33789 19.2393 6.16895 17.7539 6.16895C16.2949 6.16895 15.3193 7.33789 15.3193 9.35938V9.37695C15.3193 11.4248 16.2861 12.5938 17.7715 12.5938ZM27.5889 14.1846C24.9346 14.1846 23.2031 12.3477 23.2031 9.37695V9.35938C23.2031 6.40625 24.9521 4.57812 27.5801 4.57812C30.2168 4.57812 31.9746 6.39746 31.9746 9.35938V9.37695C31.9746 12.3564 30.2344 14.1846 27.5889 14.1846ZM27.5977 12.5938C29.083 12.5938 30.0322 11.416 30.0322 9.37695V9.35938C30.0322 7.33789 29.0654 6.16895 27.5801 6.16895C26.1211 6.16895 25.1455 7.33789 25.1455 9.35938V9.37695C25.1455 11.4248 26.1123 12.5938 27.5977 12.5938ZM36.8965 14.1846C34.541 14.1846 33.0293 12.3213 33.0293 9.37695V9.36816C33.0293 6.42383 34.5586 4.57812 36.8789 4.57812C38.1885 4.57812 39.2432 5.2373 39.7969 6.32715H39.832V1.31738H41.7393V14H39.832V12.4355H39.7969C39.2432 13.5166 38.2236 14.1846 36.8965 14.1846ZM37.3975 12.5498C38.8301 12.5498 39.8408 11.3018 39.8408 9.37695V9.36816C39.8408 7.45215 38.8213 6.2041 37.3975 6.2041C35.9033 6.2041 34.9717 7.41699 34.9717 9.36816V9.37695C34.9717 11.3457 35.8945 12.5498 37.3975 12.5498Z" fill="black"/>
<g clip-path="url(#clip0_320_1795)">
<rect width="410.5" height="5" rx="2.5" transform="matrix(-1 0 0 1 835 5.5)" fill="#D9D9D9"/>
<rect width="410.5" height="5" rx="2.5" transform="matrix(-1 0 0 1 542.5 5.5)" fill="#FFB547"/>
</g>
<path opacity="0.4" d="M865.102 14V4.46094H865.062L862.117 6.49219V4.83594L865.086 2.72656H866.812V14H865.102ZM872.414 14V4.46094H872.375L869.43 6.49219V4.83594L872.398 2.72656H874.125V14H872.414Z" fill="black"/>
<defs>
<clipPath id="clip0_320_1795">
<rect width="703" height="5" fill="white" transform="matrix(-1 0 0 1 835 5.5)"/>
</clipPath>
</defs>
</svg>
