<svg width="1040" height="32" viewBox="0 0 1040 32" fill="none" xmlns="http://www.w3.org/2000/svg">
<path d="M1040 31.5H0V32.5H1040V31.5Z" fill="#CDCDCD" mask="url(#path-1-inside-1_366_3954)"/>
<path d="M4.78125 18.1875C2.34375 18.1875 0.695312 16.9922 0.554688 15.0625L0.546875 14.9531H1.95312L1.96875 15.0625C2.13281 16.1953 3.22656 16.8906 4.85938 16.8906C6.48438 16.8906 7.50781 16.1562 7.50781 14.9922V14.9844C7.50781 13.9922 6.85938 13.4375 5.3125 13.0938L4.0625 12.8203C1.85938 12.3359 0.828125 11.3438 0.828125 9.69531V9.6875C0.835938 7.83594 2.47656 6.53906 4.79688 6.53906C7 6.53906 8.60938 7.8125 8.73438 9.65625L8.74219 9.77344H7.33594L7.32031 9.66406C7.14844 8.51562 6.1875 7.83594 4.75781 7.83594C3.25 7.84375 2.26562 8.5625 2.26562 9.64844V9.65625C2.26562 10.5781 2.94531 11.1562 4.41406 11.4766L5.66406 11.75C7.97656 12.2578 8.94531 13.1953 8.94531 14.9141V14.9219C8.94531 16.9219 7.35938 18.1875 4.78125 18.1875ZM13.75 18.1562C11.4453 18.1562 9.98438 16.5156 9.98438 13.9297V13.9219C9.98438 11.3594 11.4766 9.71875 13.7344 9.71875C15.7578 9.71875 16.9531 11.0625 17.125 12.4531L17.1328 12.5156H15.8047L15.7891 12.4531C15.5859 11.6406 14.9297 10.9219 13.7344 10.9219C12.3203 10.9219 11.375 12.0938 11.375 13.9375V13.9453C11.375 15.8359 12.3438 16.9531 13.75 16.9531C14.8594 16.9531 15.5703 16.3281 15.7969 15.4219L15.8125 15.3594H17.1484L17.1406 15.4141C16.9219 16.9609 15.5859 18.1562 13.75 18.1562ZM18.3984 18V9.875H19.7578V11.25H19.7891C20.0625 10.3125 20.7656 9.71875 21.6797 9.71875C21.9141 9.71875 22.1172 9.75781 22.2266 9.77344V11.0938C22.1172 11.0547 21.8281 11.0156 21.5 11.0156C20.4453 11.0156 19.7578 11.75 19.7578 12.9844V18H18.3984ZM26.2891 18.1562C23.9531 18.1562 22.5469 16.5234 22.5469 13.9688V13.9609C22.5469 11.4453 23.9844 9.71875 26.2031 9.71875C28.4219 9.71875 29.7734 11.3672 29.7734 13.8047V14.3047H23.9219C23.9531 15.9766 24.875 16.9531 26.3203 16.9531C27.3516 16.9531 28.0781 16.4375 28.3125 15.7422L28.3359 15.6719H29.6719L29.6562 15.75C29.3906 17.0938 28.0625 18.1562 26.2891 18.1562ZM26.1953 10.9219C25.0156 10.9219 24.0938 11.7266 23.9453 13.2422H28.3906C28.2578 11.6641 27.3828 10.9219 26.1953 10.9219ZM34.4922 18.1562C32.1562 18.1562 30.75 16.5234 30.75 13.9688V13.9609C30.75 11.4453 32.1875 9.71875 34.4062 9.71875C36.625 9.71875 37.9766 11.3672 37.9766 13.8047V14.3047H32.125C32.1562 15.9766 33.0781 16.9531 34.5234 16.9531C35.5547 16.9531 36.2812 16.4375 36.5156 15.7422L36.5391 15.6719H37.875L37.8594 15.75C37.5938 17.0938 36.2656 18.1562 34.4922 18.1562ZM34.3984 10.9219C33.2188 10.9219 32.2969 11.7266 32.1484 13.2422H36.5938C36.4609 11.6641 35.5859 10.9219 34.3984 10.9219ZM39.3516 18V9.875H40.7109V11.0312H40.7422C41.1797 10.2734 42.0078 9.71875 43.2422 9.71875C45.0234 9.71875 46.0547 10.875 46.0547 12.7266V18H44.6953V12.9688C44.6953 11.6484 44.0781 10.9219 42.8281 10.9219C41.5469 10.9219 40.7109 11.8359 40.7109 13.2188V18H39.3516ZM54.125 18.1562C52.0469 18.1562 50.6719 16.5 50.6719 13.9375V13.9297C50.6719 11.3672 52.0625 9.71875 54.1016 9.71875C55.25 9.71875 56.1953 10.2969 56.7031 11.2344H56.7344V6.72656H58.0938V18H56.7344V16.625H56.7031C56.1953 17.5703 55.2891 18.1562 54.125 18.1562ZM54.3906 16.9531C55.7656 16.9531 56.7422 15.7578 56.7422 13.9375V13.9297C56.7422 12.1172 55.7578 10.9219 54.3906 10.9219C52.9531 10.9219 52.0625 12.0781 52.0625 13.9297V13.9375C52.0625 15.8047 52.9531 16.9531 54.3906 16.9531ZM60.6953 8.5C60.2266 8.5 59.8438 8.11719 59.8438 7.64844C59.8438 7.17188 60.2266 6.79688 60.6953 6.79688C61.1719 6.79688 61.5469 7.17188 61.5469 7.64844C61.5469 8.11719 61.1719 8.5 60.6953 8.5ZM60.0156 18V9.875H61.375V18H60.0156ZM65.6016 18.1562C63.9844 18.1562 62.8984 17.1797 62.8984 15.7031V15.6875C62.8984 14.3047 63.9766 13.4375 65.8438 13.3281L68.1719 13.1953V12.5156C68.1719 11.5234 67.5234 10.9219 66.3906 10.9219C65.3438 10.9219 64.6875 11.4219 64.5312 12.1484L64.5156 12.2188H63.2031L63.2109 12.1328C63.3281 10.7969 64.4922 9.71875 66.4062 9.71875C68.3281 9.71875 69.5312 10.7578 69.5312 12.3828V18H68.1719V16.6797H68.1406C67.6641 17.5703 66.6875 18.1562 65.6016 18.1562ZM64.2891 15.7031C64.2891 16.4844 64.9297 16.9766 65.9062 16.9766C67.1875 16.9766 68.1719 16.0938 68.1719 14.9141V14.25L66 14.3828C64.9141 14.4453 64.2891 14.9297 64.2891 15.6875V15.7031ZM74.6953 20.8906C72.6875 20.8906 71.4219 19.9453 71.1562 18.7422L71.1406 18.6719H72.5078L72.5391 18.7422C72.7969 19.3281 73.5703 19.6875 74.6797 19.6875C76.1094 19.6875 76.9219 18.8984 76.9219 17.6406V16.6016H76.8906C76.4062 17.5 75.4688 18.0781 74.3047 18.0781C72.2578 18.0781 70.8594 16.4297 70.8594 13.8906V13.8828C70.8594 11.3594 72.2734 9.71875 74.3359 9.71875C75.4844 9.71875 76.3906 10.3438 76.8906 11.25H76.9219V9.875H78.2812V17.7734C78.2812 19.6562 76.8984 20.8906 74.6953 20.8906ZM74.6016 16.875C75.9844 16.875 76.9219 15.6953 76.9219 13.8906V13.8828C76.9219 12.0938 75.9766 10.9219 74.6016 10.9219C73.1562 10.9219 72.25 12.0781 72.25 13.8828V13.8906C72.25 15.7344 73.1562 16.875 74.6016 16.875ZM83.4062 18.1562C81.1484 18.1562 79.6406 16.5234 79.6406 13.9375V13.9219C79.6406 11.3359 81.1562 9.71875 83.3984 9.71875C85.6406 9.71875 87.1641 11.3281 87.1641 13.9219V13.9375C87.1641 16.5312 85.6484 18.1562 83.4062 18.1562ZM83.4141 16.9531C84.8438 16.9531 85.7734 15.8438 85.7734 13.9375V13.9219C85.7734 12.0156 84.8359 10.9219 83.3984 10.9219C81.9844 10.9219 81.0312 12.0234 81.0312 13.9219V13.9375C81.0312 15.8516 81.9766 16.9531 83.4141 16.9531ZM88.5391 18V9.875H89.8984V11.0312H89.9297C90.3672 10.2734 91.1953 9.71875 92.4297 9.71875C94.2109 9.71875 95.2422 10.875 95.2422 12.7266V18H93.8828V12.9688C93.8828 11.6484 93.2656 10.9219 92.0156 10.9219C90.7344 10.9219 89.8984 11.8359 89.8984 13.2188V18H88.5391ZM99.3516 18.1562C97.7344 18.1562 96.6484 17.1797 96.6484 15.7031V15.6875C96.6484 14.3047 97.7266 13.4375 99.5938 13.3281L101.922 13.1953V12.5156C101.922 11.5234 101.273 10.9219 100.141 10.9219C99.0938 10.9219 98.4375 11.4219 98.2812 12.1484L98.2656 12.2188H96.9531L96.9609 12.1328C97.0781 10.7969 98.2422 9.71875 100.156 9.71875C102.078 9.71875 103.281 10.7578 103.281 12.3828V18H101.922V16.6797H101.891C101.414 17.5703 100.438 18.1562 99.3516 18.1562ZM98.0391 15.7031C98.0391 16.4844 98.6797 16.9766 99.6562 16.9766C100.938 16.9766 101.922 16.0938 101.922 14.9141V14.25L99.75 14.3828C98.6641 14.4453 98.0391 14.9297 98.0391 15.6875V15.7031ZM105.078 18V6.72656H106.438V18H105.078Z" fill="black"/>
<path d="M1017.68 17.1758C1015.73 17.1758 1013.67 15.8281 1013.67 11.9097V11.895C1013.67 8.33545 1015.18 6.25537 1017.77 6.25537C1019.56 6.25537 1020.9 7.28076 1021.25 8.81885L1021.28 8.91406H1019.94L1019.91 8.8335C1019.59 7.96191 1018.84 7.41992 1017.75 7.41992C1015.78 7.41992 1015.01 9.33154 1014.95 11.5508C1014.94 11.624 1014.94 11.6973 1014.94 11.7778H1014.97C1015.4 10.8403 1016.48 10.0786 1017.91 10.0786C1019.93 10.0786 1021.42 11.5654 1021.42 13.5723V13.5869C1021.42 15.667 1019.84 17.1758 1017.68 17.1758ZM1015.26 13.5723C1015.26 14.9272 1016.31 16.0039 1017.67 16.0039C1019.01 16.0039 1020.08 14.9492 1020.08 13.6162V13.6016C1020.08 12.2246 1019.08 11.2358 1017.69 11.2358C1016.3 11.2358 1015.26 12.2173 1015.26 13.5649V13.5723ZM1023.87 17.1025C1023.4 17.1025 1023.03 16.7363 1023.03 16.2676C1023.03 15.7988 1023.4 15.4326 1023.87 15.4326C1024.34 15.4326 1024.7 15.7988 1024.7 16.2676C1024.7 16.7363 1024.34 17.1025 1023.87 17.1025ZM1026.51 17L1031.29 7.63232V7.60303H1025.6V6.43115H1032.59V7.6543L1027.89 17H1026.51ZM1034.69 10.1592L1034.54 6.43115H1035.76L1035.61 10.1592H1034.69ZM1036.93 10.1592L1036.78 6.43115H1038L1037.85 10.1592H1036.93Z" fill="black"/>
</svg>
