<svg width="230" height="24" viewBox="0 0 230 24" fill="none" xmlns="http://www.w3.org/2000/svg">
<rect y="4.16666" width="16.3333" height="15.6667" rx="3" fill="black"/>
<path d="M5.99992 12.8333L6.56634 13.2581C6.99503 13.5797 7.60097 13.5061 7.9403 13.0914L10.3333 10.1667" stroke="white" stroke-linecap="round"/>
<path d="M24.5237 17L28.3689 6.43115H30.1414L33.9792 17H32.2581L31.2913 14.1436H27.219L26.2449 17H24.5237ZM29.2405 8.18164L27.6584 12.8252H30.8445L29.2698 8.18164H29.2405ZM34.9607 19.5635V9.29492H36.5427V10.6206H36.5793C37.0408 9.70508 37.8904 9.14844 38.989 9.14844C40.9519 9.14844 42.2117 10.6865 42.2117 13.1475V13.1548C42.2117 15.6084 40.9446 17.1538 39.011 17.1538C37.9197 17.1538 37.0334 16.5972 36.5793 15.7036H36.5427V19.5635H34.9607ZM38.5789 15.7915C39.824 15.7915 40.6003 14.7808 40.6003 13.1548V13.1475C40.6003 11.5068 39.8167 10.5034 38.5789 10.5034C37.3777 10.5034 36.5354 11.5435 36.5354 13.1475V13.1548C36.5354 14.7515 37.385 15.7915 38.5789 15.7915ZM43.4421 19.5635V9.29492H45.0242V10.6206H45.0608C45.5222 9.70508 46.3718 9.14844 47.4705 9.14844C49.4333 9.14844 50.6931 10.6865 50.6931 13.1475V13.1548C50.6931 15.6084 49.426 17.1538 47.4924 17.1538C46.4011 17.1538 45.5149 16.5972 45.0608 15.7036H45.0242V19.5635H43.4421ZM47.0603 15.7915C48.3054 15.7915 49.0818 14.7808 49.0818 13.1548V13.1475C49.0818 11.5068 48.2981 10.5034 47.0603 10.5034C45.8591 10.5034 45.0168 11.5435 45.0168 13.1475V13.1548C45.0168 14.7515 45.8665 15.7915 47.0603 15.7915ZM51.9822 17V6.43115H53.5642V17H51.9822ZM58.4788 17.1538C56.2156 17.1538 54.8459 15.6084 54.8459 13.1768V13.1694C54.8459 10.7598 56.2375 9.14844 58.3982 9.14844C60.5588 9.14844 61.8845 10.7012 61.8845 13.0156V13.5503H56.428C56.4573 15.0078 57.2556 15.8574 58.5154 15.8574C59.4529 15.8574 60.0754 15.374 60.2732 14.7954L60.2952 14.7368H61.7966L61.782 14.8174C61.533 16.0405 60.3464 17.1538 58.4788 17.1538ZM58.4055 10.4448C57.3801 10.4448 56.5891 11.1406 56.45 12.4297H60.3171C60.1853 11.0967 59.4382 10.4448 58.4055 10.4448Z" fill="black"/>
<path d="M68.22 17V9.66406H68.1965L65.9583 11.2227V10.1621L68.2083 8.54492H69.2395V17H68.22ZM73.5403 17V9.66406H73.5168L71.2786 11.2227V10.1621L73.5286 8.54492H74.5598V17H73.5403ZM79.6516 17.1406C77.7063 17.1406 76.552 15.459 76.552 12.7754V12.7637C76.552 10.0801 77.7063 8.4043 79.6516 8.4043C81.5969 8.4043 82.7629 10.0801 82.7629 12.7637V12.7754C82.7629 15.459 81.5969 17.1406 79.6516 17.1406ZM79.6516 16.2207C80.9407 16.2207 81.7024 14.8965 81.7024 12.7754V12.7637C81.7024 10.6426 80.9407 9.33008 79.6516 9.33008C78.3625 9.33008 77.6125 10.6426 77.6125 12.7637V12.7754C77.6125 14.8965 78.3625 16.2207 79.6516 16.2207Z" fill="#929292"/>
</svg>
