<svg width="168" height="64" viewBox="0 0 168 64" fill="none" xmlns="http://www.w3.org/2000/svg">
<rect width="168" height="64" rx="7" fill="#F4F4F4"/>
<path d="M25.4222 20.75C24.7195 20.75 24.4847 20.9082 24.4847 21.6875V22.3902H22.375C20.9897 22.3902 20.7347 22.646 20.7347 24.0305V41.609C20.7347 42.9942 20.9905 43.2493 22.375 43.2493H33.625C35.0102 43.2493 35.2652 42.9935 35.2652 41.609V24.0305C35.2652 22.6453 35.0095 22.3902 33.625 22.3902H31.5152V21.6875C31.5152 20.909 31.2812 20.75 30.5777 20.75H25.4222ZM22.375 25.6723C22.375 23.7973 22.141 24.032 24.0152 24.032C24.9527 24.032 31.2812 24.032 31.984 24.032C33.859 24.032 33.6242 23.798 33.6242 25.6723C33.6242 26.6098 33.6242 39.032 33.6242 39.9695C33.6242 41.8445 33.8582 41.6097 31.984 41.6097C31.0465 41.6097 24.9527 41.6097 24.0152 41.6097C22.1402 41.6097 22.375 41.8438 22.375 39.9695C22.375 39.0312 22.375 26.6098 22.375 25.6723ZM23.5465 28.9535H32.4527C32.7115 28.9535 32.9215 29.1635 32.9215 29.4222V32.0007C32.9215 32.2595 32.7115 32.4695 32.4527 32.4695H23.5465C23.2877 32.4695 23.0777 32.2595 23.0777 32.0007V29.4222C23.0777 29.1635 23.2877 28.9535 23.5465 28.9535ZM23.5465 33.1722H32.4527C32.7115 33.1722 32.9215 33.3822 32.9215 33.641V36.2195C32.9215 36.4782 32.7115 36.6882 32.4527 36.6882H23.5465C23.2877 36.6882 23.0777 36.4782 23.0777 36.2195V33.641C23.0777 33.3822 23.2877 33.1722 23.5465 33.1722ZM23.5465 37.391H32.4527C32.7115 37.391 32.9215 37.601 32.9215 37.8597V40.4382C32.9215 40.697 32.7115 40.907 32.4527 40.907H23.5465C23.2877 40.907 23.0777 40.697 23.0777 40.4382V37.8597C23.0777 37.601 23.2877 37.391 23.5465 37.391Z" fill="#4E4E4E"/>
<path d="M48.957 29V19.1357H52.6963C54.3848 19.1357 55.5264 20.1201 55.5264 21.5967V21.6104C55.5264 22.6289 54.7607 23.6201 53.7422 23.7637V23.791C55.1641 23.9551 56.0254 24.9121 56.0254 26.2178V26.2314C56.0254 27.9678 54.7812 29 52.6826 29H48.957ZM52.416 20.2227H50.1875V23.3877H52.0332C53.4893 23.3877 54.2822 22.8066 54.2822 21.7402V21.7266C54.2822 20.7559 53.6055 20.2227 52.416 20.2227ZM52.3818 24.4473H50.1875V27.9131H52.498C53.9746 27.9131 54.7607 27.3184 54.7607 26.1836V26.1699C54.7607 25.0283 53.9541 24.4473 52.3818 24.4473ZM59.3135 29.1367C57.8984 29.1367 56.9482 28.2822 56.9482 26.9902V26.9766C56.9482 25.7666 57.8916 25.0078 59.5254 24.9121L61.5625 24.7959V24.2012C61.5625 23.333 60.9951 22.8066 60.0039 22.8066C59.0879 22.8066 58.5137 23.2441 58.377 23.8799L58.3633 23.9414H57.2148L57.2217 23.8662C57.3242 22.6973 58.3428 21.7539 60.0176 21.7539C61.6992 21.7539 62.752 22.6631 62.752 24.085V29H61.5625V27.8447H61.5352C61.1182 28.624 60.2637 29.1367 59.3135 29.1367ZM58.165 26.9902C58.165 27.6738 58.7256 28.1045 59.5801 28.1045C60.7012 28.1045 61.5625 27.332 61.5625 26.2998V25.7188L59.6621 25.835C58.7119 25.8896 58.165 26.3135 58.165 26.9766V26.9902ZM66.5732 29.1367C65.2676 29.1367 64.625 28.5488 64.625 27.1885V22.875H63.5859V21.8906H64.625V19.9697H65.8555V21.8906H67.209V22.875H65.8555V27.1816C65.8555 27.9404 66.1904 28.1523 66.8262 28.1523C66.9697 28.1523 67.1064 28.1318 67.209 28.125V29.0889C67.0586 29.1094 66.8057 29.1367 66.5732 29.1367ZM70.7979 29.1367C69.4922 29.1367 68.8496 28.5488 68.8496 27.1885V22.875H67.8105V21.8906H68.8496V19.9697H70.0801V21.8906H71.4336V22.875H70.0801V27.1816C70.0801 27.9404 70.415 28.1523 71.0508 28.1523C71.1943 28.1523 71.3311 28.1318 71.4336 28.125V29.0889C71.2832 29.1094 71.0303 29.1367 70.7979 29.1367ZM75.4326 29.1367C73.3887 29.1367 72.1582 27.708 72.1582 25.4727V25.4658C72.1582 23.2646 73.416 21.7539 75.3574 21.7539C77.2988 21.7539 78.4814 23.1963 78.4814 25.3291V25.7666H73.3613C73.3887 27.2295 74.1953 28.084 75.46 28.084C76.3623 28.084 76.998 27.6328 77.2031 27.0244L77.2236 26.9629H78.3926L78.3789 27.0312C78.1465 28.207 76.9844 29.1367 75.4326 29.1367ZM75.3506 22.8066C74.3184 22.8066 73.5117 23.5107 73.3818 24.8369H77.2715C77.1553 23.4561 76.3896 22.8066 75.3506 22.8066ZM79.6846 29V21.8906H80.874V23.0938H80.9014C81.1406 22.2734 81.7559 21.7539 82.5557 21.7539C82.7607 21.7539 82.9385 21.7881 83.0342 21.8018V22.957C82.9385 22.9229 82.6855 22.8887 82.3984 22.8887C81.4756 22.8887 80.874 23.5312 80.874 24.6113V29H79.6846ZM84.6885 31.3926C84.4561 31.3926 84.2031 31.3652 84.0527 31.3379V30.3672C84.1553 30.3877 84.292 30.4082 84.4355 30.4082C85.1875 30.4082 85.6045 30.2168 85.8916 29.4102L86.0352 29.0068L83.3965 21.8906H84.668L86.6299 27.8105H86.6572L88.626 21.8906H89.877L87.1016 29.4443C86.5957 30.8047 85.9736 31.3926 84.6885 31.3926ZM96.6309 29.1367C94.6143 29.1367 93.3359 27.7012 93.3359 25.4385V25.4316C93.3359 23.1895 94.6416 21.7539 96.6172 21.7539C98.3877 21.7539 99.4336 22.9297 99.584 24.1465L99.5908 24.2012H98.4287L98.415 24.1465C98.2373 23.4355 97.6631 22.8066 96.6172 22.8066C95.3799 22.8066 94.5527 23.832 94.5527 25.4453V25.4521C94.5527 27.1064 95.4004 28.084 96.6309 28.084C97.6016 28.084 98.2236 27.5371 98.4219 26.7441L98.4355 26.6895H99.6045L99.5977 26.7373C99.4062 28.0908 98.2373 29.1367 96.6309 29.1367ZM102.776 29.1367C101.361 29.1367 100.411 28.2822 100.411 26.9902V26.9766C100.411 25.7666 101.354 25.0078 102.988 24.9121L105.025 24.7959V24.2012C105.025 23.333 104.458 22.8066 103.467 22.8066C102.551 22.8066 101.977 23.2441 101.84 23.8799L101.826 23.9414H100.678L100.685 23.8662C100.787 22.6973 101.806 21.7539 103.48 21.7539C105.162 21.7539 106.215 22.6631 106.215 24.085V29H105.025V27.8447H104.998C104.581 28.624 103.727 29.1367 102.776 29.1367ZM101.628 26.9902C101.628 27.6738 102.188 28.1045 103.043 28.1045C104.164 28.1045 105.025 27.332 105.025 26.2998V25.7188L103.125 25.835C102.175 25.8896 101.628 26.3135 101.628 26.9766V26.9902ZM107.726 31.3926V21.8906H108.915V23.0938H108.942C109.387 22.2666 110.18 21.7539 111.198 21.7539C113.017 21.7539 114.22 23.2031 114.22 25.4453V25.4521C114.22 27.6943 113.003 29.1367 111.219 29.1367C110.214 29.1367 109.387 28.6309 108.942 27.8105H108.915V31.3926H107.726ZM110.966 28.084C112.224 28.084 113.003 27.0723 113.003 25.4521V25.4453C113.003 23.8115 112.224 22.8066 110.966 22.8066C109.763 22.8066 108.908 23.8525 108.908 25.4453V25.4521C108.908 27.0381 109.77 28.084 110.966 28.084ZM117.501 29.1367C116.086 29.1367 115.136 28.2822 115.136 26.9902V26.9766C115.136 25.7666 116.079 25.0078 117.713 24.9121L119.75 24.7959V24.2012C119.75 23.333 119.183 22.8066 118.191 22.8066C117.275 22.8066 116.701 23.2441 116.564 23.8799L116.551 23.9414H115.402L115.409 23.8662C115.512 22.6973 116.53 21.7539 118.205 21.7539C119.887 21.7539 120.939 22.6631 120.939 24.085V29H119.75V27.8447H119.723C119.306 28.624 118.451 29.1367 117.501 29.1367ZM116.353 26.9902C116.353 27.6738 116.913 28.1045 117.768 28.1045C118.889 28.1045 119.75 27.332 119.75 26.2998V25.7188L117.85 25.835C116.899 25.8896 116.353 26.3135 116.353 26.9766V26.9902ZM125.396 29.1367C123.38 29.1367 122.102 27.7012 122.102 25.4385V25.4316C122.102 23.1895 123.407 21.7539 125.383 21.7539C127.153 21.7539 128.199 22.9297 128.35 24.1465L128.356 24.2012H127.194L127.181 24.1465C127.003 23.4355 126.429 22.8066 125.383 22.8066C124.146 22.8066 123.318 23.832 123.318 25.4453V25.4521C123.318 27.1064 124.166 28.084 125.396 28.084C126.367 28.084 126.989 27.5371 127.188 26.7441L127.201 26.6895H128.37L128.363 26.7373C128.172 28.0908 127.003 29.1367 125.396 29.1367ZM130.134 20.6875C129.724 20.6875 129.389 20.3525 129.389 19.9424C129.389 19.5254 129.724 19.1973 130.134 19.1973C130.551 19.1973 130.879 19.5254 130.879 19.9424C130.879 20.3525 130.551 20.6875 130.134 20.6875ZM129.539 29V21.8906H130.729V29H129.539ZM134.659 29.1367C133.354 29.1367 132.711 28.5488 132.711 27.1885V22.875H131.672V21.8906H132.711V19.9697H133.941V21.8906H135.295V22.875H133.941V27.1816C133.941 27.9404 134.276 28.1523 134.912 28.1523C135.056 28.1523 135.192 28.1318 135.295 28.125V29.0889C135.145 29.1094 134.892 29.1367 134.659 29.1367ZM137.257 31.3926C137.024 31.3926 136.771 31.3652 136.621 31.3379V30.3672C136.724 30.3877 136.86 30.4082 137.004 30.4082C137.756 30.4082 138.173 30.2168 138.46 29.4102L138.604 29.0068L135.965 21.8906H137.236L139.198 27.8105H139.226L141.194 21.8906H142.445L139.67 29.4443C139.164 30.8047 138.542 31.3926 137.257 31.3926Z" fill="#C4C4C4"/>
<path d="M53.4551 45V43.0381H48.5195V41.7051L52.71 35.1357H54.9248V41.7529H56.2852V43.0381H54.9248V45H53.4551ZM49.9414 41.7734H53.4688V36.3457H53.4277L49.9414 41.7324V41.7734ZM60.8926 45.1641C58.7871 45.1641 57.4131 44.0156 57.2764 42.4092L57.2695 42.3203H58.7393L58.7461 42.3955C58.8418 43.2705 59.6689 43.8857 60.8926 43.8857C62.0957 43.8857 62.9092 43.2158 62.9092 42.2588V42.2451C62.9092 41.1309 62.1025 40.5088 60.7832 40.5088H59.5869V39.3193H60.7422C61.8701 39.3193 62.6357 38.6562 62.6357 37.7402V37.7266C62.6357 36.7764 61.9932 36.2227 60.8789 36.2227C59.7852 36.2227 59.0195 36.7969 58.9238 37.7129L58.917 37.7744H57.4814L57.4883 37.7061C57.6387 36.0586 58.9512 34.9717 60.8789 34.9717C62.8408 34.9717 64.126 36.0107 64.126 37.5283V37.542C64.126 38.7656 63.251 39.5859 62.0479 39.8389V39.873C63.4971 40.0029 64.4678 40.8779 64.4678 42.2588V42.2725C64.4678 43.9609 62.9844 45.1641 60.8926 45.1641ZM65.9238 45V43.9473L69.3965 40.4541C70.709 39.1416 71.0029 38.6221 71.0029 37.8564V37.8428C70.9961 36.9062 70.2852 36.2363 69.2871 36.2363C68.1318 36.2363 67.3047 37.0156 67.291 38.0137V38.0547H65.8418V38.0137C65.8418 36.25 67.3389 34.9717 69.2666 34.9717C71.1602 34.9717 72.5137 36.1611 72.5137 37.7539V37.7676C72.5137 38.8955 71.9873 39.6953 70.2168 41.4453L67.9746 43.6465V43.708H72.6709V45H65.9238ZM77.4766 45.1641C75.3711 45.1641 73.9971 44.0156 73.8604 42.4092L73.8535 42.3203H75.3232L75.3301 42.3955C75.4258 43.2705 76.2529 43.8857 77.4766 43.8857C78.6797 43.8857 79.4932 43.2158 79.4932 42.2588V42.2451C79.4932 41.1309 78.6865 40.5088 77.3672 40.5088H76.1709V39.3193H77.3262C78.4541 39.3193 79.2197 38.6562 79.2197 37.7402V37.7266C79.2197 36.7764 78.5771 36.2227 77.4629 36.2227C76.3691 36.2227 75.6035 36.7969 75.5078 37.7129L75.501 37.7744H74.0654L74.0723 37.7061C74.2227 36.0586 75.5352 34.9717 77.4629 34.9717C79.4248 34.9717 80.71 36.0107 80.71 37.5283V37.542C80.71 38.7656 79.835 39.5859 78.6318 39.8389V39.873C80.0811 40.0029 81.0518 40.8779 81.0518 42.2588V42.2725C81.0518 43.9609 79.5684 45.1641 77.4766 45.1641ZM85.3174 45V37.8086H86.7939V38.9229H86.8281C87.1357 38.1709 87.8672 37.6719 88.8105 37.6719C89.8018 37.6719 90.5264 38.1846 90.8135 39.0869H90.8477C91.2168 38.2119 92.0645 37.6719 93.0898 37.6719C94.5117 37.6719 95.4414 38.6152 95.4414 40.0576V45H93.958V40.4131C93.958 39.4766 93.459 38.9365 92.584 38.9365C91.709 38.9365 91.1006 39.5928 91.1006 40.502V45H89.6514V40.3037C89.6514 39.4697 89.125 38.9365 88.291 38.9365C87.416 38.9365 86.7939 39.627 86.7939 40.5566V45H85.3174ZM96.3164 45L99.9053 35.1357H101.56L105.142 45H103.535L102.633 42.334H98.832L97.9229 45H96.3164ZM100.719 36.7695L99.2422 41.1035H102.216L100.746 36.7695H100.719ZM106.112 45V35.1357H107.589V38.9912H107.623C108.006 38.1572 108.778 37.6719 109.852 37.6719C111.39 37.6719 112.401 38.8203 112.401 40.5566V45H110.925V40.8369C110.925 39.6475 110.323 38.9365 109.284 38.9365C108.266 38.9365 107.589 39.7158 107.589 40.8369V45H106.112Z" fill="#4E4E4E"/>
</svg>
