<svg width="168" height="64" viewBox="0 0 168 64" fill="none" xmlns="http://www.w3.org/2000/svg">
<rect width="168" height="64" rx="7" fill="#F4F4F4"/>
<path fill-rule="evenodd" clip-rule="evenodd" d="M28 23C28.3853 23 28.6977 23.3124 28.6977 23.6977V26.4888C29.2084 26.4899 29.6717 26.4934 30.0932 26.5049L30.093 26.4884V23.6977C30.093 23.3124 30.4054 23 30.7907 23C31.176 23 31.4884 23.3124 31.4884 23.6977V26.4884C31.4884 26.5249 31.4856 26.5607 31.4802 26.5957C32.4162 26.7107 33.0648 26.9488 33.558 27.442C34.0512 27.9352 34.2893 28.5838 34.4043 29.5198C34.4393 29.5144 34.4751 29.5116 34.5116 29.5116H37.3023C37.6876 29.5116 38 29.824 38 30.2093C38 30.5946 37.6876 30.907 37.3023 30.907H34.5116L34.495 30.9068C34.5066 31.3283 34.5106 31.7916 34.5116 32.3023H37.3023C37.6876 32.3023 38 32.6147 38 33C38 33.3853 37.6876 33.6977 37.3023 33.6977H34.5112C34.5101 34.2084 34.5066 34.6717 34.495 35.0932L34.5116 35.093H37.3023C37.6876 35.093 38 35.4054 38 35.7907C38 36.176 37.6876 36.4884 37.3023 36.4884H34.5116C34.4751 36.4884 34.4393 36.4856 34.4043 36.4802C34.2893 37.4162 34.0512 38.0648 33.558 38.558C33.0648 39.0512 32.4162 39.2893 31.4802 39.4043C31.4856 39.4393 31.4884 39.4751 31.4884 39.5116V42.3023C31.4884 42.6876 31.176 43 30.7907 43C30.4054 43 30.093 42.6876 30.093 42.3023V39.5116L30.0932 39.495C29.6717 39.5066 29.2084 39.5106 28.6977 39.5116V42.3023C28.6977 42.6876 28.3853 43 28 43C27.6147 43 27.3023 42.6876 27.3023 42.3023V39.5112C26.7916 39.5101 26.3283 39.5066 25.9068 39.495L25.907 39.5116V42.3023C25.907 42.6876 25.5946 43 25.2093 43C24.824 43 24.5116 42.6876 24.5116 42.3023V39.5116C24.5116 39.4751 24.5144 39.4393 24.5198 39.4043C23.5838 39.2893 22.9352 39.0512 22.442 38.558C21.9488 38.0648 21.7107 37.4162 21.5957 36.4802C21.5607 36.4856 21.5249 36.4884 21.4884 36.4884H18.6977C18.3124 36.4884 18 36.176 18 35.7907C18 35.4054 18.3124 35.093 18.6977 35.093H21.4884L21.5049 35.0932C21.4934 34.6717 21.4894 34.2084 21.4884 33.6977H18.6977C18.3124 33.6977 18 33.3853 18 33C18 32.6147 18.3124 32.3023 18.6977 32.3023H21.4888C21.4899 31.7916 21.4934 31.3283 21.5049 30.9068L21.4884 30.907H18.6977C18.3124 30.907 18 30.5946 18 30.2093C18 29.824 18.3124 29.5116 18.6977 29.5116H21.4884C21.5249 29.5116 21.5607 29.5144 21.5957 29.5198C21.7107 28.5838 21.9488 27.9352 22.442 27.442C22.9352 26.9488 23.5838 26.7107 24.5198 26.5957C24.5144 26.5607 24.5116 26.5249 24.5116 26.4884V23.6977C24.5116 23.3124 24.824 23 25.2093 23C25.5946 23 25.907 23.3124 25.907 23.6977V26.4884L25.9068 26.5049C26.3283 26.4934 26.7916 26.4894 27.3023 26.4884V23.6977C27.3023 23.3124 27.6147 23 28 23ZM27.0238 28.5814C26.4054 28.5814 25.8725 28.5813 25.4457 28.6387C24.9884 28.7002 24.55 28.8388 24.1944 29.1944C23.8388 29.55 23.7002 29.9884 23.6387 30.4457C23.5813 30.8725 23.5814 31.4054 23.5814 32.0238V33.9762C23.5814 34.5946 23.5813 35.1275 23.6387 35.5543C23.7002 36.0116 23.8388 36.45 24.1944 36.8056C24.55 37.1612 24.9884 37.2998 25.4457 37.3613C25.8725 37.4187 26.4054 37.4186 27.0238 37.4186H28.9762C29.5946 37.4186 30.1275 37.4187 30.5543 37.3613C31.0116 37.2998 31.45 37.1612 31.8056 36.8056C32.1612 36.45 32.2998 36.0116 32.3613 35.5543C32.4187 35.1275 32.4186 34.5946 32.4186 33.9762V32.0238C32.4186 31.4054 32.4187 30.8725 32.3613 30.4457C32.2998 29.9884 32.1612 29.55 31.8056 29.1944C31.45 28.8388 31.0116 28.7002 30.5543 28.6387C30.1275 28.5813 29.5947 28.5814 28.9762 28.5814H27.0238Z" fill="#4E4E4E"/>
<path opacity="0.5" d="M25.1809 30.1809C25.234 30.1278 25.3289 30.0621 25.6315 30.0214C25.9542 29.978 26.3921 29.9766 27.0696 29.9766H28.9301C29.6075 29.9766 30.0455 29.978 30.3682 30.0214C30.6708 30.0621 30.7656 30.1278 30.8187 30.1809C30.8718 30.234 30.9375 30.3289 30.9782 30.6315C31.0216 30.9542 31.0231 31.3921 31.0231 32.0696V33.9301C31.0231 34.6075 31.0216 35.0455 30.9782 35.3682C30.9375 35.6708 30.8718 35.7656 30.8187 35.8187C30.7656 35.8718 30.6708 35.9375 30.3682 35.9782C30.0455 36.0216 29.6075 36.0231 28.9301 36.0231H27.0696C26.3921 36.0231 25.9542 36.0216 25.6315 35.9782C25.3289 35.9375 25.234 35.8718 25.1809 35.8187C25.1278 35.7656 25.0621 35.6708 25.0214 35.3682C24.978 35.0455 24.9766 34.6075 24.9766 33.9301V32.0696C24.9766 31.3921 24.978 30.9542 25.0214 30.6315C25.0621 30.3289 25.1278 30.234 25.1809 30.1809Z" fill="#4E4E4E"/>
<path d="M53.0791 29.1641C50.3379 29.1641 48.5742 27.168 48.5742 24.0645V24.0576C48.5742 20.9541 50.3311 18.9717 53.0791 18.9717C55.1299 18.9717 56.7227 20.2158 57.0986 22.082L57.1123 22.1504H55.8682L55.8203 22C55.4375 20.8037 54.4668 20.1064 53.0791 20.1064C51.1104 20.1064 49.8389 21.6582 49.8389 24.0576V24.0645C49.8389 26.4639 51.1172 28.0293 53.0791 28.0293C54.46 28.0293 55.417 27.3457 55.8477 26.0469L55.8682 25.9854H57.1123L57.0986 26.0537C56.7227 27.9404 55.1436 29.1641 53.0791 29.1641ZM58.5684 29V19.1357H62.082C63.9346 19.1357 65.2471 20.4141 65.2471 22.2871V22.3008C65.2471 24.1738 63.9346 25.4795 62.082 25.4795H59.7988V29H58.5684ZM61.7676 20.2295H59.7988V24.3857H61.7676C63.1758 24.3857 63.9893 23.6133 63.9893 22.3145V22.3008C63.9893 21.002 63.1758 20.2295 61.7676 20.2295ZM70.5859 29.1641C68.1387 29.1641 66.6621 27.6875 66.6621 25.541V19.1357H67.8926V25.459C67.8926 26.9766 68.877 28.0293 70.5859 28.0293C72.2949 28.0293 73.2656 26.9766 73.2656 25.459V19.1357H74.4961V25.541C74.4961 27.6875 73.0332 29.1641 70.5859 29.1641Z" fill="#C4C4C4"/>
<path d="M48.1777 45L51.7666 35.1357H53.4209L57.0029 45H55.3965L54.4941 42.334H50.6934L49.7842 45H48.1777ZM52.5801 36.7695L51.1035 41.1035H54.0771L52.6074 36.7695H52.5801ZM57.9189 47.3926V37.8086H59.3955V39.0459H59.4297C59.8604 38.1914 60.6533 37.6719 61.6787 37.6719C63.5107 37.6719 64.6865 39.1074 64.6865 41.4043V41.4111C64.6865 43.7012 63.5039 45.1436 61.6992 45.1436C60.6807 45.1436 59.8535 44.624 59.4297 43.79H59.3955V47.3926H57.9189ZM61.2959 43.8721C62.458 43.8721 63.1826 42.9287 63.1826 41.4111V41.4043C63.1826 39.873 62.4512 38.9365 61.2959 38.9365C60.1748 38.9365 59.3887 39.9072 59.3887 41.4043V41.4111C59.3887 42.9014 60.1816 43.8721 61.2959 43.8721ZM65.835 47.3926V37.8086H67.3115V39.0459H67.3457C67.7764 38.1914 68.5693 37.6719 69.5947 37.6719C71.4268 37.6719 72.6025 39.1074 72.6025 41.4043V41.4111C72.6025 43.7012 71.4199 45.1436 69.6152 45.1436C68.5967 45.1436 67.7695 44.624 67.3457 43.79H67.3115V47.3926H65.835ZM69.2119 43.8721C70.374 43.8721 71.0986 42.9287 71.0986 41.4111V41.4043C71.0986 39.873 70.3672 38.9365 69.2119 38.9365C68.0908 38.9365 67.3047 39.9072 67.3047 41.4043V41.4111C67.3047 42.9014 68.0977 43.8721 69.2119 43.8721ZM73.8057 45V35.1357H75.2822V45H73.8057ZM79.8691 45.1436C77.7568 45.1436 76.4785 43.7012 76.4785 41.4316V41.4248C76.4785 39.1758 77.7773 37.6719 79.7939 37.6719C81.8105 37.6719 83.0479 39.1211 83.0479 41.2812V41.7803H77.9551C77.9824 43.1406 78.7275 43.9336 79.9033 43.9336C80.7783 43.9336 81.3594 43.4824 81.5439 42.9424L81.5645 42.8877H82.9658L82.9521 42.9629C82.7197 44.1045 81.6123 45.1436 79.8691 45.1436ZM79.8008 38.8818C78.8438 38.8818 78.1055 39.5312 77.9756 40.7344H81.585C81.4619 39.4902 80.7646 38.8818 79.8008 38.8818ZM86.4863 45L90.0752 35.1357H91.7295L95.3115 45H93.7051L92.8027 42.334H89.002L88.0928 45H86.4863ZM90.8887 36.7695L89.4121 41.1035H92.3857L90.916 36.7695H90.8887ZM98.1963 45V36.6533H98.1621L95.585 38.4307V36.9814L98.1826 35.1357H99.6934V45H98.1963ZM105.812 45.1641C103.795 45.1641 101.936 43.7627 101.936 40.2148V40.2012C101.936 36.9131 103.405 34.9717 105.873 34.9717C107.63 34.9717 108.949 35.9766 109.264 37.4463L109.284 37.5283H107.746L107.726 37.46C107.445 36.7217 106.803 36.2568 105.859 36.2568C104.164 36.2568 103.474 37.8906 103.412 39.8457C103.405 39.9346 103.405 40.0234 103.405 40.1123H103.439C103.829 39.2236 104.827 38.5264 106.167 38.5264C108.054 38.5264 109.414 39.9004 109.414 41.7666V41.7803C109.414 43.749 107.89 45.1641 105.812 45.1641ZM103.706 41.7871C103.706 42.9561 104.622 43.8789 105.791 43.8789C106.96 43.8789 107.89 42.9697 107.89 41.8213V41.8076C107.89 40.6182 107.015 39.7705 105.812 39.7705C104.615 39.7705 103.706 40.6113 103.706 41.7803V41.7871ZM113.905 45V35.1357H117.843C119.593 35.1357 120.741 36.1133 120.741 37.6035V37.6172C120.741 38.6562 119.955 39.6201 118.916 39.7705V39.7979C120.317 39.9414 121.227 40.9053 121.227 42.2041V42.2178C121.227 43.9473 119.962 45 117.863 45H113.905ZM117.474 36.3867H115.437V39.3398H117.132C118.485 39.3398 119.217 38.793 119.217 37.8018V37.7881C119.217 36.8857 118.581 36.3867 117.474 36.3867ZM117.446 40.5225H115.437V43.749H117.549C118.923 43.749 119.661 43.1953 119.661 42.1426V42.1289C119.661 41.0693 118.909 40.5225 117.446 40.5225ZM123.168 36.7012C122.689 36.7012 122.307 36.3184 122.307 35.8535C122.307 35.3818 122.689 34.999 123.168 34.999C123.653 34.999 124.029 35.3818 124.029 35.8535C124.029 36.3184 123.653 36.7012 123.168 36.7012ZM122.43 45V37.8086H123.906V45H122.43ZM128.521 45.1436C126.456 45.1436 125.109 43.7148 125.109 41.4043V41.3906C125.109 39.0938 126.47 37.6719 128.514 37.6719C130.564 37.6719 131.932 39.0869 131.932 41.3906V41.4043C131.932 43.7217 130.578 45.1436 128.521 45.1436ZM128.527 43.9062C129.683 43.9062 130.421 42.9902 130.421 41.4043V41.3906C130.421 39.8184 129.669 38.9092 128.514 38.9092C127.379 38.9092 126.62 39.8184 126.62 41.3906V41.4043C126.62 42.9971 127.372 43.9062 128.527 43.9062ZM133.073 45V37.8086H134.55V38.8955H134.584C134.96 38.1641 135.698 37.6719 136.785 37.6719C138.364 37.6719 139.273 38.6904 139.273 40.3447V45H137.79V40.625C137.79 39.5449 137.284 38.9365 136.259 38.9365C135.22 38.9365 134.55 39.6885 134.55 40.8096V45H133.073ZM141.502 36.7012C141.023 36.7012 140.641 36.3184 140.641 35.8535C140.641 35.3818 141.023 34.999 141.502 34.999C141.987 34.999 142.363 35.3818 142.363 35.8535C142.363 36.3184 141.987 36.7012 141.502 36.7012ZM140.764 45V37.8086H142.24V45H140.764ZM146.854 45.1436C144.756 45.1436 143.443 43.7012 143.443 41.3975V41.3906C143.443 39.1143 144.783 37.6719 146.834 37.6719C148.687 37.6719 149.808 38.8613 149.931 40.2148L149.938 40.2627H148.529L148.516 40.208C148.358 39.5039 147.812 38.9092 146.848 38.9092C145.699 38.9092 144.954 39.8662 144.954 41.4043V41.4111C144.954 42.9834 145.713 43.9062 146.854 43.9062C147.764 43.9062 148.345 43.3799 148.522 42.6006L148.529 42.5459H149.951L149.944 42.5938C149.787 44.0361 148.584 45.1436 146.854 45.1436Z" fill="#4E4E4E"/>
</svg>
