<svg width="158" height="56" viewBox="0 0 158 56" fill="none" xmlns="http://www.w3.org/2000/svg">
<rect width="56" height="56" rx="11" fill="#F6F6F6"/>
<path d="M37.47 27.185L36.44 25.755C36.2095 25.4312 35.9051 25.1671 35.552 24.9844C35.199 24.8018 34.8075 24.706 34.41 24.705H30.03V22.565C30.03 21.902 29.7666 21.2661 29.2978 20.7972C28.8289 20.3284 28.193 20.065 27.53 20.065H20.56C19.8975 20.0668 19.2627 20.3308 18.7943 20.7993C18.3258 21.2677 18.0618 21.9025 18.06 22.565V32.505C18.06 32.9028 18.218 33.2844 18.4993 33.5657C18.7806 33.847 19.1622 34.005 19.56 34.005H20.78C20.8555 34.54 21.1217 35.0298 21.5296 35.3842C21.9375 35.7385 22.4597 35.9337 23 35.9337C23.5403 35.9337 24.0625 35.7385 24.4704 35.3842C24.8783 35.0298 25.1445 34.54 25.22 34.005H30.78C30.8555 34.54 31.1217 35.0298 31.5296 35.3842C31.9375 35.7385 32.4597 35.9337 33 35.9337C33.5403 35.9337 34.0625 35.7385 34.4704 35.3842C34.8783 35.0298 35.1445 34.54 35.22 34.005H36.44C36.8378 34.005 37.2194 33.847 37.5007 33.5657C37.782 33.2844 37.94 32.9028 37.94 32.505V28.635C37.9376 28.1146 37.7733 27.6079 37.47 27.185ZM23 34.935C22.7528 34.935 22.5111 34.8617 22.3055 34.7243C22.1 34.587 21.9398 34.3918 21.8452 34.1634C21.7505 33.9349 21.7258 33.6836 21.774 33.4411C21.8223 33.1987 21.9413 32.9759 22.1161 32.8011C22.2909 32.6263 22.5137 32.5073 22.7561 32.459C22.9986 32.4108 23.2499 32.4355 23.4784 32.5302C23.7068 32.6248 23.902 32.785 24.0393 32.9905C24.1767 33.1961 24.25 33.4378 24.25 33.685C24.25 34.0165 24.1183 34.3345 23.8839 34.5689C23.6495 34.8033 23.3315 34.935 23 34.935ZM29.03 33.005H25.15C25.0044 32.5491 24.7177 32.1513 24.3312 31.8691C23.9447 31.5868 23.4786 31.4347 23 31.4347C22.5214 31.4347 22.0553 31.5868 21.6688 31.8691C21.2823 32.1513 20.9956 32.5491 20.85 33.005H19.56C19.4274 33.005 19.3002 32.9523 19.2064 32.8586C19.1127 32.7648 19.06 32.6376 19.06 32.505V22.565C19.06 22.1672 19.218 21.7856 19.4993 21.5043C19.7806 21.223 20.1622 21.065 20.56 21.065H27.53C27.9278 21.065 28.3094 21.223 28.5907 21.5043C28.872 21.7856 29.03 22.1672 29.03 22.565V33.005ZM33 34.935C32.7528 34.935 32.5111 34.8617 32.3055 34.7243C32.1 34.587 31.9398 34.3918 31.8452 34.1634C31.7505 33.9349 31.7258 33.6836 31.774 33.4411C31.8223 33.1987 31.9413 32.9759 32.1161 32.8011C32.2909 32.6263 32.5137 32.5073 32.7561 32.459C32.9986 32.4108 33.2499 32.4355 33.4784 32.5302C33.7068 32.6248 33.902 32.785 34.0393 32.9905C34.1767 33.1961 34.25 33.4378 34.25 33.685C34.25 34.0165 34.1183 34.3345 33.8839 34.5689C33.6495 34.8033 33.3315 34.935 33 34.935ZM36.94 32.505C36.94 32.6376 36.8873 32.7648 36.7936 32.8586C36.6998 32.9523 36.5726 33.005 36.44 33.005H35.15C35.0044 32.5491 34.7177 32.1513 34.3312 31.8691C33.9447 31.5868 33.4786 31.4347 33 31.4347C32.5214 31.4347 32.0553 31.5868 31.6688 31.8691C31.2823 32.1513 30.9956 32.5491 30.85 33.005H30.03V25.705H34.41C34.6486 25.7066 34.8834 25.7645 35.0954 25.874C35.3074 25.9834 35.4906 26.1414 35.63 26.335L36.66 27.765C36.84 28.0196 36.9377 28.3232 36.94 28.635V32.505Z" fill="#797979"/>
<path d="M34.029 28.205H32.029C31.8964 28.205 31.7692 28.1523 31.6754 28.0586C31.5817 27.9648 31.529 27.8376 31.529 27.705C31.529 27.5724 31.5817 27.4452 31.6754 27.3515C31.7692 27.2577 31.8964 27.205 32.029 27.205H34.029C34.1616 27.205 34.2888 27.2577 34.3826 27.3515C34.4763 27.4452 34.529 27.5724 34.529 27.705C34.529 27.8376 34.4763 27.9648 34.3826 28.0586C34.2888 28.1523 34.1616 28.205 34.029 28.205Z" fill="#797979"/>
<path d="M74.4404 21H72.9092V11.1357H79.0684V12.4551H74.4404V15.5791H78.6787V16.8711H74.4404V21ZM80.2236 21V13.8086H81.6318V15.0322H81.666C81.9053 14.1914 82.5479 13.6924 83.3955 13.6924C83.6074 13.6924 83.792 13.7266 83.9014 13.7471V15.1211C83.7852 15.0732 83.5254 15.0391 83.2383 15.0391C82.2881 15.0391 81.7002 15.6748 81.7002 16.6934V21H80.2236ZM87.5107 14.8682C86.4785 14.8682 85.7539 15.6543 85.6787 16.7412H89.2744C89.2402 15.6406 88.543 14.8682 87.5107 14.8682ZM89.2676 18.8877H90.6689C90.4639 20.2002 89.2197 21.1367 87.5723 21.1367C85.46 21.1367 84.1816 19.708 84.1816 17.4385C84.1816 15.1826 85.4805 13.6787 87.5107 13.6787C89.5068 13.6787 90.751 15.0869 90.751 17.2676V17.7734H85.6719V17.8623C85.6719 19.1133 86.4238 19.9404 87.6064 19.9404C88.4473 19.9404 89.0693 19.5166 89.2676 18.8877ZM94.9072 14.8682C93.875 14.8682 93.1504 15.6543 93.0752 16.7412H96.6709C96.6367 15.6406 95.9395 14.8682 94.9072 14.8682ZM96.6641 18.8877H98.0654C97.8604 20.2002 96.6162 21.1367 94.9688 21.1367C92.8564 21.1367 91.5781 19.708 91.5781 17.4385C91.5781 15.1826 92.877 13.6787 94.9072 13.6787C96.9033 13.6787 98.1475 15.0869 98.1475 17.2676V17.7734H93.0684V17.8623C93.0684 19.1133 93.8203 19.9404 95.0029 19.9404C95.8438 19.9404 96.4658 19.5166 96.6641 18.8877ZM102.317 11.1357H105.797C108.729 11.1357 110.466 12.9404 110.466 16.0508C110.466 19.168 108.736 21 105.797 21H102.317V11.1357ZM103.849 12.4551V19.6738H105.653C107.745 19.6738 108.9 18.3955 108.9 16.0645C108.9 13.7402 107.738 12.4551 105.653 12.4551H103.849ZM114.759 14.8682C113.727 14.8682 113.002 15.6543 112.927 16.7412H116.522C116.488 15.6406 115.791 14.8682 114.759 14.8682ZM116.516 18.8877H117.917C117.712 20.2002 116.468 21.1367 114.82 21.1367C112.708 21.1367 111.43 19.708 111.43 17.4385C111.43 15.1826 112.729 13.6787 114.759 13.6787C116.755 13.6787 117.999 15.0869 117.999 17.2676V17.7734H112.92V17.8623C112.92 19.1133 113.672 19.9404 114.854 19.9404C115.695 19.9404 116.317 19.5166 116.516 18.8877ZM119.202 21V11.1357H120.679V21H119.202ZM122.244 21V13.8086H123.721V21H122.244ZM122.982 12.7559C122.511 12.7559 122.128 12.3799 122.128 11.915C122.128 11.4434 122.511 11.0674 122.982 11.0674C123.461 11.0674 123.844 11.4434 123.844 11.915C123.844 12.3799 123.461 12.7559 122.982 12.7559ZM131.37 13.8086L128.793 21H127.207L124.616 13.8086H126.188L127.993 19.5576H128.021L129.825 13.8086H131.37ZM135.021 14.8682C133.988 14.8682 133.264 15.6543 133.188 16.7412H136.784C136.75 15.6406 136.053 14.8682 135.021 14.8682ZM136.777 18.8877H138.179C137.974 20.2002 136.729 21.1367 135.082 21.1367C132.97 21.1367 131.691 19.708 131.691 17.4385C131.691 15.1826 132.99 13.6787 135.021 13.6787C137.017 13.6787 138.261 15.0869 138.261 17.2676V17.7734H133.182V17.8623C133.182 19.1133 133.934 19.9404 135.116 19.9404C135.957 19.9404 136.579 19.5166 136.777 18.8877ZM139.409 21V13.8086H140.817V15.0322H140.852C141.091 14.1914 141.733 13.6924 142.581 13.6924C142.793 13.6924 142.978 13.7266 143.087 13.7471V15.1211C142.971 15.0732 142.711 15.0391 142.424 15.0391C141.474 15.0391 140.886 15.6748 140.886 16.6934V21H139.409ZM144.714 23.6797C144.598 23.6797 144.222 23.666 144.112 23.6455V22.4492C144.222 22.4766 144.468 22.4766 144.591 22.4766C145.281 22.4766 145.644 22.1895 145.869 21.4512C145.869 21.4375 145.999 21.0137 145.999 21.0068L143.401 13.8086H145.001L146.826 19.6602H146.847L148.672 13.8086H150.23L147.53 21.376C146.915 23.1191 146.211 23.6797 144.714 23.6797Z" fill="#717171"/>
<path d="M75.2607 45V36.6533H75.2266L72.6494 38.4854V36.9814L75.2471 35.1357H76.7578V45H75.2607ZM83.6758 41.6641H79.1914V40.3311H83.6758V41.6641ZM85.1523 38.0273C85.1523 36.25 86.5811 34.9512 88.543 34.9512C90.4229 34.9512 91.8242 36.1475 91.8242 37.7129C91.8242 38.8613 91.209 39.7158 89.7666 41.1924L87.2988 43.6738V43.708H91.9814V45H85.2344V43.9609L88.7959 40.3311C89.999 39.0801 90.3135 38.5605 90.3135 37.7881C90.3135 36.9131 89.5205 36.2158 88.4951 36.2158C87.415 36.2158 86.6016 36.9951 86.6016 38.0205V38.041H85.1523V38.0273ZM98.8516 45.123C97.0332 45.123 95.8301 43.6738 95.8301 41.4043C95.8301 39.1348 97.0332 37.6924 98.8379 37.6924C99.8701 37.6924 100.69 38.2119 101.094 39.0049H101.121V35.1357H102.604V45H101.169V43.7764H101.142C100.718 44.5967 99.8975 45.123 98.8516 45.123ZM99.2412 38.9365C98.0723 38.9365 97.3408 39.8936 97.3408 41.4043C97.3408 42.9219 98.0723 43.8721 99.2412 43.8721C100.376 43.8721 101.135 42.9082 101.135 41.4043C101.135 39.9141 100.376 38.9365 99.2412 38.9365ZM106.638 43.9541C107.67 43.9541 108.477 43.2432 108.477 42.3066V41.7393L106.706 41.8486C105.824 41.9102 105.325 42.2998 105.325 42.915C105.325 43.5439 105.845 43.9541 106.638 43.9541ZM106.228 45.123C104.819 45.123 103.835 44.248 103.835 42.9561C103.835 41.6982 104.799 40.9258 106.508 40.8301L108.477 40.7139V40.1602C108.477 39.3604 107.937 38.8818 107.034 38.8818C106.18 38.8818 105.646 39.292 105.517 39.9346H104.122C104.204 38.6357 105.312 37.6787 107.089 37.6787C108.832 37.6787 109.946 38.6016 109.946 40.0439V45H108.531V43.8174H108.497C108.08 44.6172 107.171 45.123 106.228 45.123ZM112.093 47.6797C111.977 47.6797 111.601 47.666 111.491 47.6455V46.4492C111.601 46.4766 111.847 46.4766 111.97 46.4766C112.66 46.4766 113.022 46.1895 113.248 45.4512C113.248 45.4375 113.378 45.0137 113.378 45.0068L110.78 37.8086H112.38L114.205 43.6602H114.226L116.051 37.8086H117.609L114.909 45.376C114.294 47.1191 113.59 47.6797 112.093 47.6797Z" fill="black"/>
</svg>
