<svg width="1040" height="32" viewBox="0 0 1040 32" fill="none" xmlns="http://www.w3.org/2000/svg">
<path d="M1040 31.5H0V32.5H1040V31.5Z" fill="#CDCDCD" mask="url(#path-1-inside-1_158_728)"/>
<path d="M5.35156 18H3.94531V7.99219H0.390625V6.72656H8.90625V7.99219H5.35156V18ZM10.25 18V6.72656H11.6094V11.1719H11.6406C12.0938 10.2656 12.9844 9.73438 14.2188 9.73438C16 9.73438 17.0781 10.9375 17.0781 12.75V18H15.7188V13C15.7188 11.7109 15.0703 10.9375 13.7969 10.9375C12.4453 10.9375 11.6094 11.8594 11.6094 13.2656V18H10.25ZM22.0625 10.9141C20.7891 10.9141 19.8984 11.8906 19.8125 13.2422H24.2266C24.1953 11.8828 23.3438 10.9141 22.0625 10.9141ZM24.1953 15.6719H25.5312C25.2969 17.0938 23.9219 18.1406 22.1484 18.1406C19.8203 18.1406 18.4062 16.5234 18.4062 13.9688C18.4062 11.4453 19.8438 9.73438 22.0859 9.73438C24.2812 9.73438 25.6328 11.3281 25.6328 13.7891V14.3047H19.8047V14.3828C19.8047 15.9375 20.7188 16.9609 22.1797 16.9609C23.2109 16.9609 23.9688 16.4375 24.1953 15.6719ZM30.1484 12.1172C30.1484 10.7266 31.3906 9.73438 33.1797 9.73438C34.8594 9.73438 36.0938 10.7344 36.1562 12.1094H34.8594C34.7656 11.3281 34.1328 10.8438 33.1328 10.8438C32.1406 10.8438 31.4844 11.3359 31.4844 12.0469C31.4844 12.6094 31.9141 12.9844 32.8359 13.2188L34.0938 13.5234C35.7344 13.9375 36.3281 14.5312 36.3281 15.7266C36.3281 17.1406 34.9922 18.1406 33.0938 18.1406C31.3125 18.1406 30.0703 17.1719 29.9297 15.7344H31.2891C31.4375 16.5781 32.0781 17.0312 33.1797 17.0312C34.2812 17.0312 34.9609 16.5625 34.9609 15.8281C34.9609 15.25 34.625 14.9375 33.7109 14.6953L32.2812 14.3281C30.8516 13.9609 30.1484 13.2266 30.1484 12.1172ZM44.4922 12.5391H43.1641C42.9688 11.6562 42.2812 10.9297 41.0859 10.9297C39.6797 10.9297 38.7266 12.0938 38.7266 13.9375C38.7266 15.8281 39.6953 16.9453 41.1016 16.9453C42.2109 16.9453 42.9375 16.3594 43.1719 15.3828H44.5078C44.2969 17 42.9375 18.1406 41.0938 18.1406C38.8438 18.1406 37.3438 16.5547 37.3438 13.9375C37.3438 11.375 38.8359 9.73438 41.0781 9.73438C43.1094 9.73438 44.3203 11.0781 44.4922 12.5391ZM45.7578 18V9.875H47.0391V11.2031H47.0703C47.3359 10.3047 48.0859 9.73438 49.0391 9.73438C49.2734 9.73438 49.4766 9.77344 49.5859 9.78906V11.1094C49.4766 11.0703 49.1875 11.0312 48.8594 11.0312C47.8047 11.0312 47.1172 11.7891 47.1172 12.9375V18H45.7578ZM53.5625 10.9141C52.2891 10.9141 51.3984 11.8906 51.3125 13.2422H55.7266C55.6953 11.8828 54.8438 10.9141 53.5625 10.9141ZM55.6953 15.6719H57.0312C56.7969 17.0938 55.4219 18.1406 53.6484 18.1406C51.3203 18.1406 49.9062 16.5234 49.9062 13.9688C49.9062 11.4453 51.3438 9.73438 53.5859 9.73438C55.7812 9.73438 57.1328 11.3281 57.1328 13.7891V14.3047H51.3047V14.3828C51.3047 15.9375 52.2188 16.9609 53.6797 16.9609C54.7109 16.9609 55.4688 16.4375 55.6953 15.6719ZM61.7656 10.9141C60.4922 10.9141 59.6016 11.8906 59.5156 13.2422H63.9297C63.8984 11.8828 63.0469 10.9141 61.7656 10.9141ZM63.8984 15.6719H65.2344C65 17.0938 63.625 18.1406 61.8516 18.1406C59.5234 18.1406 58.1094 16.5234 58.1094 13.9688C58.1094 11.4453 59.5469 9.73438 61.7891 9.73438C63.9844 9.73438 65.3359 11.3281 65.3359 13.7891V14.3047H59.5078V14.3828C59.5078 15.9375 60.4219 16.9609 61.8828 16.9609C62.9141 16.9609 63.6719 16.4375 63.8984 15.6719ZM66.7109 18V9.875H67.9922V11.1719H68.0234C68.4766 10.2969 69.3438 9.73438 70.6016 9.73438C72.3828 9.73438 73.4141 10.8828 73.4141 12.7266V18H72.0547V12.9688C72.0547 11.6562 71.4375 10.9375 70.1875 10.9375C68.9062 10.9375 68.0703 11.8438 68.0703 13.2188V18H66.7109ZM78.4297 18V9.875H79.7109V11.2031H79.7422C80.0078 10.3047 80.7578 9.73438 81.7109 9.73438C81.9453 9.73438 82.1484 9.77344 82.2578 9.78906V11.1094C82.1484 11.0703 81.8594 11.0312 81.5312 11.0312C80.4766 11.0312 79.7891 11.7891 79.7891 12.9375V18H78.4297ZM86.2344 10.9141C84.9609 10.9141 84.0703 11.8906 83.9844 13.2422H88.3984C88.3672 11.8828 87.5156 10.9141 86.2344 10.9141ZM88.3672 15.6719H89.7031C89.4688 17.0938 88.0938 18.1406 86.3203 18.1406C83.9922 18.1406 82.5781 16.5234 82.5781 13.9688C82.5781 11.4453 84.0156 9.73438 86.2578 9.73438C88.4531 9.73438 89.8047 11.3281 89.8047 13.7891V14.3047H83.9766V14.3828C83.9766 15.9375 84.8906 16.9609 86.3516 16.9609C87.3828 16.9609 88.1406 16.4375 88.3672 15.6719ZM91.0391 12.1172C91.0391 10.7266 92.2812 9.73438 94.0703 9.73438C95.75 9.73438 96.9844 10.7344 97.0469 12.1094H95.75C95.6562 11.3281 95.0234 10.8438 94.0234 10.8438C93.0312 10.8438 92.375 11.3359 92.375 12.0469C92.375 12.6094 92.8047 12.9844 93.7266 13.2188L94.9844 13.5234C96.625 13.9375 97.2188 14.5312 97.2188 15.7266C97.2188 17.1406 95.8828 18.1406 93.9844 18.1406C92.2031 18.1406 90.9609 17.1719 90.8203 15.7344H92.1797C92.3281 16.5781 92.9688 17.0312 94.0703 17.0312C95.1719 17.0312 95.8516 16.5625 95.8516 15.8281C95.8516 15.25 95.5156 14.9375 94.6016 14.6953L93.1719 14.3281C91.7422 13.9609 91.0391 13.2266 91.0391 12.1172ZM102 18.1406C99.75 18.1406 98.2344 16.5234 98.2344 13.9375C98.2344 11.3438 99.75 9.73438 102 9.73438C104.242 9.73438 105.758 11.3438 105.758 13.9375C105.758 16.5234 104.242 18.1406 102 18.1406ZM102 16.9453C103.438 16.9453 104.375 15.8516 104.375 13.9375C104.375 12.0234 103.438 10.9297 102 10.9297C100.562 10.9297 99.6172 12.0234 99.6172 13.9375C99.6172 15.8516 100.562 16.9453 102 16.9453ZM107.203 18V6.72656H108.562V18H107.203ZM117.07 9.875V18H115.781V16.6797H115.75C115.266 17.6172 114.422 18.1406 113.172 18.1406C111.398 18.1406 110.359 16.9922 110.359 15.1484V9.875H111.719V14.9062C111.719 16.2266 112.336 16.9375 113.594 16.9375C114.914 16.9375 115.711 16.0312 115.711 14.6484V9.875H117.07ZM119.273 7.91406H120.633V9.875H122.211V10.9922H120.633V15.8203C120.633 16.5625 120.945 16.8984 121.641 16.8984C121.797 16.8984 122.109 16.875 122.203 16.8594V18C122.039 18.0391 121.664 18.0625 121.344 18.0625C119.852 18.0625 119.273 17.4531 119.273 15.8906V10.9922H118.062V9.875H119.273V7.91406ZM123.734 18V9.875H125.094V18H123.734ZM124.414 8.50781C123.953 8.50781 123.57 8.125 123.57 7.66406C123.57 7.19531 123.953 6.82031 124.414 6.82031C124.883 6.82031 125.266 7.19531 125.266 7.66406C125.266 8.125 124.883 8.50781 124.414 8.50781ZM130.297 18.1406C128.047 18.1406 126.531 16.5234 126.531 13.9375C126.531 11.3438 128.047 9.73438 130.297 9.73438C132.539 9.73438 134.055 11.3438 134.055 13.9375C134.055 16.5234 132.539 18.1406 130.297 18.1406ZM130.297 16.9453C131.734 16.9453 132.672 15.8516 132.672 13.9375C132.672 12.0234 131.734 10.9297 130.297 10.9297C128.859 10.9297 127.914 12.0234 127.914 13.9375C127.914 15.8516 128.859 16.9453 130.297 16.9453ZM135.43 18V9.875H136.711V11.1719H136.742C137.195 10.2969 138.062 9.73438 139.32 9.73438C141.102 9.73438 142.133 10.8828 142.133 12.7266V18H140.773V12.9688C140.773 11.6562 140.156 10.9375 138.906 10.9375C137.625 10.9375 136.789 11.8438 136.789 13.2188V18H135.43Z" fill="black"/>
<path d="M964.857 17V16.0918L968.578 12.21C970.006 10.7231 970.335 10.1519 970.335 9.27295V9.2583C970.328 8.18164 969.515 7.40527 968.365 7.40527C967.047 7.40527 966.065 8.31348 966.065 9.44873V9.48535H964.791V9.44141C964.791 7.61035 966.373 6.25537 968.343 6.25537C970.255 6.25537 971.654 7.53711 971.654 9.19238V9.20703C971.654 10.3643 971.119 11.2358 969.178 13.2207L966.666 15.7988V15.8281H971.83V17H964.857ZM973.961 17L978.744 7.63232V7.60303H973.053V6.43115H980.047V7.6543L975.345 17H973.961ZM985.277 6.25537C987.225 6.25537 989.291 7.60303 989.291 11.5215V11.5361C989.291 15.0957 987.774 17.1758 985.189 17.1758C983.395 17.1758 982.054 16.1504 981.703 14.6123L981.681 14.5171H983.021L983.05 14.5977C983.365 15.4692 984.12 16.0112 985.204 16.0112C987.174 16.0112 987.95 14.0996 988.009 11.8804C988.016 11.8071 988.016 11.7339 988.016 11.6533H987.987C987.562 12.5908 986.478 13.3525 985.042 13.3525C983.028 13.3525 981.534 11.8657 981.534 9.85889V9.84424C981.534 7.76416 983.116 6.25537 985.277 6.25537ZM985.27 12.1953C986.654 12.1953 987.701 11.2139 987.701 9.86621V9.85889C987.701 8.50391 986.646 7.42725 985.292 7.42725C983.944 7.42725 982.875 8.48193 982.875 9.81494V9.82959C982.875 11.2065 983.878 12.1953 985.27 12.1953ZM994.637 17.1758C992.689 17.1758 990.624 15.8281 990.624 11.9097V11.895C990.624 8.33545 992.14 6.25537 994.725 6.25537C996.52 6.25537 997.86 7.28076 998.211 8.81885L998.233 8.91406H996.893L996.864 8.8335C996.549 7.96191 995.794 7.41992 994.71 7.41992C992.74 7.41992 991.964 9.33154 991.905 11.5508C991.898 11.624 991.898 11.6973 991.898 11.7778H991.927C992.352 10.8403 993.436 10.0786 994.872 10.0786C996.886 10.0786 998.38 11.5654 998.38 13.5723V13.5869C998.38 15.667 996.798 17.1758 994.637 17.1758ZM992.213 13.5723C992.213 14.9272 993.268 16.0039 994.623 16.0039C995.97 16.0039 997.04 14.9492 997.04 13.6162V13.6016C997.04 12.2246 996.036 11.2358 994.645 11.2358C993.26 11.2358 992.213 12.2173 992.213 13.5649V13.5723ZM999.449 17L1002.04 13.1914L999.493 9.38281H1000.91L1002.75 12.2393H1002.77L1004.58 9.38281H1006L1003.43 13.1401L1005.97 17H1004.55L1002.73 14.0996H1002.7L1000.86 17H999.449ZM1009.8 17V7.83008H1009.77L1006.97 9.77832V8.45264L1009.78 6.43115H1011.07V17H1009.8ZM1013.75 17V16.0918L1017.47 12.21C1018.9 10.7231 1019.23 10.1519 1019.23 9.27295V9.2583C1019.22 8.18164 1018.41 7.40527 1017.26 7.40527C1015.94 7.40527 1014.96 8.31348 1014.96 9.44873V9.48535H1013.69V9.44141C1013.69 7.61035 1015.27 6.25537 1017.24 6.25537C1019.15 6.25537 1020.55 7.53711 1020.55 9.19238V9.20703C1020.55 10.3643 1020.02 11.2358 1018.07 13.2207L1015.56 15.7988V15.8281H1020.73V17H1013.75ZM1025.97 6.25537C1027.92 6.25537 1029.98 7.60303 1029.98 11.5215V11.5361C1029.98 15.0957 1028.47 17.1758 1025.88 17.1758C1024.09 17.1758 1022.75 16.1504 1022.4 14.6123L1022.37 14.5171H1023.71L1023.74 14.5977C1024.06 15.4692 1024.81 16.0112 1025.9 16.0112C1027.87 16.0112 1028.64 14.0996 1028.7 11.8804C1028.71 11.8071 1028.71 11.7339 1028.71 11.6533H1028.68C1028.26 12.5908 1027.17 13.3525 1025.74 13.3525C1023.72 13.3525 1022.23 11.8657 1022.23 9.85889V9.84424C1022.23 7.76416 1023.81 6.25537 1025.97 6.25537ZM1025.96 12.1953C1027.35 12.1953 1028.39 11.2139 1028.39 9.86621V9.85889C1028.39 8.50391 1027.34 7.42725 1025.98 7.42725C1024.64 7.42725 1023.57 8.48193 1023.57 9.81494V9.82959C1023.57 11.2065 1024.57 12.1953 1025.96 12.1953ZM1035.19 17.1758C1032.76 17.1758 1031.32 15.0737 1031.32 11.7192V11.7046C1031.32 8.3501 1032.76 6.25537 1035.19 6.25537C1037.62 6.25537 1039.08 8.3501 1039.08 11.7046V11.7192C1039.08 15.0737 1037.62 17.1758 1035.19 17.1758ZM1035.19 16.0259C1036.8 16.0259 1037.75 14.3706 1037.75 11.7192V11.7046C1037.75 9.05322 1036.8 7.4126 1035.19 7.4126C1033.58 7.4126 1032.64 9.05322 1032.64 11.7046V11.7192C1032.64 14.3706 1033.58 16.0259 1035.19 16.0259Z" fill="black"/>
</svg>
