<svg width="532" height="63" viewBox="0 0 532 63" fill="none" xmlns="http://www.w3.org/2000/svg">
<path d="M0.957031 11V1.13574H7.06836V2.24316H2.1875V5.4082H6.81543V6.50195H2.1875V9.89258H7.06836V11H0.957031ZM8.93074 11V3.89062H10.1202V4.90234H10.1475C10.5304 4.23926 11.255 3.75391 12.335 3.75391C13.8936 3.75391 14.796 4.76562 14.796 6.38574V11H13.6065V6.59766C13.6065 5.44238 13.0665 4.80664 11.9727 4.80664C10.8516 4.80664 10.1202 5.60645 10.1202 6.81641V11H8.93074ZM16.7951 11V1.13574H17.9845V5.02539H18.0119C18.3947 4.22559 19.1671 3.75391 20.2267 3.75391C21.7375 3.75391 22.7697 4.92285 22.7697 6.64551V11H21.5802V6.85059C21.5802 5.56543 20.924 4.80664 19.8166 4.80664C18.716 4.80664 17.9845 5.64062 17.9845 6.85059V11H16.7951ZM26.7786 11.1367C25.3635 11.1367 24.4133 10.2822 24.4133 8.99023V8.97656C24.4133 7.7666 25.3567 7.00781 26.9905 6.91211L29.0276 6.7959V6.20117C29.0276 5.33301 28.4602 4.80664 27.469 4.80664C26.553 4.80664 25.9788 5.24414 25.842 5.87988L25.8284 5.94141H24.6799L24.6868 5.86621C24.7893 4.69727 25.8079 3.75391 27.4827 3.75391C29.1643 3.75391 30.217 4.66309 30.217 6.08496V11H29.0276V9.84473H29.0002C28.5832 10.624 27.7288 11.1367 26.7786 11.1367ZM25.6301 8.99023C25.6301 9.67383 26.1907 10.1045 27.0452 10.1045C28.1663 10.1045 29.0276 9.33203 29.0276 8.2998V7.71875L27.1272 7.83496C26.177 7.88965 25.6301 8.31348 25.6301 8.97656V8.99023ZM32.1478 11V3.89062H33.3372V4.90234H33.3646C33.7474 4.23926 34.472 3.75391 35.5521 3.75391C37.1107 3.75391 38.013 4.76562 38.013 6.38574V11H36.8236V6.59766C36.8236 5.44238 36.2835 4.80664 35.1898 4.80664C34.0687 4.80664 33.3372 5.60645 33.3372 6.81641V11H32.1478ZM42.8969 11.1367C40.8803 11.1367 39.602 9.70117 39.602 7.43848V7.43164C39.602 5.18945 40.9076 3.75391 42.8832 3.75391C44.6537 3.75391 45.6996 4.92969 45.85 6.14648L45.8568 6.20117H44.6947L44.6811 6.14648C44.5033 5.43555 43.9291 4.80664 42.8832 4.80664C41.6459 4.80664 40.8187 5.83203 40.8187 7.44531V7.45215C40.8187 9.10645 41.6664 10.084 42.8969 10.084C43.8676 10.084 44.4896 9.53711 44.6879 8.74414L44.7016 8.68945H45.8705L45.8637 8.7373C45.6723 10.0908 44.5033 11.1367 42.8969 11.1367ZM50.31 11.1367C48.2661 11.1367 47.0356 9.70801 47.0356 7.47266V7.46582C47.0356 5.26465 48.2934 3.75391 50.2348 3.75391C52.1763 3.75391 53.3589 5.19629 53.3589 7.3291V7.7666H48.2388C48.2661 9.22949 49.0727 10.084 50.3374 10.084C51.2397 10.084 51.8755 9.63281 52.0805 9.02441L52.1011 8.96289H53.27L53.2563 9.03125C53.0239 10.207 51.8618 11.1367 50.31 11.1367ZM50.228 4.80664C49.1958 4.80664 48.3891 5.51074 48.2593 6.83691H52.1489C52.0327 5.45605 51.2671 4.80664 50.228 4.80664ZM57.6548 11.1367C55.8365 11.1367 54.6334 9.6875 54.6334 7.44531V7.43848C54.6334 5.19629 55.8502 3.75391 57.6343 3.75391C58.6392 3.75391 59.4664 4.25977 59.9107 5.08008H59.938V1.13574H61.1275V11H59.938V9.79688H59.9107C59.4664 10.624 58.6734 11.1367 57.6548 11.1367ZM57.8873 10.084C59.0904 10.084 59.9449 9.03809 59.9449 7.44531V7.43848C59.9449 5.85254 59.0836 4.80664 57.8873 4.80664C56.6295 4.80664 55.8502 5.81836 55.8502 7.43848V7.44531C55.8502 9.0791 56.6295 10.084 57.8873 10.084ZM69.3913 11.1367C67.3747 11.1367 66.0964 9.70117 66.0964 7.43848V7.43164C66.0964 5.18945 67.4021 3.75391 69.3777 3.75391C71.1482 3.75391 72.1941 4.92969 72.3445 6.14648L72.3513 6.20117H71.1892L71.1755 6.14648C70.9978 5.43555 70.4236 4.80664 69.3777 4.80664C68.1404 4.80664 67.3132 5.83203 67.3132 7.44531V7.45215C67.3132 9.10645 68.1609 10.084 69.3913 10.084C70.362 10.084 70.9841 9.53711 71.1823 8.74414L71.196 8.68945H72.365L72.3581 8.7373C72.1667 10.0908 70.9978 11.1367 69.3913 11.1367ZM75.9568 11.1367C74.5418 11.1367 73.5916 10.2822 73.5916 8.99023V8.97656C73.5916 7.7666 74.535 7.00781 76.1687 6.91211L78.2059 6.7959V6.20117C78.2059 5.33301 77.6385 4.80664 76.6473 4.80664C75.7312 4.80664 75.157 5.24414 75.0203 5.87988L75.0066 5.94141H73.8582L73.865 5.86621C73.9676 4.69727 74.9861 3.75391 76.6609 3.75391C78.3426 3.75391 79.3953 4.66309 79.3953 6.08496V11H78.2059V9.84473H78.1785C77.7615 10.624 76.907 11.1367 75.9568 11.1367ZM74.8084 8.99023C74.8084 9.67383 75.3689 10.1045 76.2234 10.1045C77.3445 10.1045 78.2059 9.33203 78.2059 8.2998V7.71875L76.3055 7.83496C75.3553 7.88965 74.8084 8.31348 74.8084 8.97656V8.99023ZM81.3261 13.3926V3.89062H82.5155V5.09375H82.5429C82.9872 4.2666 83.7802 3.75391 84.7987 3.75391C86.6171 3.75391 87.8202 5.20312 87.8202 7.44531V7.45215C87.8202 9.69434 86.6034 11.1367 84.8192 11.1367C83.8143 11.1367 82.9872 10.6309 82.5429 9.81055H82.5155V13.3926H81.3261ZM84.5663 10.084C85.8241 10.084 86.6034 9.07227 86.6034 7.45215V7.44531C86.6034 5.81152 85.8241 4.80664 84.5663 4.80664C83.3632 4.80664 82.5087 5.85254 82.5087 7.44531V7.45215C82.5087 9.03809 83.37 10.084 84.5663 10.084ZM91.5214 11.1367C90.1064 11.1367 89.1562 10.2822 89.1562 8.99023V8.97656C89.1562 7.7666 90.0996 7.00781 91.7334 6.91211L93.7705 6.7959V6.20117C93.7705 5.33301 93.2031 4.80664 92.2119 4.80664C91.2959 4.80664 90.7216 5.24414 90.5849 5.87988L90.5713 5.94141H89.4228L89.4296 5.86621C89.5322 4.69727 90.5507 3.75391 92.2255 3.75391C93.9072 3.75391 94.9599 4.66309 94.9599 6.08496V11H93.7705V9.84473H93.7431C93.3261 10.624 92.4716 11.1367 91.5214 11.1367ZM90.373 8.99023C90.373 9.67383 90.9336 10.1045 91.788 10.1045C92.9091 10.1045 93.7705 9.33203 93.7705 8.2998V7.71875L91.8701 7.83496C90.9199 7.88965 90.373 8.31348 90.373 8.97656V8.99023ZM100.425 11.1367C99.4063 11.1367 98.6133 10.624 98.169 9.79688H98.1416V11H96.9522V1.13574H98.1416V5.08008H98.169C98.6133 4.25977 99.4405 3.75391 100.445 3.75391C102.23 3.75391 103.446 5.19629 103.446 7.43848V7.44531C103.446 9.6875 102.243 11.1367 100.425 11.1367ZM100.192 10.084C101.45 10.084 102.23 9.0791 102.23 7.44531V7.43848C102.23 5.81836 101.45 4.80664 100.192 4.80664C98.9961 4.80664 98.1348 5.85254 98.1348 7.43848V7.44531C98.1348 9.03809 98.9893 10.084 100.192 10.084ZM105.733 2.6875C105.322 2.6875 104.987 2.35254 104.987 1.94238C104.987 1.52539 105.322 1.19727 105.733 1.19727C106.15 1.19727 106.478 1.52539 106.478 1.94238C106.478 2.35254 106.15 2.6875 105.733 2.6875ZM105.138 11V3.89062H106.327V11H105.138ZM108.429 11V1.13574H109.618V11H108.429ZM112.315 2.6875C111.905 2.6875 111.57 2.35254 111.57 1.94238C111.57 1.52539 111.905 1.19727 112.315 1.19727C112.732 1.19727 113.06 1.52539 113.06 1.94238C113.06 2.35254 112.732 2.6875 112.315 2.6875ZM111.72 11V3.89062H112.909V11H111.72ZM117.26 11.1367C115.954 11.1367 115.312 10.5488 115.312 9.18848V4.875H114.273V3.89062H115.312V1.96973H116.542V3.89062H117.896V4.875H116.542V9.18164C116.542 9.94043 116.877 10.1523 117.513 10.1523C117.657 10.1523 117.793 10.1318 117.896 10.125V11.0889C117.745 11.1094 117.493 11.1367 117.26 11.1367ZM120.264 2.6875C119.854 2.6875 119.519 2.35254 119.519 1.94238C119.519 1.52539 119.854 1.19727 120.264 1.19727C120.681 1.19727 121.009 1.52539 121.009 1.94238C121.009 2.35254 120.681 2.6875 120.264 2.6875ZM119.669 11V3.89062H120.859V11H119.669ZM125.825 11.1367C123.781 11.1367 122.55 9.70801 122.55 7.47266V7.46582C122.55 5.26465 123.808 3.75391 125.75 3.75391C127.691 3.75391 128.874 5.19629 128.874 7.3291V7.7666H123.753C123.781 9.22949 124.587 10.084 125.852 10.084C126.754 10.084 127.39 9.63281 127.595 9.02441L127.616 8.96289H128.785L128.771 9.03125C128.539 10.207 127.376 11.1367 125.825 11.1367ZM125.743 4.80664C124.71 4.80664 123.904 5.51074 123.774 6.83691H127.664C127.547 5.45605 126.782 4.80664 125.743 4.80664ZM133.019 11.1367C131.344 11.1367 130.333 10.2822 130.189 9.01074L130.182 8.94922H131.372L131.385 9.01758C131.529 9.72852 132.055 10.1455 133.026 10.1455C133.99 10.1455 134.564 9.74219 134.564 9.09961V9.09277C134.564 8.58008 134.297 8.29297 133.491 8.09473L132.363 7.82129C131.023 7.5 130.374 6.87793 130.374 5.85254V5.8457C130.374 4.62207 131.447 3.75391 132.985 3.75391C134.544 3.75391 135.535 4.66309 135.624 5.85254L135.63 5.94141H134.496L134.489 5.89355C134.393 5.20312 133.867 4.74512 132.985 4.74512C132.124 4.74512 131.59 5.16211 131.59 5.79102V5.79785C131.59 6.2832 131.912 6.61816 132.698 6.80957L133.826 7.08301C135.261 7.43164 135.781 7.99902 135.781 9.01074V9.01758C135.781 10.2617 134.605 11.1367 133.019 11.1367ZM143.04 11.1367C141.734 11.1367 141.092 10.5488 141.092 9.18848V4.875H140.053V3.89062H141.092V1.96973H142.322V3.89062H143.676V4.875H142.322V9.18164C142.322 9.94043 142.657 10.1523 143.293 10.1523C143.436 10.1523 143.573 10.1318 143.676 10.125V11.0889C143.525 11.1094 143.272 11.1367 143.04 11.1367ZM145.435 11V1.13574H146.625V5.02539H146.652C147.035 4.22559 147.807 3.75391 148.867 3.75391C150.378 3.75391 151.41 4.92285 151.41 6.64551V11H150.221V6.85059C150.221 5.56543 149.564 4.80664 148.457 4.80664C147.356 4.80664 146.625 5.64062 146.625 6.85059V11H145.435ZM155.419 11.1367C154.004 11.1367 153.054 10.2822 153.054 8.99023V8.97656C153.054 7.7666 153.997 7.00781 155.631 6.91211L157.668 6.7959V6.20117C157.668 5.33301 157.101 4.80664 156.109 4.80664C155.193 4.80664 154.619 5.24414 154.482 5.87988L154.469 5.94141H153.32L153.327 5.86621C153.43 4.69727 154.448 3.75391 156.123 3.75391C157.805 3.75391 158.857 4.66309 158.857 6.08496V11H157.668V9.84473H157.641C157.224 10.624 156.369 11.1367 155.419 11.1367ZM154.27 8.99023C154.27 9.67383 154.831 10.1045 155.685 10.1045C156.807 10.1045 157.668 9.33203 157.668 8.2998V7.71875L155.768 7.83496C154.817 7.88965 154.27 8.31348 154.27 8.97656V8.99023ZM160.788 11V3.89062H161.978V4.90234H162.005C162.388 4.23926 163.112 3.75391 164.192 3.75391C165.751 3.75391 166.653 4.76562 166.653 6.38574V11H165.464V6.59766C165.464 5.44238 164.924 4.80664 163.83 4.80664C162.709 4.80664 161.978 5.60645 161.978 6.81641V11H160.788ZM168.687 11V1.13574H169.876V7.02832H169.903L173.021 3.89062H174.463L171.38 6.95996L174.559 11H173.178L170.539 7.68457L169.876 8.32031V11H168.687ZM178.055 11.1367C176.38 11.1367 175.368 10.2822 175.225 9.01074L175.218 8.94922H176.407L176.421 9.01758C176.565 9.72852 177.091 10.1455 178.062 10.1455C179.026 10.1455 179.6 9.74219 179.6 9.09961V9.09277C179.6 8.58008 179.333 8.29297 178.527 8.09473L177.399 7.82129C176.059 7.5 175.409 6.87793 175.409 5.85254V5.8457C175.409 4.62207 176.483 3.75391 178.021 3.75391C179.579 3.75391 180.57 4.66309 180.659 5.85254L180.666 5.94141H179.531L179.525 5.89355C179.429 5.20312 178.902 4.74512 178.021 4.74512C177.159 4.74512 176.626 5.16211 176.626 5.79102V5.79785C176.626 6.2832 176.947 6.61816 177.734 6.80957L178.861 7.08301C180.297 7.43164 180.817 7.99902 180.817 9.01074V9.01758C180.817 10.2617 179.641 11.1367 178.055 11.1367ZM188.076 11.1367C186.77 11.1367 186.127 10.5488 186.127 9.18848V4.875H185.088V3.89062H186.127V1.96973H187.358V3.89062H188.711V4.875H187.358V9.18164C187.358 9.94043 187.693 10.1523 188.328 10.1523C188.472 10.1523 188.609 10.1318 188.711 10.125V11.0889C188.561 11.1094 188.308 11.1367 188.076 11.1367ZM193.151 11.1367C191.175 11.1367 189.856 9.70801 189.856 7.44531V7.43164C189.856 5.16895 191.182 3.75391 193.144 3.75391C195.106 3.75391 196.439 5.16211 196.439 7.43164V7.44531C196.439 9.71484 195.113 11.1367 193.151 11.1367ZM193.158 10.084C194.409 10.084 195.222 9.11328 195.222 7.44531V7.43164C195.222 5.76367 194.402 4.80664 193.144 4.80664C191.907 4.80664 191.073 5.77051 191.073 7.43164V7.44531C191.073 9.12012 191.9 10.084 193.158 10.084ZM200.14 11.1367C198.725 11.1367 197.775 10.2822 197.775 8.99023V8.97656C197.775 7.7666 198.718 7.00781 200.352 6.91211L202.389 6.7959V6.20117C202.389 5.33301 201.822 4.80664 200.831 4.80664C199.915 4.80664 199.34 5.24414 199.204 5.87988L199.19 5.94141H198.041L198.048 5.86621C198.151 4.69727 199.169 3.75391 200.844 3.75391C202.526 3.75391 203.579 4.66309 203.579 6.08496V11H202.389V9.84473H202.362C201.945 10.624 201.09 11.1367 200.14 11.1367ZM198.992 8.99023C198.992 9.67383 199.552 10.1045 200.407 10.1045C201.528 10.1045 202.389 9.33203 202.389 8.2998V7.71875L200.489 7.83496C199.539 7.88965 198.992 8.31348 198.992 8.97656V8.99023ZM205.509 11V3.89062H206.699V4.90234H206.726C207.109 4.23926 207.834 3.75391 208.914 3.75391C210.472 3.75391 211.375 4.76562 211.375 6.38574V11H210.185V6.59766C210.185 5.44238 209.645 4.80664 208.551 4.80664C207.43 4.80664 206.699 5.60645 206.699 6.81641V11H205.509ZM219.529 11.1367C217.485 11.1367 216.255 9.70801 216.255 7.47266V7.46582C216.255 5.26465 217.512 3.75391 219.454 3.75391C221.395 3.75391 222.578 5.19629 222.578 7.3291V7.7666H217.458C217.485 9.22949 218.292 10.084 219.556 10.084C220.459 10.084 221.094 9.63281 221.3 9.02441L221.32 8.96289H222.489L222.475 9.03125C222.243 10.207 221.081 11.1367 219.529 11.1367ZM219.447 4.80664C218.415 4.80664 217.608 5.51074 217.478 6.83691H221.368C221.252 5.45605 220.486 4.80664 219.447 4.80664ZM224.201 11V3.89062H225.39V4.90234H225.418C225.801 4.23926 226.525 3.75391 227.605 3.75391C229.164 3.75391 230.066 4.76562 230.066 6.38574V11H228.877V6.59766C228.877 5.44238 228.337 4.80664 227.243 4.80664C226.122 4.80664 225.39 5.60645 225.39 6.81641V11H224.201ZM232.065 11V1.13574H233.255V11H232.065ZM237.359 11.1367C235.944 11.1367 234.994 10.2822 234.994 8.99023V8.97656C234.994 7.7666 235.937 7.00781 237.571 6.91211L239.608 6.7959V6.20117C239.608 5.33301 239.041 4.80664 238.05 4.80664C237.134 4.80664 236.56 5.24414 236.423 5.87988L236.409 5.94141H235.261L235.268 5.86621C235.37 4.69727 236.389 3.75391 238.063 3.75391C239.745 3.75391 240.798 4.66309 240.798 6.08496V11H239.608V9.84473H239.581C239.164 10.624 238.31 11.1367 237.359 11.1367ZM236.211 8.99023C236.211 9.67383 236.771 10.1045 237.626 10.1045C238.747 10.1045 239.608 9.33203 239.608 8.2998V7.71875L237.708 7.83496C236.758 7.88965 236.211 8.31348 236.211 8.97656V8.99023ZM242.729 11V3.89062H243.918V5.09375H243.945C244.185 4.27344 244.8 3.75391 245.6 3.75391C245.805 3.75391 245.982 3.78809 246.078 3.80176V4.95703C245.982 4.92285 245.73 4.88867 245.442 4.88867C244.52 4.88867 243.918 5.53125 243.918 6.61133V11H242.729ZM250.135 13.5293C248.378 13.5293 247.271 12.7021 247.038 11.6494L247.025 11.5879H248.221L248.248 11.6494C248.474 12.1621 249.151 12.4766 250.121 12.4766C251.372 12.4766 252.083 11.7861 252.083 10.6855V9.77637H252.056C251.632 10.5625 250.812 11.0684 249.793 11.0684C248.002 11.0684 246.778 9.62598 246.778 7.4043V7.39746C246.778 5.18945 248.016 3.75391 249.82 3.75391C250.825 3.75391 251.618 4.30078 252.056 5.09375H252.083V3.89062H253.273V10.8018C253.273 12.4492 252.063 13.5293 250.135 13.5293ZM250.053 10.0156C251.263 10.0156 252.083 8.9834 252.083 7.4043V7.39746C252.083 5.83203 251.256 4.80664 250.053 4.80664C248.788 4.80664 247.995 5.81836 247.995 7.39746V7.4043C247.995 9.01758 248.788 10.0156 250.053 10.0156ZM258.156 11.1367C256.113 11.1367 254.882 9.70801 254.882 7.47266V7.46582C254.882 5.26465 256.14 3.75391 258.081 3.75391C260.023 3.75391 261.205 5.19629 261.205 7.3291V7.7666H256.085C256.113 9.22949 256.919 10.084 258.184 10.084C259.086 10.084 259.722 9.63281 259.927 9.02441L259.947 8.96289H261.116L261.103 9.03125C260.87 10.207 259.708 11.1367 258.156 11.1367ZM258.074 4.80664C257.042 4.80664 256.236 5.51074 256.106 6.83691H259.995C259.879 5.45605 259.113 4.80664 258.074 4.80664ZM265.501 11.1367C263.683 11.1367 262.48 9.6875 262.48 7.44531V7.43848C262.48 5.19629 263.697 3.75391 265.481 3.75391C266.486 3.75391 267.313 4.25977 267.757 5.08008H267.784V1.13574H268.974V11H267.784V9.79688H267.757C267.313 10.624 266.52 11.1367 265.501 11.1367ZM265.734 10.084C266.937 10.084 267.791 9.03809 267.791 7.44531V7.43848C267.791 5.85254 266.93 4.80664 265.734 4.80664C264.476 4.80664 263.697 5.81836 263.697 7.43848V7.44531C263.697 9.0791 264.476 10.084 265.734 10.084ZM276.964 11.1367C275.146 11.1367 273.943 9.6875 273.943 7.44531V7.43848C273.943 5.19629 275.16 3.75391 276.944 3.75391C277.949 3.75391 278.776 4.25977 279.22 5.08008H279.247V1.13574H280.437V11H279.247V9.79688H279.22C278.776 10.624 277.983 11.1367 276.964 11.1367ZM277.197 10.084C278.4 10.084 279.254 9.03809 279.254 7.44531V7.43848C279.254 5.85254 278.393 4.80664 277.197 4.80664C275.939 4.80664 275.16 5.81836 275.16 7.43848V7.44531C275.16 9.0791 275.939 10.084 277.197 10.084ZM283.133 2.6875C282.723 2.6875 282.388 2.35254 282.388 1.94238C282.388 1.52539 282.723 1.19727 283.133 1.19727C283.55 1.19727 283.878 1.52539 283.878 1.94238C283.878 2.35254 283.55 2.6875 283.133 2.6875ZM282.539 11V3.89062H283.728V11H282.539ZM288.291 11.1367C286.616 11.1367 285.604 10.2822 285.461 9.01074L285.454 8.94922H286.643L286.657 9.01758C286.8 9.72852 287.327 10.1455 288.297 10.1455C289.261 10.1455 289.836 9.74219 289.836 9.09961V9.09277C289.836 8.58008 289.569 8.29297 288.762 8.09473L287.634 7.82129C286.295 7.5 285.645 6.87793 285.645 5.85254V5.8457C285.645 4.62207 286.718 3.75391 288.256 3.75391C289.815 3.75391 290.806 4.66309 290.895 5.85254L290.902 5.94141H289.767L289.76 5.89355C289.665 5.20312 289.138 4.74512 288.256 4.74512C287.395 4.74512 286.862 5.16211 286.862 5.79102V5.79785C286.862 6.2832 287.183 6.61816 287.969 6.80957L289.097 7.08301C290.533 7.43164 291.052 7.99902 291.052 9.01074V9.01758C291.052 10.2617 289.877 11.1367 288.291 11.1367ZM292.71 13.3926V3.89062H293.899V5.09375H293.926C294.371 4.2666 295.164 3.75391 296.182 3.75391C298.001 3.75391 299.204 5.20312 299.204 7.44531V7.45215C299.204 9.69434 297.987 11.1367 296.203 11.1367C295.198 11.1367 294.371 10.6309 293.926 9.81055H293.899V13.3926H292.71ZM295.95 10.084C297.208 10.084 297.987 9.07227 297.987 7.45215V7.44531C297.987 5.81152 297.208 4.80664 295.95 4.80664C294.747 4.80664 293.892 5.85254 293.892 7.44531V7.45215C293.892 9.03809 294.754 10.084 295.95 10.084ZM300.888 11V1.13574H302.078V11H300.888ZM306.182 11.1367C304.767 11.1367 303.817 10.2822 303.817 8.99023V8.97656C303.817 7.7666 304.761 7.00781 306.394 6.91211L308.431 6.7959V6.20117C308.431 5.33301 307.864 4.80664 306.873 4.80664C305.957 4.80664 305.383 5.24414 305.246 5.87988L305.232 5.94141H304.084L304.091 5.86621C304.193 4.69727 305.212 3.75391 306.887 3.75391C308.568 3.75391 309.621 4.66309 309.621 6.08496V11H308.431V9.84473H308.404C307.987 10.624 307.133 11.1367 306.182 11.1367ZM305.034 8.99023C305.034 9.67383 305.595 10.1045 306.449 10.1045C307.57 10.1045 308.431 9.33203 308.431 8.2998V7.71875L306.531 7.83496C305.581 7.88965 305.034 8.31348 305.034 8.97656V8.99023ZM312.235 13.3926C312.003 13.3926 311.75 13.3652 311.6 13.3379V12.3672C311.702 12.3877 311.839 12.4082 311.982 12.4082C312.734 12.4082 313.151 12.2168 313.438 11.4102L313.582 11.0068L310.943 3.89062H312.215L314.177 9.81055H314.204L316.173 3.89062H317.424L314.648 11.4443C314.142 12.8047 313.52 13.3926 312.235 13.3926ZM325.018 11.1367C323.042 11.1367 321.723 9.70801 321.723 7.44531V7.43164C321.723 5.16895 323.049 3.75391 325.011 3.75391C326.973 3.75391 328.306 5.16211 328.306 7.43164V7.44531C328.306 9.71484 326.98 11.1367 325.018 11.1367ZM325.025 10.084C326.275 10.084 327.089 9.11328 327.089 7.44531V7.43164C327.089 5.76367 326.269 4.80664 325.011 4.80664C323.774 4.80664 322.94 5.77051 322.94 7.43164V7.44531C322.94 9.12012 323.767 10.084 325.025 10.084ZM330.312 11V4.875H329.32V3.89062H330.312V3.01562C330.312 1.64844 330.947 0.999023 332.26 0.999023C332.527 0.999023 332.807 1.01953 332.985 1.04688V2.01074C332.841 1.99023 332.656 1.9834 332.472 1.9834C331.816 1.9834 331.487 2.31836 331.487 3.02246V3.89062H332.95V4.875H331.501V11H330.312ZM341.488 11.1641C339.669 11.1641 337.742 9.90625 337.742 6.24902V6.23535C337.742 2.91309 339.157 0.97168 341.57 0.97168C343.244 0.97168 344.495 1.92871 344.824 3.36426L344.844 3.45312H343.593L343.566 3.37793C343.272 2.56445 342.568 2.05859 341.556 2.05859C339.717 2.05859 338.992 3.84277 338.938 5.91406C338.931 5.98242 338.931 6.05078 338.931 6.12598H338.958C339.355 5.25098 340.367 4.54004 341.706 4.54004C343.586 4.54004 344.981 5.92773 344.981 7.80078V7.81445C344.981 9.75586 343.504 11.1641 341.488 11.1641ZM339.225 7.80078C339.225 9.06543 340.209 10.0703 341.474 10.0703C342.732 10.0703 343.73 9.08594 343.73 7.8418V7.82812C343.73 6.54297 342.793 5.62012 341.494 5.62012C340.202 5.62012 339.225 6.53613 339.225 7.79395V7.80078ZM347.684 11.0957C347.246 11.0957 346.905 10.7539 346.905 10.3164C346.905 9.87891 347.246 9.53711 347.684 9.53711C348.121 9.53711 348.463 9.87891 348.463 10.3164C348.463 10.7539 348.121 11.0957 347.684 11.0957ZM350.565 11L355.029 2.25684V2.22949H349.717V1.13574H356.246V2.27734L351.857 11H350.565ZM362.007 2.6875C361.597 2.6875 361.262 2.35254 361.262 1.94238C361.262 1.52539 361.597 1.19727 362.007 1.19727C362.424 1.19727 362.753 1.52539 362.753 1.94238C362.753 2.35254 362.424 2.6875 362.007 2.6875ZM361.413 11V3.89062H362.602V11H361.413ZM364.642 11V3.89062H365.832V4.90234H365.859C366.242 4.23926 366.967 3.75391 368.047 3.75391C369.605 3.75391 370.508 4.76562 370.508 6.38574V11H369.318V6.59766C369.318 5.44238 368.778 4.80664 367.684 4.80664C366.563 4.80664 365.832 5.60645 365.832 6.81641V11H364.642ZM375.391 11.1367C373.375 11.1367 372.096 9.70117 372.096 7.43848V7.43164C372.096 5.18945 373.402 3.75391 375.378 3.75391C377.148 3.75391 378.194 4.92969 378.345 6.14648L378.351 6.20117H377.189L377.176 6.14648C376.998 5.43555 376.424 4.80664 375.378 4.80664C374.14 4.80664 373.313 5.83203 373.313 7.44531V7.45215C373.313 9.10645 374.161 10.084 375.391 10.084C376.362 10.084 376.984 9.53711 377.182 8.74414L377.196 8.68945H378.365L378.358 8.7373C378.167 10.0908 376.998 11.1367 375.391 11.1367ZM379.94 11V1.13574H381.13V5.02539H381.157C381.54 4.22559 382.312 3.75391 383.372 3.75391C384.883 3.75391 385.915 4.92285 385.915 6.64551V11H384.725V6.85059C384.725 5.56543 384.069 4.80664 382.962 4.80664C381.861 4.80664 381.13 5.64062 381.13 6.85059V11H379.94ZM390.771 11.1367C388.728 11.1367 387.497 9.70801 387.497 7.47266V7.46582C387.497 5.26465 388.755 3.75391 390.696 3.75391C392.638 3.75391 393.82 5.19629 393.82 7.3291V7.7666H388.7C388.728 9.22949 389.534 10.084 390.799 10.084C391.701 10.084 392.337 9.63281 392.542 9.02441L392.562 8.96289H393.731L393.718 9.03125C393.485 10.207 392.323 11.1367 390.771 11.1367ZM390.689 4.80664C389.657 4.80664 388.851 5.51074 388.721 6.83691H392.61C392.494 5.45605 391.728 4.80664 390.689 4.80664ZM397.966 11.1367C396.291 11.1367 395.279 10.2822 395.136 9.01074L395.129 8.94922H396.318L396.332 9.01758C396.476 9.72852 397.002 10.1455 397.973 10.1455C398.937 10.1455 399.511 9.74219 399.511 9.09961V9.09277C399.511 8.58008 399.244 8.29297 398.438 8.09473L397.31 7.82129C395.97 7.5 395.32 6.87793 395.32 5.85254V5.8457C395.32 4.62207 396.394 3.75391 397.932 3.75391C399.49 3.75391 400.481 4.66309 400.57 5.85254L400.577 5.94141H399.442L399.436 5.89355C399.34 5.20312 398.814 4.74512 397.932 4.74512C397.07 4.74512 396.537 5.16211 396.537 5.79102V5.79785C396.537 6.2832 396.858 6.61816 397.645 6.80957L398.772 7.08301C400.208 7.43164 400.728 7.99902 400.728 9.01074V9.01758C400.728 10.2617 399.552 11.1367 397.966 11.1367ZM404.463 11.1367C403.048 11.1367 402.098 10.2822 402.098 8.99023V8.97656C402.098 7.7666 403.041 7.00781 404.675 6.91211L406.712 6.7959V6.20117C406.712 5.33301 406.145 4.80664 405.153 4.80664C404.237 4.80664 403.663 5.24414 403.526 5.87988L403.513 5.94141H402.364L402.371 5.86621C402.474 4.69727 403.492 3.75391 405.167 3.75391C406.849 3.75391 407.901 4.66309 407.901 6.08496V11H406.712V9.84473H406.685C406.268 10.624 405.413 11.1367 404.463 11.1367ZM403.315 8.99023C403.315 9.67383 403.875 10.1045 404.73 10.1045C405.851 10.1045 406.712 9.33203 406.712 8.2998V7.71875L404.812 7.83496C403.861 7.88965 403.315 8.31348 403.315 8.97656V8.99023ZM409.832 11V3.89062H411.022V4.90234H411.049C411.432 4.23926 412.156 3.75391 413.237 3.75391C414.795 3.75391 415.697 4.76562 415.697 6.38574V11H414.508V6.59766C414.508 5.44238 413.968 4.80664 412.874 4.80664C411.753 4.80664 411.022 5.60645 411.022 6.81641V11H409.832ZM420.308 11.1367C418.49 11.1367 417.286 9.6875 417.286 7.44531V7.43848C417.286 5.19629 418.503 3.75391 420.287 3.75391C421.292 3.75391 422.119 4.25977 422.564 5.08008H422.591V1.13574H423.781V11H422.591V9.79688H422.564C422.119 10.624 421.326 11.1367 420.308 11.1367ZM420.54 10.084C421.743 10.084 422.598 9.03809 422.598 7.44531V7.43848C422.598 5.85254 421.737 4.80664 420.54 4.80664C419.283 4.80664 418.503 5.81836 418.503 7.43848V7.44531C418.503 9.0791 419.283 10.084 420.54 10.084ZM430.506 11L428.517 3.89062H429.7L431.122 9.67383H431.149L432.755 3.89062H433.904L435.517 9.67383H435.544L436.966 3.89062H438.142L436.16 11H434.95L433.343 5.49707H433.316L431.716 11H430.506ZM442.486 11.1367C440.51 11.1367 439.191 9.70801 439.191 7.44531V7.43164C439.191 5.16895 440.517 3.75391 442.479 3.75391C444.441 3.75391 445.774 5.16211 445.774 7.43164V7.44531C445.774 9.71484 444.448 11.1367 442.486 11.1367ZM442.493 10.084C443.744 10.084 444.557 9.11328 444.557 7.44531V7.43164C444.557 5.76367 443.737 4.80664 442.479 4.80664C441.242 4.80664 440.408 5.77051 440.408 7.43164V7.44531C440.408 9.12012 441.235 10.084 442.493 10.084ZM447.397 11V3.89062H448.587V5.09375H448.614C448.853 4.27344 449.468 3.75391 450.268 3.75391C450.473 3.75391 450.651 3.78809 450.747 3.80176V4.95703C450.651 4.92285 450.398 4.88867 450.111 4.88867C449.188 4.88867 448.587 5.53125 448.587 6.61133V11H447.397ZM452.233 11V1.13574H453.423V7.02832H453.45L456.567 3.89062H458.009L454.926 6.95996L458.105 11H456.724L454.086 7.68457L453.423 8.32031V11H452.233ZM464.052 11L462.062 3.89062H463.245L464.667 9.67383H464.694L466.301 3.89062H467.449L469.062 9.67383H469.09L470.512 3.89062H471.687L469.705 11H468.495L466.889 5.49707H466.861L465.262 11H464.052ZM473.755 2.6875C473.345 2.6875 473.01 2.35254 473.01 1.94238C473.01 1.52539 473.345 1.19727 473.755 1.19727C474.172 1.19727 474.5 1.52539 474.5 1.94238C474.5 2.35254 474.172 2.6875 473.755 2.6875ZM473.16 11V3.89062H474.35V11H473.16ZM478.7 11.1367C477.395 11.1367 476.752 10.5488 476.752 9.18848V4.875H475.713V3.89062H476.752V1.96973H477.982V3.89062H479.336V4.875H477.982V9.18164C477.982 9.94043 478.317 10.1523 478.953 10.1523C479.097 10.1523 479.233 10.1318 479.336 10.125V11.0889C479.186 11.1094 478.933 11.1367 478.7 11.1367ZM481.096 11V1.13574H482.285V5.02539H482.313C482.695 4.22559 483.468 3.75391 484.527 3.75391C486.038 3.75391 487.07 4.92285 487.07 6.64551V11H485.881V6.85059C485.881 5.56543 485.225 4.80664 484.117 4.80664C483.017 4.80664 482.285 5.64062 482.285 6.85059V11H481.096ZM491.947 11.1367C489.972 11.1367 488.652 9.70801 488.652 7.44531V7.43164C488.652 5.16895 489.979 3.75391 491.941 3.75391C493.902 3.75391 495.236 5.16211 495.236 7.43164V7.44531C495.236 9.71484 493.909 11.1367 491.947 11.1367ZM491.954 10.084C493.205 10.084 494.019 9.11328 494.019 7.44531V7.43164C494.019 5.76367 493.198 4.80664 491.941 4.80664C490.703 4.80664 489.869 5.77051 489.869 7.43164V7.44531C489.869 9.12012 490.696 10.084 491.954 10.084ZM499.285 11.1367C497.727 11.1367 496.824 10.125 496.824 8.50488V3.89062H498.014V8.29297C498.014 9.44824 498.554 10.084 499.648 10.084C500.769 10.084 501.5 9.28418 501.5 8.07422V3.89062H502.69V11H501.5V9.98828H501.473C501.09 10.6514 500.365 11.1367 499.285 11.1367ZM506.972 11.1367C505.666 11.1367 505.024 10.5488 505.024 9.18848V4.875H503.985V3.89062H505.024V1.96973H506.254V3.89062H507.608V4.875H506.254V9.18164C506.254 9.94043 506.589 10.1523 507.225 10.1523C507.368 10.1523 507.505 10.1318 507.608 10.125V11.0889C507.457 11.1094 507.204 11.1367 506.972 11.1367ZM0.772461 35V27.8906H1.96191V29.0938H1.98926C2.22852 28.2734 2.84375 27.7539 3.64355 27.7539C3.84863 27.7539 4.02637 27.7881 4.12207 27.8018V28.957C4.02637 28.9229 3.77344 28.8887 3.48633 28.8887C2.56348 28.8887 1.96191 29.5312 1.96191 30.6113V35H0.772461ZM8.09676 35.1367C6.05281 35.1367 4.82234 33.708 4.82234 31.4727V31.4658C4.82234 29.2646 6.08016 27.7539 8.02156 27.7539C9.96297 27.7539 11.1456 29.1963 11.1456 31.3291V31.7666H6.02547C6.05281 33.2295 6.85945 34.084 8.1241 34.084C9.02645 34.084 9.66219 33.6328 9.86727 33.0244L9.88777 32.9629H11.0567L11.043 33.0312C10.8106 34.207 9.64852 35.1367 8.09676 35.1367ZM8.01473 28.8066C6.9825 28.8066 6.17586 29.5107 6.04598 30.8369H9.93563C9.81941 29.4561 9.05379 28.8066 8.01473 28.8066ZM15.715 35.1367C13.6984 35.1367 12.4201 33.7012 12.4201 31.4385V31.4316C12.4201 29.1895 13.7257 27.7539 15.7013 27.7539C17.4718 27.7539 18.5177 28.9297 18.6681 30.1465L18.675 30.2012H17.5129L17.4992 30.1465C17.3214 29.4355 16.7472 28.8066 15.7013 28.8066C14.464 28.8066 13.6369 29.832 13.6369 31.4453V31.4521C13.6369 33.1064 14.4845 34.084 15.715 34.084C16.6857 34.084 17.3078 33.5371 17.506 32.7441L17.5197 32.6895H18.6886L18.6818 32.7373C18.4904 34.0908 17.3214 35.1367 15.715 35.1367ZM20.2639 35V25.1357H21.4534V29.0254H21.4807C21.8635 28.2256 22.636 27.7539 23.6955 27.7539C25.2063 27.7539 26.2385 28.9229 26.2385 30.6455V35H25.0491V30.8506C25.0491 29.5654 24.3928 28.8066 23.2854 28.8066C22.1848 28.8066 21.4534 29.6406 21.4534 30.8506V35H20.2639ZM30.2474 35.1367C28.8323 35.1367 27.8821 34.2822 27.8821 32.9902V32.9766C27.8821 31.7666 28.8255 31.0078 30.4593 30.9121L32.4964 30.7959V30.2012C32.4964 29.333 31.929 28.8066 30.9378 28.8066C30.0218 28.8066 29.4476 29.2441 29.3109 29.8799L29.2972 29.9414H28.1488L28.1556 29.8662C28.2581 28.6973 29.2767 27.7539 30.9515 27.7539C32.6331 27.7539 33.6859 28.6631 33.6859 30.085V35H32.4964V33.8447H32.4691C32.0521 34.624 31.1976 35.1367 30.2474 35.1367ZM29.0989 32.9902C29.0989 33.6738 29.6595 34.1045 30.514 34.1045C31.6351 34.1045 32.4964 33.332 32.4964 32.2998V31.7188L30.596 31.835C29.6458 31.8896 29.0989 32.3135 29.0989 32.9766V32.9902ZM35.6166 35V27.8906H36.8061V29.0938H36.8334C37.0727 28.2734 37.6879 27.7539 38.4877 27.7539C38.6928 27.7539 38.8705 27.7881 38.9662 27.8018V28.957C38.8705 28.9229 38.6176 28.8887 38.3305 28.8887C37.4076 28.8887 36.8061 29.5312 36.8061 30.6113V35H35.6166ZM43.0229 37.5293C41.2661 37.5293 40.1587 36.7021 39.9263 35.6494L39.9126 35.5879H41.1089L41.1362 35.6494C41.3618 36.1621 42.0386 36.4766 43.0093 36.4766C44.2602 36.4766 44.9712 35.7861 44.9712 34.6855V33.7764H44.9438C44.52 34.5625 43.6997 35.0684 42.6811 35.0684C40.8901 35.0684 39.6665 33.626 39.6665 31.4043V31.3975C39.6665 29.1895 40.9038 27.7539 42.7085 27.7539C43.7134 27.7539 44.5063 28.3008 44.9438 29.0938H44.9712V27.8906H46.1606V34.8018C46.1606 36.4492 44.9507 37.5293 43.0229 37.5293ZM42.9409 34.0156C44.1509 34.0156 44.9712 32.9834 44.9712 31.4043V31.3975C44.9712 29.832 44.144 28.8066 42.9409 28.8066C41.6763 28.8066 40.8833 29.8184 40.8833 31.3975V31.4043C40.8833 33.0176 41.6763 34.0156 42.9409 34.0156ZM48.7886 26.6875C48.3785 26.6875 48.0435 26.3525 48.0435 25.9424C48.0435 25.5254 48.3785 25.1973 48.7886 25.1973C49.2056 25.1973 49.5337 25.5254 49.5337 25.9424C49.5337 26.3525 49.2056 26.6875 48.7886 26.6875ZM48.1939 35V27.8906H49.3834V35H48.1939ZM51.4235 35V27.8906H52.6129V28.9023H52.6403C53.0231 28.2393 53.7477 27.7539 54.8278 27.7539C56.3864 27.7539 57.2887 28.7656 57.2887 30.3857V35H56.0993V30.5977C56.0993 29.4424 55.5592 28.8066 54.4655 28.8066C53.3444 28.8066 52.6129 29.6064 52.6129 30.8164V35H51.4235ZM62.2341 37.5293C60.4773 37.5293 59.3698 36.7021 59.1374 35.6494L59.1237 35.5879H60.32L60.3474 35.6494C60.573 36.1621 61.2497 36.4766 62.2204 36.4766C63.4714 36.4766 64.1823 35.7861 64.1823 34.6855V33.7764H64.155C63.7312 34.5625 62.9109 35.0684 61.8923 35.0684C60.1013 35.0684 58.8777 33.626 58.8777 31.4043V31.3975C58.8777 29.1895 60.115 27.7539 61.9196 27.7539C62.9245 27.7539 63.7175 28.3008 64.155 29.0938H64.1823V27.8906H65.3718V34.8018C65.3718 36.4492 64.1618 37.5293 62.2341 37.5293ZM62.1521 34.0156C63.362 34.0156 64.1823 32.9834 64.1823 31.4043V31.3975C64.1823 29.832 63.3552 28.8066 62.1521 28.8066C60.8874 28.8066 60.0945 29.8184 60.0945 31.3975V31.4043C60.0945 33.0176 60.8874 34.0156 62.1521 34.0156ZM69.6404 35.1367C68.3348 35.1367 67.6922 34.5488 67.6922 33.1885V28.875H66.6531V27.8906H67.6922V25.9697H68.9227V27.8906H70.2762V28.875H68.9227V33.1816C68.9227 33.9404 69.2576 34.1523 69.8934 34.1523C70.0369 34.1523 70.1736 34.1318 70.2762 34.125V35.0889C70.1258 35.1094 69.8728 35.1367 69.6404 35.1367ZM72.036 35V25.1357H73.2255V29.0254H73.2528C73.6356 28.2256 74.4081 27.7539 75.4677 27.7539C76.9784 27.7539 78.0106 28.9229 78.0106 30.6455V35H76.8212V30.8506C76.8212 29.5654 76.1649 28.8066 75.0575 28.8066C73.9569 28.8066 73.2255 29.6406 73.2255 30.8506V35H72.036ZM79.9414 35V27.8906H81.1308V29.0938H81.1582C81.3974 28.2734 82.0127 27.7539 82.8125 27.7539C83.0175 27.7539 83.1953 27.7881 83.291 27.8018V28.957C83.1953 28.9229 82.9423 28.8887 82.6552 28.8887C81.7324 28.8887 81.1308 29.5312 81.1308 30.6113V35H79.9414ZM87.2862 35.1367C85.3106 35.1367 83.9912 33.708 83.9912 31.4453V31.4316C83.9912 29.1689 85.3174 27.7539 87.2793 27.7539C89.2412 27.7539 90.5743 29.1621 90.5743 31.4316V31.4453C90.5743 33.7148 89.2481 35.1367 87.2862 35.1367ZM87.293 34.084C88.544 34.084 89.3575 33.1133 89.3575 31.4453V31.4316C89.3575 29.7637 88.5371 28.8066 87.2793 28.8066C86.042 28.8066 85.208 29.7705 85.208 31.4316V31.4453C85.208 33.1201 86.0352 34.084 87.293 34.084ZM94.6241 35.1367C93.0655 35.1367 92.1632 34.125 92.1632 32.5049V27.8906H93.3527V32.293C93.3527 33.4482 93.8927 34.084 94.9864 34.084C96.1075 34.084 96.839 33.2842 96.839 32.0742V27.8906H98.0284V35H96.839V33.9883H96.8116C96.4288 34.6514 95.7042 35.1367 94.6241 35.1367ZM103.008 37.5293C101.251 37.5293 100.144 36.7021 99.9113 35.6494L99.8977 35.5879H101.094L101.121 35.6494C101.347 36.1621 102.024 36.4766 102.994 36.4766C104.245 36.4766 104.956 35.7861 104.956 34.6855V33.7764H104.929C104.505 34.5625 103.685 35.0684 102.666 35.0684C100.875 35.0684 99.6516 33.626 99.6516 31.4043V31.3975C99.6516 29.1895 100.889 27.7539 102.694 27.7539C103.698 27.7539 104.491 28.3008 104.929 29.0938H104.956V27.8906H106.146V34.8018C106.146 36.4492 104.936 37.5293 103.008 37.5293ZM102.926 34.0156C104.136 34.0156 104.956 32.9834 104.956 31.4043V31.3975C104.956 29.832 104.129 28.8066 102.926 28.8066C101.661 28.8066 100.868 29.8184 100.868 31.3975V31.4043C100.868 33.0176 101.661 34.0156 102.926 34.0156ZM108.165 35V25.1357H109.355V29.0254H109.382C109.765 28.2256 110.537 27.7539 111.597 27.7539C113.108 27.7539 114.14 28.9229 114.14 30.6455V35H112.95V30.8506C112.95 29.5654 112.294 28.8066 111.187 28.8066C110.086 28.8066 109.355 29.6406 109.355 30.8506V35H108.165ZM119.017 35.1367C117.041 35.1367 115.722 33.708 115.722 31.4453V31.4316C115.722 29.1689 117.048 27.7539 119.01 27.7539C120.972 27.7539 122.305 29.1621 122.305 31.4316V31.4453C122.305 33.7148 120.979 35.1367 119.017 35.1367ZM119.024 34.084C120.275 34.084 121.088 33.1133 121.088 31.4453V31.4316C121.088 29.7637 120.268 28.8066 119.01 28.8066C117.773 28.8066 116.939 29.7705 116.939 31.4316V31.4453C116.939 33.1201 117.766 34.084 119.024 34.084ZM126.355 35.1367C124.796 35.1367 123.894 34.125 123.894 32.5049V27.8906H125.083V32.293C125.083 33.4482 125.623 34.084 126.717 34.084C127.838 34.084 128.57 33.2842 128.57 32.0742V27.8906H129.759V35H128.57V33.9883H128.542C128.16 34.6514 127.435 35.1367 126.355 35.1367ZM134.042 35.1367C132.736 35.1367 132.093 34.5488 132.093 33.1885V28.875H131.054V27.8906H132.093V25.9697H133.324V27.8906H134.677V28.875H133.324V33.1816C133.324 33.9404 133.659 34.1523 134.294 34.1523C134.438 34.1523 134.575 34.1318 134.677 34.125V35.0889C134.527 35.1094 134.274 35.1367 134.042 35.1367ZM141.977 35.1367C140.672 35.1367 140.029 34.5488 140.029 33.1885V28.875H138.99V27.8906H140.029V25.9697H141.259V27.8906H142.613V28.875H141.259V33.1816C141.259 33.9404 141.594 34.1523 142.23 34.1523C142.374 34.1523 142.51 34.1318 142.613 34.125V35.0889C142.463 35.1094 142.21 35.1367 141.977 35.1367ZM144.373 35V25.1357H145.562V29.0254H145.59C145.972 28.2256 146.745 27.7539 147.804 27.7539C149.315 27.7539 150.347 28.9229 150.347 30.6455V35H149.158V30.8506C149.158 29.5654 148.502 28.8066 147.394 28.8066C146.294 28.8066 145.562 29.6406 145.562 30.8506V35H144.373ZM155.204 35.1367C153.16 35.1367 151.93 33.708 151.93 31.4727V31.4658C151.93 29.2646 153.187 27.7539 155.129 27.7539C157.07 27.7539 158.253 29.1963 158.253 31.3291V31.7666H153.133C153.16 33.2295 153.967 34.084 155.231 34.084C156.134 34.084 156.769 33.6328 156.974 33.0244L156.995 32.9629H158.164L158.15 33.0312C157.918 34.207 156.756 35.1367 155.204 35.1367ZM155.122 28.8066C154.09 28.8066 153.283 29.5107 153.153 30.8369H157.043C156.927 29.4561 156.161 28.8066 155.122 28.8066ZM165.84 35.1367C164.021 35.1367 162.818 33.6875 162.818 31.4453V31.4385C162.818 29.1963 164.035 27.7539 165.819 27.7539C166.824 27.7539 167.651 28.2598 168.096 29.0801H168.123V25.1357H169.312V35H168.123V33.7969H168.096C167.651 34.624 166.858 35.1367 165.84 35.1367ZM166.072 34.084C167.275 34.084 168.13 33.0381 168.13 31.4453V31.4385C168.13 29.8525 167.269 28.8066 166.072 28.8066C164.814 28.8066 164.035 29.8184 164.035 31.4385V31.4453C164.035 33.0791 164.814 34.084 166.072 34.084ZM173.417 35.1367C172.002 35.1367 171.052 34.2822 171.052 32.9902V32.9766C171.052 31.7666 171.995 31.0078 173.629 30.9121L175.666 30.7959V30.2012C175.666 29.333 175.099 28.8066 174.107 28.8066C173.191 28.8066 172.617 29.2441 172.481 29.8799L172.467 29.9414H171.318L171.325 29.8662C171.428 28.6973 172.446 27.7539 174.121 27.7539C175.803 27.7539 176.856 28.6631 176.856 30.085V35H175.666V33.8447H175.639C175.222 34.624 174.367 35.1367 173.417 35.1367ZM172.269 32.9902C172.269 33.6738 172.829 34.1045 173.684 34.1045C174.805 34.1045 175.666 33.332 175.666 32.2998V31.7188L173.766 31.835C172.816 31.8896 172.269 32.3135 172.269 32.9766V32.9902ZM179.47 37.3926C179.237 37.3926 178.985 37.3652 178.834 37.3379V36.3672C178.937 36.3877 179.073 36.4082 179.217 36.4082C179.969 36.4082 180.386 36.2168 180.673 35.4102L180.817 35.0068L178.178 27.8906H179.449L181.411 33.8105H181.439L183.407 27.8906H184.658L181.883 35.4443C181.377 36.8047 180.755 37.3926 179.47 37.3926ZM185.721 35.0957C185.283 35.0957 184.942 34.7539 184.942 34.3164C184.942 33.8789 185.283 33.5371 185.721 33.5371C186.158 33.5371 186.5 33.8789 186.5 34.3164C186.5 34.7539 186.158 35.0957 185.721 35.0957ZM191.209 35V25.1357H192.44V35H191.209ZM194.589 35V27.8906H195.779V28.9023H195.806C196.189 28.2393 196.914 27.7539 197.994 27.7539C199.552 27.7539 200.455 28.7656 200.455 30.3857V35H199.265V30.5977C199.265 29.4424 198.725 28.8066 197.631 28.8066C196.51 28.8066 195.779 29.6064 195.779 30.8164V35H194.589ZM205.338 35.1367C203.322 35.1367 202.044 33.7012 202.044 31.4385V31.4316C202.044 29.1895 203.349 27.7539 205.325 27.7539C207.095 27.7539 208.141 28.9297 208.292 30.1465L208.298 30.2012H207.136L207.123 30.1465C206.945 29.4355 206.371 28.8066 205.325 28.8066C204.087 28.8066 203.26 29.832 203.26 31.4453V31.4521C203.26 33.1064 204.108 34.084 205.338 34.084C206.309 34.084 206.931 33.5371 207.129 32.7441L207.143 32.6895H208.312L208.305 32.7373C208.114 34.0908 206.945 35.1367 205.338 35.1367ZM209.826 35V27.8906H211.015V29.0938H211.043C211.282 28.2734 211.897 27.7539 212.697 27.7539C212.902 27.7539 213.08 27.7881 213.175 27.8018V28.957C213.08 28.9229 212.827 28.8887 212.54 28.8887C211.617 28.8887 211.015 29.5312 211.015 30.6113V35H209.826ZM217.15 35.1367C215.106 35.1367 213.876 33.708 213.876 31.4727V31.4658C213.876 29.2646 215.134 27.7539 217.075 27.7539C219.016 27.7539 220.199 29.1963 220.199 31.3291V31.7666H215.079C215.106 33.2295 215.913 34.084 217.177 34.084C218.08 34.084 218.716 33.6328 218.921 33.0244L218.941 32.9629H220.11L220.096 33.0312C219.864 34.207 218.702 35.1367 217.15 35.1367ZM217.068 28.8066C216.036 28.8066 215.229 29.5107 215.099 30.8369H218.989C218.873 29.4561 218.107 28.8066 217.068 28.8066ZM224.495 35.1367C222.677 35.1367 221.473 33.6875 221.473 31.4453V31.4385C221.473 29.1963 222.69 27.7539 224.474 27.7539C225.479 27.7539 226.306 28.2598 226.751 29.0801H226.778V25.1357H227.968V35H226.778V33.7969H226.751C226.306 34.624 225.513 35.1367 224.495 35.1367ZM224.727 34.084C225.93 34.084 226.785 33.0381 226.785 31.4453V31.4385C226.785 29.8525 225.924 28.8066 224.727 28.8066C223.47 28.8066 222.69 29.8184 222.69 31.4385V31.4453C222.69 33.0791 223.47 34.084 224.727 34.084ZM230.664 26.6875C230.254 26.6875 229.919 26.3525 229.919 25.9424C229.919 25.5254 230.254 25.1973 230.664 25.1973C231.081 25.1973 231.409 25.5254 231.409 25.9424C231.409 26.3525 231.081 26.6875 230.664 26.6875ZM230.069 35V27.8906H231.259V35H230.069ZM236.833 35.1367C235.814 35.1367 235.021 34.624 234.577 33.7969H234.55V35H233.36V25.1357H234.55V29.0801H234.577C235.021 28.2598 235.849 27.7539 236.853 27.7539C238.638 27.7539 239.854 29.1963 239.854 31.4385V31.4453C239.854 33.6875 238.651 35.1367 236.833 35.1367ZM236.601 34.084C237.858 34.084 238.638 33.0791 238.638 31.4453V31.4385C238.638 29.8184 237.858 28.8066 236.601 28.8066C235.404 28.8066 234.543 29.8525 234.543 31.4385V31.4453C234.543 33.0381 235.397 34.084 236.601 34.084ZM241.532 35V25.1357H242.722V35H241.532ZM247.674 35.1367C245.63 35.1367 244.4 33.708 244.4 31.4727V31.4658C244.4 29.2646 245.657 27.7539 247.599 27.7539C249.54 27.7539 250.723 29.1963 250.723 31.3291V31.7666H245.603C245.63 33.2295 246.437 34.084 247.701 34.084C248.604 34.084 249.239 33.6328 249.444 33.0244L249.465 32.9629H250.634L250.62 33.0312C250.388 34.207 249.226 35.1367 247.674 35.1367ZM247.592 28.8066C246.56 28.8066 245.753 29.5107 245.623 30.8369H249.513C249.397 29.4561 248.631 28.8066 247.592 28.8066ZM255.637 37.3926V27.8906H256.826V29.0938H256.854C257.298 28.2666 258.091 27.7539 259.11 27.7539C260.928 27.7539 262.131 29.2031 262.131 31.4453V31.4521C262.131 33.6943 260.914 35.1367 259.13 35.1367C258.125 35.1367 257.298 34.6309 256.854 33.8105H256.826V37.3926H255.637ZM258.877 34.084C260.135 34.084 260.914 33.0723 260.914 31.4521V31.4453C260.914 29.8115 260.135 28.8066 258.877 28.8066C257.674 28.8066 256.82 29.8525 256.82 31.4453V31.4521C256.82 33.0381 257.681 34.084 258.877 34.084ZM263.816 35V25.1357H265.005V29.0254H265.033C265.415 28.2256 266.188 27.7539 267.247 27.7539C268.758 27.7539 269.79 28.9229 269.79 30.6455V35H268.601V30.8506C268.601 29.5654 267.945 28.8066 266.837 28.8066C265.737 28.8066 265.005 29.6406 265.005 30.8506V35H263.816ZM274.667 35.1367C272.692 35.1367 271.372 33.708 271.372 31.4453V31.4316C271.372 29.1689 272.699 27.7539 274.661 27.7539C276.622 27.7539 277.956 29.1621 277.956 31.4316V31.4453C277.956 33.7148 276.629 35.1367 274.667 35.1367ZM274.674 34.084C275.925 34.084 276.739 33.1133 276.739 31.4453V31.4316C276.739 29.7637 275.918 28.8066 274.661 28.8066C273.423 28.8066 272.589 29.7705 272.589 31.4316V31.4453C272.589 33.1201 273.416 34.084 274.674 34.084ZM281.889 35.1367C280.584 35.1367 279.941 34.5488 279.941 33.1885V28.875H278.902V27.8906H279.941V25.9697H281.171V27.8906H282.525V28.875H281.171V33.1816C281.171 33.9404 281.506 34.1523 282.142 34.1523C282.286 34.1523 282.422 34.1318 282.525 34.125V35.0889C282.375 35.1094 282.122 35.1367 281.889 35.1367ZM286.964 35.1367C284.989 35.1367 283.67 33.708 283.67 31.4453V31.4316C283.67 29.1689 284.996 27.7539 286.958 27.7539C288.92 27.7539 290.253 29.1621 290.253 31.4316V31.4453C290.253 33.7148 288.926 35.1367 286.964 35.1367ZM286.971 34.084C288.222 34.084 289.036 33.1133 289.036 31.4453V31.4316C289.036 29.7637 288.215 28.8066 286.958 28.8066C285.72 28.8066 284.886 29.7705 284.886 31.4316V31.4453C284.886 33.1201 285.713 34.084 286.971 34.084ZM294.398 35.1367C292.723 35.1367 291.712 34.2822 291.568 33.0107L291.561 32.9492H292.751L292.764 33.0176C292.908 33.7285 293.434 34.1455 294.405 34.1455C295.369 34.1455 295.943 33.7422 295.943 33.0996V33.0928C295.943 32.5801 295.676 32.293 294.87 32.0947L293.742 31.8213C292.402 31.5 291.753 30.8779 291.753 29.8525V29.8457C291.753 28.6221 292.826 27.7539 294.364 27.7539C295.923 27.7539 296.914 28.6631 297.003 29.8525L297.009 29.9414H295.875L295.868 29.8936C295.772 29.2031 295.246 28.7451 294.364 28.7451C293.503 28.7451 292.969 29.1621 292.969 29.791V29.7979C292.969 30.2832 293.291 30.6182 294.077 30.8096L295.205 31.083C296.64 31.4316 297.16 31.999 297.16 33.0107V33.0176C297.16 34.2617 295.984 35.1367 294.398 35.1367ZM300.895 35.1367C299.48 35.1367 298.53 34.2822 298.53 32.9902V32.9766C298.53 31.7666 299.473 31.0078 301.107 30.9121L303.144 30.7959V30.2012C303.144 29.333 302.577 28.8066 301.586 28.8066C300.67 28.8066 300.095 29.2441 299.959 29.8799L299.945 29.9414H298.797L298.803 29.8662C298.906 28.6973 299.925 27.7539 301.599 27.7539C303.281 27.7539 304.334 28.6631 304.334 30.085V35H303.144V33.8447H303.117C302.7 34.624 301.845 35.1367 300.895 35.1367ZM299.747 32.9902C299.747 33.6738 300.307 34.1045 301.162 34.1045C302.283 34.1045 303.144 33.332 303.144 32.2998V31.7188L301.244 31.835C300.294 31.8896 299.747 32.3135 299.747 32.9766V32.9902ZM308.787 35.1367C307.112 35.1367 306.1 34.2822 305.957 33.0107L305.95 32.9492H307.139L307.153 33.0176C307.297 33.7285 307.823 34.1455 308.794 34.1455C309.758 34.1455 310.332 33.7422 310.332 33.0996V33.0928C310.332 32.5801 310.065 32.293 309.259 32.0947L308.131 31.8213C306.791 31.5 306.141 30.8779 306.141 29.8525V29.8457C306.141 28.6221 307.215 27.7539 308.753 27.7539C310.311 27.7539 311.303 28.6631 311.391 29.8525L311.398 29.9414H310.264L310.257 29.8936C310.161 29.2031 309.635 28.7451 308.753 28.7451C307.891 28.7451 307.358 29.1621 307.358 29.791V29.7979C307.358 30.2832 307.68 30.6182 308.466 30.8096L309.594 31.083C311.029 31.4316 311.549 31.999 311.549 33.0107V33.0176C311.549 34.2617 310.373 35.1367 308.787 35.1367ZM317.167 26.6875C316.757 26.6875 316.422 26.3525 316.422 25.9424C316.422 25.5254 316.757 25.1973 317.167 25.1973C317.584 25.1973 317.912 25.5254 317.912 25.9424C317.912 26.3525 317.584 26.6875 317.167 26.6875ZM316.572 35V27.8906H317.762V35H316.572ZM319.802 35V27.8906H320.991V28.9023H321.019C321.401 28.2393 322.126 27.7539 323.206 27.7539C324.765 27.7539 325.667 28.7656 325.667 30.3857V35H324.478V30.5977C324.478 29.4424 323.938 28.8066 322.844 28.8066C321.723 28.8066 320.991 29.6064 320.991 30.8164V35H319.802ZM332.304 35L330.315 27.8906H331.497L332.919 33.6738H332.947L334.553 27.8906H335.701L337.315 33.6738H337.342L338.764 27.8906H339.94L337.957 35H336.747L335.141 29.4971H335.114L333.514 35H332.304ZM344.263 35.1367C342.219 35.1367 340.989 33.708 340.989 31.4727V31.4658C340.989 29.2646 342.246 27.7539 344.188 27.7539C346.129 27.7539 347.312 29.1963 347.312 31.3291V31.7666H342.192C342.219 33.2295 343.026 34.084 344.29 34.084C345.193 34.084 345.828 33.6328 346.034 33.0244L346.054 32.9629H347.223L347.209 33.0312C346.977 34.207 345.815 35.1367 344.263 35.1367ZM344.181 28.8066C343.149 28.8066 342.342 29.5107 342.212 30.8369H346.102C345.986 29.4561 345.22 28.8066 344.181 28.8066ZM351.013 35.1367C349.598 35.1367 348.648 34.2822 348.648 32.9902V32.9766C348.648 31.7666 349.591 31.0078 351.225 30.9121L353.262 30.7959V30.2012C353.262 29.333 352.695 28.8066 351.704 28.8066C350.788 28.8066 350.213 29.2441 350.077 29.8799L350.063 29.9414H348.914L348.921 29.8662C349.024 28.6973 350.042 27.7539 351.717 27.7539C353.399 27.7539 354.452 28.6631 354.452 30.085V35H353.262V33.8447H353.235C352.818 34.624 351.963 35.1367 351.013 35.1367ZM349.865 32.9902C349.865 33.6738 350.425 34.1045 351.28 34.1045C352.401 34.1045 353.262 33.332 353.262 32.2998V31.7188L351.362 31.835C350.412 31.8896 349.865 32.3135 349.865 32.9766V32.9902ZM356.478 35V25.1357H357.667V31.0283H357.695L360.812 27.8906H362.254L359.171 30.96L362.35 35H360.969L358.331 31.6846L357.667 32.3203V35H356.478ZM363.119 36.9346L363.72 33.5918H364.964L363.966 36.9346H363.119ZM370.316 37.3926C370.084 37.3926 369.831 37.3652 369.68 37.3379V36.3672C369.783 36.3877 369.92 36.4082 370.063 36.4082C370.815 36.4082 371.232 36.2168 371.519 35.4102L371.663 35.0068L369.024 27.8906H370.296L372.258 33.8105H372.285L374.254 27.8906H375.505L372.729 35.4443C372.223 36.8047 371.601 37.3926 370.316 37.3926ZM379.513 35.1367C377.47 35.1367 376.239 33.708 376.239 31.4727V31.4658C376.239 29.2646 377.497 27.7539 379.438 27.7539C381.38 27.7539 382.562 29.1963 382.562 31.3291V31.7666H377.442C377.47 33.2295 378.276 34.084 379.541 34.084C380.443 34.084 381.079 33.6328 381.284 33.0244L381.305 32.9629H382.473L382.46 33.0312C382.227 34.207 381.065 35.1367 379.513 35.1367ZM379.431 28.8066C378.399 28.8066 377.593 29.5107 377.463 30.8369H381.352C381.236 29.4561 380.471 28.8066 379.431 28.8066ZM386.708 35.1367C385.033 35.1367 384.021 34.2822 383.878 33.0107L383.871 32.9492H385.06L385.074 33.0176C385.218 33.7285 385.744 34.1455 386.715 34.1455C387.679 34.1455 388.253 33.7422 388.253 33.0996V33.0928C388.253 32.5801 387.986 32.293 387.18 32.0947L386.052 31.8213C384.712 31.5 384.062 30.8779 384.062 29.8525V29.8457C384.062 28.6221 385.136 27.7539 386.674 27.7539C388.232 27.7539 389.224 28.6631 389.312 29.8525L389.319 29.9414H388.184L388.178 29.8936C388.082 29.2031 387.556 28.7451 386.674 28.7451C385.812 28.7451 385.279 29.1621 385.279 29.791V29.7979C385.279 30.2832 385.6 30.6182 386.387 30.8096L387.515 31.083C388.95 31.4316 389.47 31.999 389.47 33.0107V33.0176C389.47 34.2617 388.294 35.1367 386.708 35.1367ZM393.205 35.1367C391.79 35.1367 390.84 34.2822 390.84 32.9902V32.9766C390.84 31.7666 391.783 31.0078 393.417 30.9121L395.454 30.7959V30.2012C395.454 29.333 394.887 28.8066 393.895 28.8066C392.979 28.8066 392.405 29.2441 392.269 29.8799L392.255 29.9414H391.106L391.113 29.8662C391.216 28.6973 392.234 27.7539 393.909 27.7539C395.591 27.7539 396.644 28.6631 396.644 30.085V35H395.454V33.8447H395.427C395.01 34.624 394.155 35.1367 393.205 35.1367ZM392.057 32.9902C392.057 33.6738 392.617 34.1045 393.472 34.1045C394.593 34.1045 395.454 33.332 395.454 32.2998V31.7188L393.554 31.835C392.603 31.8896 392.057 32.3135 392.057 32.9766V32.9902ZM398.574 35V27.8906H399.764V28.9023H399.791C400.174 28.2393 400.898 27.7539 401.979 27.7539C403.537 27.7539 404.439 28.7656 404.439 30.3857V35H403.25V30.5977C403.25 29.4424 402.71 28.8066 401.616 28.8066C400.495 28.8066 399.764 29.6064 399.764 30.8164V35H398.574ZM409.05 35.1367C407.232 35.1367 406.028 33.6875 406.028 31.4453V31.4385C406.028 29.1963 407.245 27.7539 409.029 27.7539C410.034 27.7539 410.861 28.2598 411.306 29.0801H411.333V25.1357H412.523V35H411.333V33.7969H411.306C410.861 34.624 410.068 35.1367 409.05 35.1367ZM409.282 34.084C410.485 34.084 411.34 33.0381 411.34 31.4453V31.4385C411.34 29.8525 410.479 28.8066 409.282 28.8066C408.025 28.8066 407.245 29.8184 407.245 31.4385V31.4453C407.245 33.0791 408.025 34.084 409.282 34.084ZM418.51 26.6875C418.1 26.6875 417.765 26.3525 417.765 25.9424C417.765 25.5254 418.1 25.1973 418.51 25.1973C418.927 25.1973 419.255 25.5254 419.255 25.9424C419.255 26.3525 418.927 26.6875 418.51 26.6875ZM417.915 35V27.8906H419.105V35H417.915ZM421.145 35V27.8906H422.334V28.9023H422.362C422.744 28.2393 423.469 27.7539 424.549 27.7539C426.108 27.7539 427.01 28.7656 427.01 30.3857V35H425.821V30.5977C425.821 29.4424 425.281 28.8066 424.187 28.8066C423.066 28.8066 422.334 29.6064 422.334 30.8164V35H421.145ZM435.773 35.1367C434.754 35.1367 433.961 34.624 433.517 33.7969H433.49V35H432.3V25.1357H433.49V29.0801H433.517C433.961 28.2598 434.789 27.7539 435.793 27.7539C437.578 27.7539 438.794 29.1963 438.794 31.4385V31.4453C438.794 33.6875 437.591 35.1367 435.773 35.1367ZM435.541 34.084C436.798 34.084 437.578 33.0791 437.578 31.4453V31.4385C437.578 29.8184 436.798 28.8066 435.541 28.8066C434.344 28.8066 433.483 29.8525 433.483 31.4385V31.4453C433.483 33.0381 434.337 34.084 435.541 34.084ZM440.411 35V27.8906H441.6V29.0938H441.628C441.867 28.2734 442.482 27.7539 443.282 27.7539C443.487 27.7539 443.665 27.7881 443.76 27.8018V28.957C443.665 28.9229 443.412 28.8887 443.125 28.8887C442.202 28.8887 441.6 29.5312 441.6 30.6113V35H440.411ZM445.821 26.6875C445.411 26.6875 445.076 26.3525 445.076 25.9424C445.076 25.5254 445.411 25.1973 445.821 25.1973C446.238 25.1973 446.566 25.5254 446.566 25.9424C446.566 26.3525 446.238 26.6875 445.821 26.6875ZM445.226 35V27.8906H446.416V35H445.226ZM451.464 37.5293C449.707 37.5293 448.599 36.7021 448.367 35.6494L448.353 35.5879H449.55L449.577 35.6494C449.802 36.1621 450.479 36.4766 451.45 36.4766C452.701 36.4766 453.412 35.7861 453.412 34.6855V33.7764H453.385C452.961 34.5625 452.14 35.0684 451.122 35.0684C449.331 35.0684 448.107 33.626 448.107 31.4043V31.3975C448.107 29.1895 449.344 27.7539 451.149 27.7539C452.154 27.7539 452.947 28.3008 453.385 29.0938H453.412V27.8906H454.601V34.8018C454.601 36.4492 453.391 37.5293 451.464 37.5293ZM451.382 34.0156C452.592 34.0156 453.412 32.9834 453.412 31.4043V31.3975C453.412 29.832 452.585 28.8066 451.382 28.8066C450.117 28.8066 449.324 29.8184 449.324 31.3975V31.4043C449.324 33.0176 450.117 34.0156 451.382 34.0156ZM456.621 35V25.1357H457.81V29.0254H457.838C458.221 28.2256 458.993 27.7539 460.053 27.7539C461.563 27.7539 462.596 28.9229 462.596 30.6455V35H461.406V30.8506C461.406 29.5654 460.75 28.8066 459.642 28.8066C458.542 28.8066 457.81 29.6406 457.81 30.8506V35H456.621ZM466.837 35.1367C465.531 35.1367 464.889 34.5488 464.889 33.1885V28.875H463.85V27.8906H464.889V25.9697H466.119V27.8906H467.473V28.875H466.119V33.1816C466.119 33.9404 466.454 34.1523 467.09 34.1523C467.233 34.1523 467.37 34.1318 467.473 34.125V35.0889C467.322 35.1094 467.069 35.1367 466.837 35.1367ZM472.524 35V25.1357H473.713V35H472.524ZM476.409 26.6875C475.999 26.6875 475.664 26.3525 475.664 25.9424C475.664 25.5254 475.999 25.1973 476.409 25.1973C476.826 25.1973 477.154 25.5254 477.154 25.9424C477.154 26.3525 476.826 26.6875 476.409 26.6875ZM475.815 35V27.8906H477.004V35H475.815ZM482.052 37.5293C480.295 37.5293 479.188 36.7021 478.955 35.6494L478.942 35.5879H480.138L480.165 35.6494C480.391 36.1621 481.068 36.4766 482.038 36.4766C483.289 36.4766 484 35.7861 484 34.6855V33.7764H483.973C483.549 34.5625 482.729 35.0684 481.71 35.0684C479.919 35.0684 478.696 33.626 478.696 31.4043V31.3975C478.696 29.1895 479.933 27.7539 481.738 27.7539C482.742 27.7539 483.535 28.3008 483.973 29.0938H484V27.8906H485.19V34.8018C485.19 36.4492 483.98 37.5293 482.052 37.5293ZM481.97 34.0156C483.18 34.0156 484 32.9834 484 31.4043V31.3975C484 29.832 483.173 28.8066 481.97 28.8066C480.705 28.8066 479.912 29.8184 479.912 31.3975V31.4043C479.912 33.0176 480.705 34.0156 481.97 34.0156ZM487.209 35V25.1357H488.399V29.0254H488.426C488.809 28.2256 489.581 27.7539 490.641 27.7539C492.152 27.7539 493.184 28.9229 493.184 30.6455V35H491.994V30.8506C491.994 29.5654 491.338 28.8066 490.231 28.8066C489.13 28.8066 488.399 29.6406 488.399 30.8506V35H487.209ZM497.425 35.1367C496.12 35.1367 495.477 34.5488 495.477 33.1885V28.875H494.438V27.8906H495.477V25.9697H496.707V27.8906H498.061V28.875H496.707V33.1816C496.707 33.9404 497.042 34.1523 497.678 34.1523C497.822 34.1523 497.958 34.1318 498.061 34.125V35.0889C497.911 35.1094 497.658 35.1367 497.425 35.1367ZM502.186 35.1367C500.627 35.1367 499.725 34.125 499.725 32.5049V27.8906H500.915V32.293C500.915 33.4482 501.455 34.084 502.548 34.084C503.669 34.084 504.401 33.2842 504.401 32.0742V27.8906H505.59V35H504.401V33.9883H504.374C503.991 34.6514 503.266 35.1367 502.186 35.1367ZM510.085 35.1367C508.41 35.1367 507.398 34.2822 507.254 33.0107L507.248 32.9492H508.437L508.451 33.0176C508.594 33.7285 509.121 34.1455 510.091 34.1455C511.055 34.1455 511.629 33.7422 511.629 33.0996V33.0928C511.629 32.5801 511.363 32.293 510.556 32.0947L509.428 31.8213C508.088 31.5 507.439 30.8779 507.439 29.8525V29.8457C507.439 28.6221 508.512 27.7539 510.05 27.7539C511.609 27.7539 512.6 28.6631 512.689 29.8525L512.696 29.9414H511.561L511.554 29.8936C511.459 29.2031 510.932 28.7451 510.05 28.7451C509.189 28.7451 508.656 29.1621 508.656 29.791V29.7979C508.656 30.2832 508.977 30.6182 509.763 30.8096L510.891 31.083C512.327 31.4316 512.846 31.999 512.846 33.0107V33.0176C512.846 34.2617 511.67 35.1367 510.085 35.1367ZM515.173 26.6875C514.763 26.6875 514.428 26.3525 514.428 25.9424C514.428 25.5254 514.763 25.1973 515.173 25.1973C515.59 25.1973 515.919 25.5254 515.919 25.9424C515.919 26.3525 515.59 26.6875 515.173 26.6875ZM514.579 35V27.8906H515.768V35H514.579ZM517.808 35V27.8906H518.998V28.9023H519.025C519.408 28.2393 520.133 27.7539 521.213 27.7539C522.771 27.7539 523.674 28.7656 523.674 30.3857V35H522.484V30.5977C522.484 29.4424 521.944 28.8066 520.85 28.8066C519.729 28.8066 518.998 29.6064 518.998 30.8164V35H517.808ZM528.619 37.5293C526.862 37.5293 525.755 36.7021 525.522 35.6494L525.509 35.5879H526.705L526.732 35.6494C526.958 36.1621 527.635 36.4766 528.605 36.4766C529.856 36.4766 530.567 35.7861 530.567 34.6855V33.7764H530.54C530.116 34.5625 529.296 35.0684 528.277 35.0684C526.486 35.0684 525.263 33.626 525.263 31.4043V31.3975C525.263 29.1895 526.5 27.7539 528.305 27.7539C529.309 27.7539 530.102 28.3008 530.54 29.0938H530.567V27.8906H531.757V34.8018C531.757 36.4492 530.547 37.5293 528.619 37.5293ZM528.537 34.0156C529.747 34.0156 530.567 32.9834 530.567 31.4043V31.3975C530.567 29.832 529.74 28.8066 528.537 28.8066C527.272 28.8066 526.479 29.8184 526.479 31.3975V31.4043C526.479 33.0176 527.272 34.0156 528.537 34.0156ZM3.08301 59.1367C1.77734 59.1367 1.13477 58.5488 1.13477 57.1885V52.875H0.0957031V51.8906H1.13477V49.9697H2.36523V51.8906H3.71875V52.875H2.36523V57.1816C2.36523 57.9404 2.7002 58.1523 3.33594 58.1523C3.47949 58.1523 3.61621 58.1318 3.71875 58.125V59.0889C3.56836 59.1094 3.31543 59.1367 3.08301 59.1367ZM5.47859 59V49.1357H6.66805V53.0254H6.69539C7.0782 52.2256 7.85066 51.7539 8.91023 51.7539C10.421 51.7539 11.4532 52.9229 11.4532 54.6455V59H10.2638V54.8506C10.2638 53.5654 9.6075 52.8066 8.50008 52.8066C7.39949 52.8066 6.66805 53.6406 6.66805 54.8506V59H5.47859ZM16.3097 59.1367C14.2658 59.1367 13.0353 57.708 13.0353 55.4727V55.4658C13.0353 53.2646 14.2931 51.7539 16.2345 51.7539C18.1759 51.7539 19.3586 53.1963 19.3586 55.3291V55.7666H14.2384C14.2658 57.2295 15.0724 58.084 16.3371 58.084C17.2394 58.084 17.8752 57.6328 18.0802 57.0244L18.1007 56.9629H19.2697L19.256 57.0312C19.0236 58.207 17.8615 59.1367 16.3097 59.1367ZM16.2277 52.8066C15.1955 52.8066 14.3888 53.5107 14.2589 54.8369H18.1486C18.0324 53.4561 17.2668 52.8066 16.2277 52.8066ZM24.2728 59V51.8906H25.4622V52.9023H25.4896C25.8724 52.2393 26.597 51.7539 27.6771 51.7539C29.2357 51.7539 30.138 52.7656 30.138 54.3857V59H28.9486V54.5977C28.9486 53.4424 28.4085 52.8066 27.3148 52.8066C26.1937 52.8066 25.4622 53.6064 25.4622 54.8164V59H24.2728ZM35.0014 59.1367C32.9574 59.1367 31.727 57.708 31.727 55.4727V55.4658C31.727 53.2646 32.9848 51.7539 34.9262 51.7539C36.8676 51.7539 38.0502 53.1963 38.0502 55.3291V55.7666H32.9301C32.9574 57.2295 33.7641 58.084 35.0287 58.084C35.9311 58.084 36.5668 57.6328 36.7719 57.0244L36.7924 56.9629H37.9613L37.9477 57.0312C37.7152 58.207 36.5531 59.1367 35.0014 59.1367ZM34.9193 52.8066C33.8871 52.8066 33.0805 53.5107 32.9506 54.8369H36.8402C36.724 53.4561 35.9584 52.8066 34.9193 52.8066ZM41.0815 59L39.0923 51.8906H40.2749L41.6968 57.6738H41.7241L43.3305 51.8906H44.479L46.0923 57.6738H46.1196L47.5415 51.8906H48.7173L46.7348 59H45.5249L43.9184 53.4971H43.8911L42.2915 59H41.0815ZM55.9284 59.1367C54.2536 59.1367 53.2418 58.2822 53.0983 57.0107L53.0914 56.9492H54.2809L54.2946 57.0176C54.4381 57.7285 54.9645 58.1455 55.9352 58.1455C56.8991 58.1455 57.4733 57.7422 57.4733 57.0996V57.0928C57.4733 56.5801 57.2067 56.293 56.4 56.0947L55.2721 55.8213C53.9323 55.5 53.2829 54.8779 53.2829 53.8525V53.8457C53.2829 52.6221 54.3561 51.7539 55.8942 51.7539C57.4528 51.7539 58.444 52.6631 58.5329 53.8525L58.5397 53.9414H57.4049L57.3981 53.8936C57.3024 53.2031 56.776 52.7451 55.8942 52.7451C55.0329 52.7451 54.4996 53.1621 54.4996 53.791V53.7979C54.4996 54.2832 54.8209 54.6182 55.6071 54.8096L56.735 55.083C58.1705 55.4316 58.6901 55.999 58.6901 57.0107V57.0176C58.6901 58.2617 57.5143 59.1367 55.9284 59.1367ZM61.031 61.3926C60.7986 61.3926 60.5456 61.3652 60.3952 61.3379V60.3672C60.4978 60.3877 60.6345 60.4082 60.778 60.4082C61.53 60.4082 61.947 60.2168 62.2341 59.4102L62.3777 59.0068L59.739 51.8906H61.0105L62.9724 57.8105H62.9997L64.9685 51.8906H66.2195L63.4441 59.4443C62.9382 60.8047 62.3161 61.3926 61.031 61.3926ZM70.0984 59.1367C68.4236 59.1367 67.4119 58.2822 67.2684 57.0107L67.2615 56.9492H68.451L68.4646 57.0176C68.6082 57.7285 69.1346 58.1455 70.1053 58.1455C71.0691 58.1455 71.6434 57.7422 71.6434 57.0996V57.0928C71.6434 56.5801 71.3768 56.293 70.5701 56.0947L69.4422 55.8213C68.1023 55.5 67.4529 54.8779 67.4529 53.8525V53.8457C67.4529 52.6221 68.5262 51.7539 70.0643 51.7539C71.6228 51.7539 72.6141 52.6631 72.7029 53.8525L72.7098 53.9414H71.575L71.5682 53.8936C71.4725 53.2031 70.9461 52.7451 70.0643 52.7451C69.2029 52.7451 68.6697 53.1621 68.6697 53.791V53.7979C68.6697 54.2832 68.991 54.6182 69.7771 54.8096L70.9051 55.083C72.3406 55.4316 72.8602 55.999 72.8602 57.0107V57.0176C72.8602 58.2617 71.6844 59.1367 70.0984 59.1367ZM76.828 59.1367C75.5223 59.1367 74.8798 58.5488 74.8798 57.1885V52.875H73.8407V51.8906H74.8798V49.9697H76.1102V51.8906H77.4638V52.875H76.1102V57.1816C76.1102 57.9404 76.4452 58.1523 77.0809 58.1523C77.2245 58.1523 77.3612 58.1318 77.4638 58.125V59.0889C77.3134 59.1094 77.0604 59.1367 76.828 59.1367ZM81.8828 59.1367C79.8388 59.1367 78.6084 57.708 78.6084 55.4727V55.4658C78.6084 53.2646 79.8662 51.7539 81.8076 51.7539C83.749 51.7539 84.9316 53.1963 84.9316 55.3291V55.7666H79.8115C79.8388 57.2295 80.6455 58.084 81.9101 58.084C82.8125 58.084 83.4482 57.6328 83.6533 57.0244L83.6738 56.9629H84.8427L84.8291 57.0312C84.5966 58.207 83.4345 59.1367 81.8828 59.1367ZM81.8007 52.8066C80.7685 52.8066 79.9619 53.5107 79.832 54.8369H83.7216C83.6054 53.4561 82.8398 52.8066 81.8007 52.8066ZM86.5547 59V51.8906H87.7442V52.9297H87.7715C88.0928 52.2256 88.8037 51.7539 89.7198 51.7539C90.6905 51.7539 91.4082 52.2529 91.7159 53.1211H91.7432C92.1397 52.2666 92.9737 51.7539 93.9717 51.7539C95.3799 51.7539 96.2891 52.6768 96.2891 54.0918V59H95.0996V54.3652C95.0996 53.3877 94.5596 52.8066 93.6231 52.8066C92.6797 52.8066 92.0166 53.5107 92.0166 54.4814V59H90.8272V54.2354C90.8272 53.374 90.253 52.8066 89.3711 52.8066C88.4278 52.8066 87.7442 53.5518 87.7442 54.543V59H86.5547ZM99.6349 59L97.6456 51.8906H98.8282L100.25 57.6738H100.277L101.884 51.8906H103.032L104.646 57.6738H104.673L106.095 51.8906H107.271L105.288 59H104.078L102.472 53.4971H102.444L100.845 59H99.6349ZM109.338 50.6875C108.928 50.6875 108.593 50.3525 108.593 49.9424C108.593 49.5254 108.928 49.1973 109.338 49.1973C109.755 49.1973 110.083 49.5254 110.083 49.9424C110.083 50.3525 109.755 50.6875 109.338 50.6875ZM108.743 59V51.8906H109.933V59H108.743ZM114.283 59.1367C112.978 59.1367 112.335 58.5488 112.335 57.1885V52.875H111.296V51.8906H112.335V49.9697H113.566V51.8906H114.919V52.875H113.566V57.1816C113.566 57.9404 113.901 58.1523 114.536 58.1523C114.68 58.1523 114.817 58.1318 114.919 58.125V59.0889C114.769 59.1094 114.516 59.1367 114.283 59.1367ZM116.679 59V49.1357H117.869V53.0254H117.896C118.279 52.2256 119.051 51.7539 120.111 51.7539C121.621 51.7539 122.654 52.9229 122.654 54.6455V59H121.464V54.8506C121.464 53.5654 120.808 52.8066 119.701 52.8066C118.6 52.8066 117.869 53.6406 117.869 54.8506V59H116.679ZM130.186 59.1367C128.88 59.1367 128.238 58.5488 128.238 57.1885V52.875H127.199V51.8906H128.238V49.9697H129.468V51.8906H130.822V52.875H129.468V57.1816C129.468 57.9404 129.803 58.1523 130.439 58.1523C130.583 58.1523 130.719 58.1318 130.822 58.125V59.0889C130.671 59.1094 130.418 59.1367 130.186 59.1367ZM133.928 59L131.939 51.8906H133.122L134.544 57.6738H134.571L136.177 51.8906H137.326L138.939 57.6738H138.966L140.388 51.8906H141.564L139.582 59H138.372L136.765 53.4971H136.738L135.138 59H133.928ZM145.908 59.1367C143.932 59.1367 142.613 57.708 142.613 55.4453V55.4316C142.613 53.1689 143.939 51.7539 145.901 51.7539C147.863 51.7539 149.196 53.1621 149.196 55.4316V55.4453C149.196 57.7148 147.87 59.1367 145.908 59.1367ZM145.915 58.084C147.166 58.084 147.979 57.1133 147.979 55.4453V55.4316C147.979 53.7637 147.159 52.8066 145.901 52.8066C144.664 52.8066 143.83 53.7705 143.83 55.4316V55.4453C143.83 57.1201 144.657 58.084 145.915 58.084ZM157.056 59.1367C155.04 59.1367 153.762 57.7012 153.762 55.4385V55.4316C153.762 53.1895 155.067 51.7539 157.043 51.7539C158.813 51.7539 159.859 52.9297 160.01 54.1465L160.016 54.2012H158.854L158.841 54.1465C158.663 53.4355 158.089 52.8066 157.043 52.8066C155.806 52.8066 154.978 53.832 154.978 55.4453V55.4521C154.978 57.1064 155.826 58.084 157.056 58.084C158.027 58.084 158.649 57.5371 158.848 56.7441L158.861 56.6895H160.03L160.023 56.7373C159.832 58.0908 158.663 59.1367 157.056 59.1367ZM163.622 59.1367C162.207 59.1367 161.257 58.2822 161.257 56.9902V56.9766C161.257 55.7666 162.2 55.0078 163.834 54.9121L165.871 54.7959V54.2012C165.871 53.333 165.304 52.8066 164.312 52.8066C163.396 52.8066 162.822 53.2441 162.685 53.8799L162.672 53.9414H161.523L161.53 53.8662C161.633 52.6973 162.651 51.7539 164.326 51.7539C166.008 51.7539 167.06 52.6631 167.06 54.085V59H165.871V57.8447H165.844C165.427 58.624 164.572 59.1367 163.622 59.1367ZM162.474 56.9902C162.474 57.6738 163.034 58.1045 163.889 58.1045C165.01 58.1045 165.871 57.332 165.871 56.2998V55.7188L163.971 55.835C163.02 55.8896 162.474 56.3135 162.474 56.9766V56.9902ZM168.991 59V51.8906H170.181V52.9297H170.208C170.529 52.2256 171.24 51.7539 172.156 51.7539C173.127 51.7539 173.845 52.2529 174.152 53.1211H174.18C174.576 52.2666 175.41 51.7539 176.408 51.7539C177.816 51.7539 178.726 52.6768 178.726 54.0918V59H177.536V54.3652C177.536 53.3877 176.996 52.8066 176.06 52.8066C175.116 52.8066 174.453 53.5107 174.453 54.4814V59H173.264V54.2354C173.264 53.374 172.689 52.8066 171.808 52.8066C170.864 52.8066 170.181 53.5518 170.181 54.543V59H168.991ZM183.589 59.1367C181.545 59.1367 180.315 57.708 180.315 55.4727V55.4658C180.315 53.2646 181.572 51.7539 183.514 51.7539C185.455 51.7539 186.638 53.1963 186.638 55.3291V55.7666H181.518C181.545 57.2295 182.352 58.084 183.616 58.084C184.519 58.084 185.154 57.6328 185.359 57.0244L185.38 56.9629H186.549L186.535 57.0312C186.303 58.207 185.141 59.1367 183.589 59.1367ZM183.507 52.8066C182.475 52.8066 181.668 53.5107 181.538 54.8369H185.428C185.312 53.4561 184.546 52.8066 183.507 52.8066ZM188.261 59V51.8906H189.45V53.0938H189.478C189.717 52.2734 190.332 51.7539 191.132 51.7539C191.337 51.7539 191.515 51.7881 191.611 51.8018V52.957C191.515 52.9229 191.262 52.8887 190.975 52.8887C190.052 52.8887 189.45 53.5312 189.45 54.6113V59H188.261ZM194.943 59.1367C193.528 59.1367 192.577 58.2822 192.577 56.9902V56.9766C192.577 55.7666 193.521 55.0078 195.155 54.9121L197.192 54.7959V54.2012C197.192 53.333 196.624 52.8066 195.633 52.8066C194.717 52.8066 194.143 53.2441 194.006 53.8799L193.992 53.9414H192.844L192.851 53.8662C192.953 52.6973 193.972 51.7539 195.647 51.7539C197.328 51.7539 198.381 52.6631 198.381 54.085V59H197.192V57.8447H197.164C196.747 58.624 195.893 59.1367 194.943 59.1367ZM193.794 56.9902C193.794 57.6738 194.355 58.1045 195.209 58.1045C196.33 58.1045 197.192 57.332 197.192 56.2998V55.7188L195.291 55.835C194.341 55.8896 193.794 56.3135 193.794 56.9766V56.9902ZM202.834 59.1367C201.159 59.1367 200.148 58.2822 200.004 57.0107L199.997 56.9492H201.187L201.201 57.0176C201.344 57.7285 201.87 58.1455 202.841 58.1455C203.805 58.1455 204.379 57.7422 204.379 57.0996V57.0928C204.379 56.5801 204.113 56.293 203.306 56.0947L202.178 55.8213C200.838 55.5 200.189 54.8779 200.189 53.8525V53.8457C200.189 52.6221 201.262 51.7539 202.8 51.7539C204.359 51.7539 205.35 52.6631 205.439 53.8525L205.446 53.9414H204.311L204.304 53.8936C204.208 53.2031 203.682 52.7451 202.8 52.7451C201.939 52.7451 201.406 53.1621 201.406 53.791V53.7979C201.406 54.2832 201.727 54.6182 202.513 54.8096L203.641 55.083C205.076 55.4316 205.596 55.999 205.596 57.0107V57.0176C205.596 58.2617 204.42 59.1367 202.834 59.1367Z" fill="#6C6C6C"/>
<path d="M210.544 59V51.8906H211.734V52.9297H211.761C212.083 52.2256 212.793 51.7539 213.709 51.7539C214.68 51.7539 215.398 52.2529 215.706 53.1211H215.733C216.129 52.2666 216.963 51.7539 217.961 51.7539C219.37 51.7539 220.279 52.6768 220.279 54.0918V59H219.089V54.3652C219.089 53.3877 218.549 52.8066 217.613 52.8066C216.669 52.8066 216.006 53.5107 216.006 54.4814V59H214.817V54.2354C214.817 53.374 214.243 52.8066 213.361 52.8066C212.417 52.8066 211.734 53.5518 211.734 54.543V59H210.544ZM225.163 59.1367C223.187 59.1367 221.868 57.708 221.868 55.4453V55.4316C221.868 53.1689 223.194 51.7539 225.156 51.7539C227.118 51.7539 228.451 53.1621 228.451 55.4316V55.4453C228.451 57.7148 227.125 59.1367 225.163 59.1367ZM225.169 58.084C226.42 58.084 227.234 57.1133 227.234 55.4453V55.4316C227.234 53.7637 226.414 52.8066 225.156 52.8066C223.919 52.8066 223.085 53.7705 223.085 55.4316V55.4453C223.085 57.1201 223.912 58.084 225.169 58.084ZM230.074 59V51.8906H231.263V53.0938H231.291C231.53 52.2734 232.145 51.7539 232.945 51.7539C233.15 51.7539 233.328 51.7881 233.423 51.8018V52.957C233.328 52.9229 233.075 52.8887 232.788 52.8887C231.865 52.8887 231.263 53.5312 231.263 54.6113V59H230.074ZM237.398 59.1367C235.354 59.1367 234.124 57.708 234.124 55.4727V55.4658C234.124 53.2646 235.382 51.7539 237.323 51.7539C239.264 51.7539 240.447 53.1963 240.447 55.3291V55.7666H235.327C235.354 57.2295 236.161 58.084 237.426 58.084C238.328 58.084 238.964 57.6328 239.169 57.0244L239.189 56.9629H240.358L240.344 57.0312C240.112 58.207 238.95 59.1367 237.398 59.1367ZM237.316 52.8066C236.284 52.8066 235.477 53.5107 235.347 54.8369H239.237C239.121 53.4561 238.355 52.8066 237.316 52.8066ZM242.802 59.0957C242.364 59.0957 242.022 58.7539 242.022 58.3164C242.022 57.8789 242.364 57.5371 242.802 57.5371C243.239 57.5371 243.581 57.8789 243.581 58.3164C243.581 58.7539 243.239 59.0957 242.802 59.0957ZM246.229 59.0957C245.792 59.0957 245.45 58.7539 245.45 58.3164C245.45 57.8789 245.792 57.5371 246.229 57.5371C246.667 57.5371 247.009 57.8789 247.009 58.3164C247.009 58.7539 246.667 59.0957 246.229 59.0957ZM249.657 59.0957C249.22 59.0957 248.878 58.7539 248.878 58.3164C248.878 57.8789 249.22 57.5371 249.657 57.5371C250.095 57.5371 250.436 57.8789 250.436 58.3164C250.436 58.7539 250.095 59.0957 249.657 59.0957Z" fill="#2C2C2C"/>
<path d="M209.772 61.5293H251.161V62.3496H209.772V61.5293Z" fill="#2C2C2C"/>
</svg>
