<svg width="1040" height="32" viewBox="0 0 1040 32" fill="none" xmlns="http://www.w3.org/2000/svg">
<path d="M1040 31.5H0V32.5H1040V31.5Z" fill="#CDCDCD" mask="url(#path-1-inside-1_158_729)"/>
<path d="M5.35156 18H3.94531V7.99219H0.390625V6.72656H8.90625V7.99219H5.35156V18ZM10.25 18V6.72656H11.6094V11.1719H11.6406C12.0938 10.2656 12.9844 9.73438 14.2188 9.73438C16 9.73438 17.0781 10.9375 17.0781 12.75V18H15.7188V13C15.7188 11.7109 15.0703 10.9375 13.7969 10.9375C12.4453 10.9375 11.6094 11.8594 11.6094 13.2656V18H10.25ZM22.0625 10.9141C20.7891 10.9141 19.8984 11.8906 19.8125 13.2422H24.2266C24.1953 11.8828 23.3438 10.9141 22.0625 10.9141ZM24.1953 15.6719H25.5312C25.2969 17.0938 23.9219 18.1406 22.1484 18.1406C19.8203 18.1406 18.4062 16.5234 18.4062 13.9688C18.4062 11.4453 19.8438 9.73438 22.0859 9.73438C24.2812 9.73438 25.6328 11.3281 25.6328 13.7891V14.3047H19.8047V14.3828C19.8047 15.9375 20.7188 16.9609 22.1797 16.9609C23.2109 16.9609 23.9688 16.4375 24.1953 15.6719ZM30.1484 12.1172C30.1484 10.7266 31.3906 9.73438 33.1797 9.73438C34.8594 9.73438 36.0938 10.7344 36.1562 12.1094H34.8594C34.7656 11.3281 34.1328 10.8438 33.1328 10.8438C32.1406 10.8438 31.4844 11.3359 31.4844 12.0469C31.4844 12.6094 31.9141 12.9844 32.8359 13.2188L34.0938 13.5234C35.7344 13.9375 36.3281 14.5312 36.3281 15.7266C36.3281 17.1406 34.9922 18.1406 33.0938 18.1406C31.3125 18.1406 30.0703 17.1719 29.9297 15.7344H31.2891C31.4375 16.5781 32.0781 17.0312 33.1797 17.0312C34.2812 17.0312 34.9609 16.5625 34.9609 15.8281C34.9609 15.25 34.625 14.9375 33.7109 14.6953L32.2812 14.3281C30.8516 13.9609 30.1484 13.2266 30.1484 12.1172ZM44.4922 12.5391H43.1641C42.9688 11.6562 42.2812 10.9297 41.0859 10.9297C39.6797 10.9297 38.7266 12.0938 38.7266 13.9375C38.7266 15.8281 39.6953 16.9453 41.1016 16.9453C42.2109 16.9453 42.9375 16.3594 43.1719 15.3828H44.5078C44.2969 17 42.9375 18.1406 41.0938 18.1406C38.8438 18.1406 37.3438 16.5547 37.3438 13.9375C37.3438 11.375 38.8359 9.73438 41.0781 9.73438C43.1094 9.73438 44.3203 11.0781 44.4922 12.5391ZM45.7578 18V9.875H47.0391V11.2031H47.0703C47.3359 10.3047 48.0859 9.73438 49.0391 9.73438C49.2734 9.73438 49.4766 9.77344 49.5859 9.78906V11.1094C49.4766 11.0703 49.1875 11.0312 48.8594 11.0312C47.8047 11.0312 47.1172 11.7891 47.1172 12.9375V18H45.7578ZM53.5625 10.9141C52.2891 10.9141 51.3984 11.8906 51.3125 13.2422H55.7266C55.6953 11.8828 54.8438 10.9141 53.5625 10.9141ZM55.6953 15.6719H57.0312C56.7969 17.0938 55.4219 18.1406 53.6484 18.1406C51.3203 18.1406 49.9062 16.5234 49.9062 13.9688C49.9062 11.4453 51.3438 9.73438 53.5859 9.73438C55.7812 9.73438 57.1328 11.3281 57.1328 13.7891V14.3047H51.3047V14.3828C51.3047 15.9375 52.2188 16.9609 53.6797 16.9609C54.7109 16.9609 55.4688 16.4375 55.6953 15.6719ZM61.7656 10.9141C60.4922 10.9141 59.6016 11.8906 59.5156 13.2422H63.9297C63.8984 11.8828 63.0469 10.9141 61.7656 10.9141ZM63.8984 15.6719H65.2344C65 17.0938 63.625 18.1406 61.8516 18.1406C59.5234 18.1406 58.1094 16.5234 58.1094 13.9688C58.1094 11.4453 59.5469 9.73438 61.7891 9.73438C63.9844 9.73438 65.3359 11.3281 65.3359 13.7891V14.3047H59.5078V14.3828C59.5078 15.9375 60.4219 16.9609 61.8828 16.9609C62.9141 16.9609 63.6719 16.4375 63.8984 15.6719ZM66.7109 18V9.875H67.9922V11.1719H68.0234C68.4766 10.2969 69.3438 9.73438 70.6016 9.73438C72.3828 9.73438 73.4141 10.8828 73.4141 12.7266V18H72.0547V12.9688C72.0547 11.6562 71.4375 10.9375 70.1875 10.9375C68.9062 10.9375 68.0703 11.8438 68.0703 13.2188V18H66.7109ZM78.4297 18V9.875H79.7109V11.2031H79.7422C80.0078 10.3047 80.7578 9.73438 81.7109 9.73438C81.9453 9.73438 82.1484 9.77344 82.2578 9.78906V11.1094C82.1484 11.0703 81.8594 11.0312 81.5312 11.0312C80.4766 11.0312 79.7891 11.7891 79.7891 12.9375V18H78.4297ZM86.2344 10.9141C84.9609 10.9141 84.0703 11.8906 83.9844 13.2422H88.3984C88.3672 11.8828 87.5156 10.9141 86.2344 10.9141ZM88.3672 15.6719H89.7031C89.4688 17.0938 88.0938 18.1406 86.3203 18.1406C83.9922 18.1406 82.5781 16.5234 82.5781 13.9688C82.5781 11.4453 84.0156 9.73438 86.2578 9.73438C88.4531 9.73438 89.8047 11.3281 89.8047 13.7891V14.3047H83.9766V14.3828C83.9766 15.9375 84.8906 16.9609 86.3516 16.9609C87.3828 16.9609 88.1406 16.4375 88.3672 15.6719ZM91.6172 18V10.9922H90.4844V9.875H91.6172V8.96875C91.6172 7.40625 92.3438 6.66406 93.8438 6.66406C94.1484 6.66406 94.4766 6.69531 94.6719 6.72656V7.82812C94.5078 7.80469 94.2812 7.78125 94.0547 7.78125C93.3203 7.78125 92.9688 8.17188 92.9688 8.97656V9.875H94.6328V10.9922H92.9766V18H91.6172ZM96.0391 18V9.875H97.3203V11.2031H97.3516C97.6172 10.3047 98.3672 9.73438 99.3203 9.73438C99.5547 9.73438 99.7578 9.77344 99.8672 9.78906V11.1094C99.7578 11.0703 99.4688 11.0312 99.1406 11.0312C98.0859 11.0312 97.3984 11.7891 97.3984 12.9375V18H96.0391ZM103.844 10.9141C102.57 10.9141 101.68 11.8906 101.594 13.2422H106.008C105.977 11.8828 105.125 10.9141 103.844 10.9141ZM105.977 15.6719H107.312C107.078 17.0938 105.703 18.1406 103.93 18.1406C101.602 18.1406 100.188 16.5234 100.188 13.9688C100.188 11.4453 101.625 9.73438 103.867 9.73438C106.062 9.73438 107.414 11.3281 107.414 13.7891V14.3047H101.586V14.3828C101.586 15.9375 102.5 16.9609 103.961 16.9609C104.992 16.9609 105.75 16.4375 105.977 15.6719ZM108.648 12.1172C108.648 10.7266 109.891 9.73438 111.68 9.73438C113.359 9.73438 114.594 10.7344 114.656 12.1094H113.359C113.266 11.3281 112.633 10.8438 111.633 10.8438C110.641 10.8438 109.984 11.3359 109.984 12.0469C109.984 12.6094 110.414 12.9844 111.336 13.2188L112.594 13.5234C114.234 13.9375 114.828 14.5312 114.828 15.7266C114.828 17.1406 113.492 18.1406 111.594 18.1406C109.812 18.1406 108.57 17.1719 108.43 15.7344H109.789C109.938 16.5781 110.578 17.0312 111.68 17.0312C112.781 17.0312 113.461 16.5625 113.461 15.8281C113.461 15.25 113.125 14.9375 112.211 14.6953L110.781 14.3281C109.352 13.9609 108.648 13.2266 108.648 12.1172ZM116.312 18V6.72656H117.672V11.1719H117.703C118.156 10.2656 119.047 9.73438 120.281 9.73438C122.062 9.73438 123.141 10.9375 123.141 12.75V18H121.781V13C121.781 11.7109 121.133 10.9375 119.859 10.9375C118.508 10.9375 117.672 11.8594 117.672 13.2656V18H116.312ZM128.148 18V9.875H129.43V11.2031H129.461C129.727 10.3047 130.477 9.73438 131.43 9.73438C131.664 9.73438 131.867 9.77344 131.977 9.78906V11.1094C131.867 11.0703 131.578 11.0312 131.25 11.0312C130.195 11.0312 129.508 11.7891 129.508 12.9375V18H128.148ZM135.609 16.9844C136.891 16.9844 137.875 16.0859 137.875 14.9141V14.25L135.703 14.3828C134.609 14.4531 133.984 14.9375 133.984 15.7031C133.984 16.4766 134.633 16.9844 135.609 16.9844ZM135.305 18.1406C133.688 18.1406 132.602 17.1641 132.602 15.7031C132.602 14.3125 133.672 13.4375 135.547 13.3281L137.875 13.1953V12.5156C137.875 11.5234 137.219 10.9297 136.094 10.9297C135.047 10.9297 134.391 11.4219 134.219 12.2188H132.906C133 10.8125 134.203 9.73438 136.125 9.73438C138.031 9.73438 139.234 10.7656 139.234 12.3828V18H137.945V16.6016H137.914C137.43 17.5312 136.398 18.1406 135.305 18.1406ZM141.398 7.91406H142.758V9.875H144.336V10.9922H142.758V15.8203C142.758 16.5625 143.07 16.8984 143.766 16.8984C143.922 16.8984 144.234 16.875 144.328 16.8594V18C144.164 18.0391 143.789 18.0625 143.469 18.0625C141.977 18.0625 141.398 17.4531 141.398 15.8906V10.9922H140.188V9.875H141.398V7.91406ZM148.812 10.9141C147.539 10.9141 146.648 11.8906 146.562 13.2422H150.977C150.945 11.8828 150.094 10.9141 148.812 10.9141ZM150.945 15.6719H152.281C152.047 17.0938 150.672 18.1406 148.898 18.1406C146.57 18.1406 145.156 16.5234 145.156 13.9688C145.156 11.4453 146.594 9.73438 148.836 9.73438C151.031 9.73438 152.383 11.3281 152.383 13.7891V14.3047H146.555V14.3828C146.555 15.9375 147.469 16.9609 148.93 16.9609C149.961 16.9609 150.719 16.4375 150.945 15.6719Z" fill="black"/>
<path d="M998.552 17V7.83008H998.523L995.725 9.77832V8.45264L998.538 6.43115H999.827V17H998.552ZM1002.51 17V16.0918L1006.23 12.21C1007.66 10.7231 1007.99 10.1519 1007.99 9.27295V9.2583C1007.98 8.18164 1007.17 7.40527 1006.02 7.40527C1004.7 7.40527 1003.72 8.31348 1003.72 9.44873V9.48535H1002.44V9.44141C1002.44 7.61035 1004.02 6.25537 1005.99 6.25537C1007.91 6.25537 1009.3 7.53711 1009.3 9.19238V9.20703C1009.3 10.3643 1008.77 11.2358 1006.83 13.2207L1004.32 15.7988V15.8281H1009.48V17H1002.51ZM1014.69 17.1758C1012.26 17.1758 1010.81 15.0737 1010.81 11.7192V11.7046C1010.81 8.3501 1012.26 6.25537 1014.69 6.25537C1017.12 6.25537 1018.58 8.3501 1018.58 11.7046V11.7192C1018.58 15.0737 1017.12 17.1758 1014.69 17.1758ZM1014.69 16.0259C1016.3 16.0259 1017.25 14.3706 1017.25 11.7192V11.7046C1017.25 9.05322 1016.3 7.4126 1014.69 7.4126C1013.08 7.4126 1012.14 9.05322 1012.14 11.7046V11.7192C1012.14 14.3706 1013.08 16.0259 1014.69 16.0259ZM1023.34 17V6.43115H1024.66V11.0015H1030.46V6.43115H1031.78V17H1030.46V12.188H1024.66V17H1023.34ZM1033.47 17V16.0918L1037.69 10.4595V10.4375H1033.48V9.38281H1039.14V10.313L1034.95 15.9233V15.9453H1039.16V17H1033.47Z" fill="black"/>
</svg>
