<svg width="67" height="28" viewBox="0 0 67 28" fill="none" xmlns="http://www.w3.org/2000/svg">
<path d="M4.18359 11.1641C2.05078 11.1641 0.608398 10.1182 0.485352 8.42969L0.478516 8.33398H1.70898L1.72266 8.42969C1.86621 9.4209 2.82324 10.0293 4.25195 10.0293C5.67383 10.0293 6.56934 9.38672 6.56934 8.36816V8.36133C6.56934 7.49316 6.00195 7.00781 4.64844 6.70703L3.55469 6.46777C1.62695 6.04395 0.724609 5.17578 0.724609 3.7334V3.72656C0.731445 2.10645 2.16699 0.97168 4.19727 0.97168C6.125 0.97168 7.5332 2.08594 7.64258 3.69922L7.64941 3.80176H6.41895L6.40527 3.70605C6.25488 2.70117 5.41406 2.10645 4.16309 2.10645C2.84375 2.11328 1.98242 2.74219 1.98242 3.69238V3.69922C1.98242 4.50586 2.57715 5.01172 3.8623 5.29199L4.95605 5.53125C6.97949 5.97559 7.82715 6.7959 7.82715 8.2998V8.30664C7.82715 10.0566 6.43945 11.1641 4.18359 11.1641ZM12.0312 11.1367C10.0146 11.1367 8.73633 9.70117 8.73633 7.43848V7.43164C8.73633 5.18945 10.042 3.75391 12.0176 3.75391C13.7881 3.75391 14.834 4.92969 14.9844 6.14648L14.9912 6.20117H13.8291L13.8154 6.14648C13.6377 5.43555 13.0635 4.80664 12.0176 4.80664C10.7803 4.80664 9.95312 5.83203 9.95312 7.44531V7.45215C9.95312 9.10645 10.8008 10.084 12.0312 10.084C13.002 10.084 13.624 9.53711 13.8223 8.74414L13.8359 8.68945H15.0049L14.998 8.7373C14.8066 10.0908 13.6377 11.1367 12.0312 11.1367ZM16.0986 11V3.89062H17.2881V5.09375H17.3154C17.5547 4.27344 18.1699 3.75391 18.9697 3.75391C19.1748 3.75391 19.3525 3.78809 19.4482 3.80176V4.95703C19.3525 4.92285 19.0996 4.88867 18.8125 4.88867C17.8896 4.88867 17.2881 5.53125 17.2881 6.61133V11H16.0986ZM23.0029 11.1367C20.959 11.1367 19.7285 9.70801 19.7285 7.47266V7.46582C19.7285 5.26465 20.9863 3.75391 22.9277 3.75391C24.8691 3.75391 26.0518 5.19629 26.0518 7.3291V7.7666H20.9316C20.959 9.22949 21.7656 10.084 23.0303 10.084C23.9326 10.084 24.5684 9.63281 24.7734 9.02441L24.7939 8.96289H25.9629L25.9492 9.03125C25.7168 10.207 24.5547 11.1367 23.0029 11.1367ZM22.9209 4.80664C21.8887 4.80664 21.082 5.51074 20.9521 6.83691H24.8418C24.7256 5.45605 23.96 4.80664 22.9209 4.80664ZM30.1807 11.1367C28.1367 11.1367 26.9062 9.70801 26.9062 7.47266V7.46582C26.9062 5.26465 28.1641 3.75391 30.1055 3.75391C32.0469 3.75391 33.2295 5.19629 33.2295 7.3291V7.7666H28.1094C28.1367 9.22949 28.9434 10.084 30.208 10.084C31.1104 10.084 31.7461 9.63281 31.9512 9.02441L31.9717 8.96289H33.1406L33.127 9.03125C32.8945 10.207 31.7324 11.1367 30.1807 11.1367ZM30.0986 4.80664C29.0664 4.80664 28.2598 5.51074 28.1299 6.83691H32.0195C31.9033 5.45605 31.1377 4.80664 30.0986 4.80664ZM34.4326 11V3.89062H35.6221V4.90234H35.6494C36.0322 4.23926 36.7568 3.75391 37.8369 3.75391C39.3955 3.75391 40.2979 4.76562 40.2979 6.38574V11H39.1084V6.59766C39.1084 5.44238 38.5684 4.80664 37.4746 4.80664C36.3535 4.80664 35.6221 5.60645 35.6221 6.81641V11H34.4326ZM47.209 11.1367C45.5342 11.1367 44.5225 10.2822 44.3789 9.01074L44.3721 8.94922H45.5615L45.5752 9.01758C45.7188 9.72852 46.2451 10.1455 47.2158 10.1455C48.1797 10.1455 48.7539 9.74219 48.7539 9.09961V9.09277C48.7539 8.58008 48.4873 8.29297 47.6807 8.09473L46.5527 7.82129C45.2129 7.5 44.5635 6.87793 44.5635 5.85254V5.8457C44.5635 4.62207 45.6367 3.75391 47.1748 3.75391C48.7334 3.75391 49.7246 4.66309 49.8135 5.85254L49.8203 5.94141H48.6855L48.6787 5.89355C48.583 5.20312 48.0566 4.74512 47.1748 4.74512C46.3135 4.74512 45.7803 5.16211 45.7803 5.79102V5.79785C45.7803 6.2832 46.1016 6.61816 46.8877 6.80957L48.0156 7.08301C49.4512 7.43164 49.9707 7.99902 49.9707 9.01074V9.01758C49.9707 10.2617 48.7949 11.1367 47.209 11.1367ZM51.8779 2.6875C51.4678 2.6875 51.1328 2.35254 51.1328 1.94238C51.1328 1.52539 51.4678 1.19727 51.8779 1.19727C52.2949 1.19727 52.623 1.52539 52.623 1.94238C52.623 2.35254 52.2949 2.6875 51.8779 2.6875ZM51.2832 11V3.89062H52.4727V11H51.2832ZM53.9424 11V10.1523L57.873 4.89551V4.875H53.9492V3.89062H59.2266V4.75879L55.3232 9.99512V10.0156H59.2471V11H53.9424ZM63.2939 11.1367C61.25 11.1367 60.0195 9.70801 60.0195 7.47266V7.46582C60.0195 5.26465 61.2773 3.75391 63.2188 3.75391C65.1602 3.75391 66.3428 5.19629 66.3428 7.3291V7.7666H61.2227C61.25 9.22949 62.0566 10.084 63.3213 10.084C64.2236 10.084 64.8594 9.63281 65.0645 9.02441L65.085 8.96289H66.2539L66.2402 9.03125C66.0078 10.207 64.8457 11.1367 63.2939 11.1367ZM63.2119 4.80664C62.1797 4.80664 61.373 5.51074 61.2432 6.83691H65.1328C65.0166 5.45605 64.251 4.80664 63.2119 4.80664Z" fill="#A7A7A7"/>
<path d="M4.47754 27.1641C2.46094 27.1641 0.601562 25.7627 0.601562 22.2148V22.2012C0.601562 18.9131 2.07129 16.9717 4.53906 16.9717C6.2959 16.9717 7.61523 17.9766 7.92969 19.4463L7.9502 19.5283H6.41211L6.3916 19.46C6.11133 18.7217 5.46875 18.2568 4.52539 18.2568C2.83008 18.2568 2.13965 19.8906 2.07812 21.8457C2.07129 21.9346 2.07129 22.0234 2.07129 22.1123H2.10547C2.49512 21.2236 3.49316 20.5264 4.83301 20.5264C6.71973 20.5264 8.08008 21.9004 8.08008 23.7666V23.7803C8.08008 25.749 6.55566 27.1641 4.47754 27.1641ZM2.37207 23.7871C2.37207 24.9561 3.28809 25.8789 4.45703 25.8789C5.62598 25.8789 6.55566 24.9697 6.55566 23.8213V23.8076C6.55566 22.6182 5.68066 21.7705 4.47754 21.7705C3.28125 21.7705 2.37207 22.6113 2.37207 23.7803V23.7871ZM10.3359 27.1025C9.83008 27.1025 9.43359 26.7061 9.43359 26.207C9.43359 25.7012 9.83008 25.3115 10.3359 25.3115C10.835 25.3115 11.2314 25.7012 11.2314 26.207C11.2314 26.7061 10.835 27.1025 10.3359 27.1025ZM12.8516 27L17.2334 18.4619V18.4277H12.0312V17.1357H18.7441V18.4619L14.458 27H12.8516ZM20.624 20.7451L20.4668 17.1357H21.834L21.6768 20.7451H20.624ZM22.8936 20.7451L22.7432 17.1357H24.1104L23.9531 20.7451H22.8936Z" fill="#4E4E4E"/>
</svg>
