<svg width="1120" height="48" viewBox="0 0 1120 48" fill="none" xmlns="http://www.w3.org/2000/svg">
<line y1="11.75" x2="548" y2="11.75" stroke="url(#paint0_linear_332_2064)" stroke-width="0.5" stroke-dasharray="3 3"/>
<path fill-rule="evenodd" clip-rule="evenodd" d="M572 12C572 18.6274 566.627 24 560 24C553.373 24 548 18.6274 548 12C548 5.37258 553.373 0 560 0C566.627 0 572 5.37258 572 12ZM560 18C559.448 18 559 17.5523 559 17V13H555C554.448 13 554 12.5523 554 12C554 11.4477 554.448 11 555 11H559V7C559 6.44771 559.448 6 560 6C560.552 6 561 6.44771 561 7V11H565C565.552 11 566 11.4477 566 12C566 12.5523 565.552 13 565 13H561V17C561 17.5523 560.552 18 560 18Z" fill="black"/>
<line x1="1120" y1="12.25" x2="572" y2="12.25" stroke="url(#paint1_linear_332_2064)" stroke-width="0.5" stroke-dasharray="3 3"/>
<path d="M506.739 45L510.409 35.1357H511.626L515.29 45H513.998L513 42.1768H509.029L508.031 45H506.739ZM511.004 36.6123L509.405 41.1309H512.631L511.031 36.6123H511.004ZM518.877 45.1367C517.058 45.1367 515.855 43.6875 515.855 41.4453V41.4385C515.855 39.1963 517.072 37.7539 518.856 37.7539C519.861 37.7539 520.688 38.2598 521.132 39.0801H521.16V35.1357H522.349V45H521.16V43.7969H521.132C520.688 44.624 519.895 45.1367 518.877 45.1367ZM519.109 44.084C520.312 44.084 521.167 43.0381 521.167 41.4453V41.4385C521.167 39.8525 520.305 38.8066 519.109 38.8066C517.851 38.8066 517.072 39.8184 517.072 41.4385V41.4453C517.072 43.0791 517.851 44.084 519.109 44.084ZM526.729 45.1367C524.91 45.1367 523.707 43.6875 523.707 41.4453V41.4385C523.707 39.1963 524.924 37.7539 526.708 37.7539C527.713 37.7539 528.54 38.2598 528.984 39.0801H529.012V35.1357H530.201V45H529.012V43.7969H528.984C528.54 44.624 527.747 45.1367 526.729 45.1367ZM526.961 44.084C528.164 44.084 529.019 43.0381 529.019 41.4453V41.4385C529.019 39.8525 528.157 38.8066 526.961 38.8066C525.703 38.8066 524.924 39.8184 524.924 41.4385V41.4453C524.924 43.0791 525.703 44.084 526.961 44.084ZM535.063 45V35.1357H536.26L541.687 42.9219H541.722V35.1357H542.938V45H541.742L536.314 37.2139H536.28V45H535.063ZM547.694 45.1367C545.65 45.1367 544.419 43.708 544.419 41.4727V41.4658C544.419 39.2646 545.677 37.7539 547.618 37.7539C549.56 37.7539 550.742 39.1963 550.742 41.3291V41.7666H545.622C545.65 43.2295 546.456 44.084 547.721 44.084C548.623 44.084 549.259 43.6328 549.464 43.0244L549.485 42.9629H550.654L550.64 43.0312C550.407 44.207 549.245 45.1367 547.694 45.1367ZM547.612 38.8066C546.579 38.8066 545.773 39.5107 545.643 40.8369H549.532C549.416 39.4561 548.651 38.8066 547.612 38.8066ZM553.454 45L551.464 37.8906H552.647L554.069 43.6738H554.096L555.703 37.8906H556.851L558.464 43.6738H558.492L559.914 37.8906H561.089L559.107 45H557.897L556.291 39.4971H556.263L554.664 45H553.454ZM564.537 45L568.207 35.1357H569.424L573.088 45H571.796L570.798 42.1768H566.827L565.829 45H564.537ZM568.802 36.6123L567.203 41.1309H570.429L568.83 36.6123H568.802ZM576.675 45.1367C574.856 45.1367 573.653 43.6875 573.653 41.4453V41.4385C573.653 39.1963 574.87 37.7539 576.654 37.7539C577.659 37.7539 578.486 38.2598 578.931 39.0801H578.958V35.1357H580.147V45H578.958V43.7969H578.931C578.486 44.624 577.693 45.1367 576.675 45.1367ZM576.907 44.084C578.11 44.084 578.965 43.0381 578.965 41.4453V41.4385C578.965 39.8525 578.103 38.8066 576.907 38.8066C575.649 38.8066 574.87 39.8184 574.87 41.4385V41.4453C574.87 43.0791 575.649 44.084 576.907 44.084ZM584.527 45.1367C582.708 45.1367 581.505 43.6875 581.505 41.4453V41.4385C581.505 39.1963 582.722 37.7539 584.506 37.7539C585.511 37.7539 586.338 38.2598 586.782 39.0801H586.81V35.1357H587.999V45H586.81V43.7969H586.782C586.338 44.624 585.545 45.1367 584.527 45.1367ZM584.759 44.084C585.962 44.084 586.817 43.0381 586.817 41.4453V41.4385C586.817 39.8525 585.955 38.8066 584.759 38.8066C583.501 38.8066 582.722 39.8184 582.722 41.4385V41.4453C582.722 43.0791 583.501 44.084 584.759 44.084ZM589.706 45V37.8906H590.895V39.0938H590.923C591.162 38.2734 591.777 37.7539 592.577 37.7539C592.782 37.7539 592.96 37.7881 593.055 37.8018V38.957C592.96 38.9229 592.707 38.8887 592.42 38.8887C591.497 38.8887 590.895 39.5312 590.895 40.6113V45H589.706ZM596.71 45.1367C594.666 45.1367 593.436 43.708 593.436 41.4727V41.4658C593.436 39.2646 594.693 37.7539 596.635 37.7539C598.576 37.7539 599.759 39.1963 599.759 41.3291V41.7666H594.639C594.666 43.2295 595.473 44.084 596.737 44.084C597.64 44.084 598.275 43.6328 598.481 43.0244L598.501 42.9629H599.67L599.656 43.0312C599.424 44.207 598.262 45.1367 596.71 45.1367ZM596.628 38.8066C595.596 38.8066 594.789 39.5107 594.659 40.8369H598.549C598.433 39.4561 597.667 38.8066 596.628 38.8066ZM603.584 45.1367C601.91 45.1367 600.898 44.2822 600.754 43.0107L600.748 42.9492H601.937L601.951 43.0176C602.094 43.7285 602.621 44.1455 603.591 44.1455C604.555 44.1455 605.129 43.7422 605.129 43.0996V43.0928C605.129 42.5801 604.863 42.293 604.056 42.0947L602.928 41.8213C601.588 41.5 600.939 40.8779 600.939 39.8525V39.8457C600.939 38.6221 602.012 37.7539 603.55 37.7539C605.109 37.7539 606.1 38.6631 606.189 39.8525L606.196 39.9414H605.061L605.054 39.8936C604.958 39.2031 604.432 38.7451 603.55 38.7451C602.689 38.7451 602.156 39.1621 602.156 39.791V39.7979C602.156 40.2832 602.477 40.6182 603.263 40.8096L604.391 41.083C605.827 41.4316 606.346 41.999 606.346 43.0107V43.0176C606.346 44.2617 605.17 45.1367 603.584 45.1367ZM610.206 45.1367C608.531 45.1367 607.519 44.2822 607.376 43.0107L607.369 42.9492H608.558L608.572 43.0176C608.716 43.7285 609.242 44.1455 610.213 44.1455C611.177 44.1455 611.751 43.7422 611.751 43.0996V43.0928C611.751 42.5801 611.484 42.293 610.678 42.0947L609.55 41.8213C608.21 41.5 607.56 40.8779 607.56 39.8525V39.8457C607.56 38.6221 608.634 37.7539 610.172 37.7539C611.73 37.7539 612.722 38.6631 612.81 39.8525L612.817 39.9414H611.682L611.676 39.8936C611.58 39.2031 611.054 38.7451 610.172 38.7451C609.31 38.7451 608.777 39.1621 608.777 39.791V39.7979C608.777 40.2832 609.098 40.6182 609.885 40.8096L611.013 41.083C612.448 41.4316 612.968 41.999 612.968 43.0107V43.0176C612.968 44.2617 611.792 45.1367 610.206 45.1367Z" fill="black"/>
<defs>
<linearGradient id="paint0_linear_332_2064" x1="555.117" y1="12" x2="0" y2="12" gradientUnits="userSpaceOnUse">
<stop/>
<stop offset="1" stop-color="#E6E6E6"/>
</linearGradient>
<linearGradient id="paint1_linear_332_2064" x1="564.883" y1="12" x2="1120" y2="12" gradientUnits="userSpaceOnUse">
<stop/>
<stop offset="1" stop-color="#E6E6E6"/>
</linearGradient>
</defs>
</svg>
