<svg width="208" height="48" viewBox="0 0 208 48" fill="none" xmlns="http://www.w3.org/2000/svg">
<rect x="0.5" y="0.5" width="207" height="47" rx="7.5" stroke="#545454"/>
<path d="M59.8496 29L56.3359 19.1357H57.9834L60.6768 27.2979H60.7109L63.4043 19.1357H65.0518L61.5381 29H59.8496ZM66.5898 20.7012C66.1113 20.7012 65.7285 20.3184 65.7285 19.8535C65.7285 19.3818 66.1113 18.999 66.5898 18.999C67.0752 18.999 67.4512 19.3818 67.4512 19.8535C67.4512 20.3184 67.0752 20.7012 66.5898 20.7012ZM65.8516 29V21.8086H67.3281V29H65.8516ZM71.9219 29.1436C69.8096 29.1436 68.5312 27.7012 68.5312 25.4316V25.4248C68.5312 23.1758 69.8301 21.6719 71.8467 21.6719C73.8633 21.6719 75.1006 23.1211 75.1006 25.2812V25.7803H70.0078C70.0352 27.1406 70.7803 27.9336 71.9561 27.9336C72.8311 27.9336 73.4121 27.4824 73.5967 26.9424L73.6172 26.8877H75.0186L75.0049 26.9629C74.7725 28.1045 73.665 29.1436 71.9219 29.1436ZM71.8535 22.8818C70.8965 22.8818 70.1582 23.5312 70.0283 24.7344H73.6377C73.5146 23.4902 72.8174 22.8818 71.8535 22.8818ZM77.6504 29L75.6748 21.8086H77.1514L78.4639 27.4688H78.4912L79.9883 21.8086H81.4102L82.9141 27.4688H82.9482L84.2607 21.8086H85.7236L83.7549 29H82.2168L80.7061 23.6133H80.6719L79.1748 29H77.6504ZM89.6475 29V19.1357H91.418L94.6104 27.0107H94.6514L97.8506 19.1357H99.6143V29H98.2197V21.7197H98.1719L95.1982 29H94.0635L91.0898 21.7197H91.042V29H89.6475ZM104.345 29.1436C102.28 29.1436 100.934 27.7148 100.934 25.4043V25.3906C100.934 23.0938 102.294 21.6719 104.338 21.6719C106.389 21.6719 107.756 23.0869 107.756 25.3906V25.4043C107.756 27.7217 106.402 29.1436 104.345 29.1436ZM104.352 27.9062C105.507 27.9062 106.245 26.9902 106.245 25.4043V25.3906C106.245 23.8184 105.493 22.9092 104.338 22.9092C103.203 22.9092 102.444 23.8184 102.444 25.3906V25.4043C102.444 26.9971 103.196 27.9062 104.352 27.9062ZM108.897 29V21.8086H110.374V23.0391H110.408C110.641 22.1982 111.242 21.6719 112.062 21.6719C112.274 21.6719 112.459 21.7061 112.575 21.7266V23.1006C112.459 23.0527 112.199 23.0186 111.912 23.0186C110.962 23.0186 110.374 23.6406 110.374 24.7139V29H108.897ZM116.246 29.1436C114.134 29.1436 112.855 27.7012 112.855 25.4316V25.4248C112.855 23.1758 114.154 21.6719 116.171 21.6719C118.188 21.6719 119.425 23.1211 119.425 25.2812V25.7803H114.332C114.359 27.1406 115.104 27.9336 116.28 27.9336C117.155 27.9336 117.736 27.4824 117.921 26.9424L117.941 26.8877H119.343L119.329 26.9629C119.097 28.1045 117.989 29.1436 116.246 29.1436ZM116.178 22.8818C115.221 22.8818 114.482 23.5312 114.353 24.7344H117.962C117.839 23.4902 117.142 22.8818 116.178 22.8818Z" fill="black"/>
<path d="M146 21L140 27L134 21" stroke="black" stroke-width="1.5" stroke-linecap="round"/>
</svg>
