<svg width="71" height="38" viewBox="0 0 71 38" fill="none" xmlns="http://www.w3.org/2000/svg">
<path d="M9.07294 6.89844C9.07294 9.57129 7.49384 11.1641 4.82098 11.1641C1.99774 11.1641 0.220398 9.18848 0.220398 6.02344C0.220398 2.91309 1.99091 0.97168 4.80048 0.97168C6.99481 0.97168 8.65594 2.27051 8.99774 4.23926H7.42548C7.05634 3.01562 6.09247 2.31152 4.80731 2.31152C2.92059 2.31152 1.78583 3.69238 1.78583 6.00977C1.78583 8.36816 2.95477 9.82422 4.83466 9.82422C6.43427 9.82422 7.54169 8.79883 7.56219 7.30176V7.13086H5.01239V5.89355H9.07294V6.89844ZM16.5583 3.80859V11H15.1432V9.7832H15.1091C14.7126 10.6445 13.9811 11.1299 12.8806 11.1299C11.3151 11.1299 10.3581 10.1113 10.3581 8.46387V3.80859H11.8347V8.17676C11.8347 9.27051 12.3542 9.8584 13.3727 9.8584C14.4391 9.8584 15.0817 9.12012 15.0817 7.99902V3.80859H16.5583ZM20.5368 9.9541C21.569 9.9541 22.3757 9.24316 22.3757 8.30664V7.73926L20.6052 7.84863C19.7233 7.91016 19.2243 8.2998 19.2243 8.91504C19.2243 9.54395 19.7438 9.9541 20.5368 9.9541ZM20.1266 11.123C18.7184 11.123 17.7341 10.248 17.7341 8.95605C17.7341 7.69824 18.6979 6.92578 20.4069 6.83008L22.3757 6.71387V6.16016C22.3757 5.36035 21.8356 4.88184 20.9333 4.88184C20.0788 4.88184 19.5456 5.29199 19.4157 5.93457H18.0212C18.1032 4.63574 19.2106 3.67871 20.988 3.67871C22.7311 3.67871 23.8454 4.60156 23.8454 6.04395V11H22.4304V9.81738H22.3962C21.9792 10.6172 21.07 11.123 20.1266 11.123ZM25.2809 11V3.80859H26.6891V5.03223H26.7233C26.9626 4.19141 27.6052 3.69238 28.4528 3.69238C28.6647 3.69238 28.8493 3.72656 28.9587 3.74707V5.12109C28.8425 5.07324 28.5827 5.03906 28.2956 5.03906C27.3454 5.03906 26.7575 5.6748 26.7575 6.69336V11H25.2809ZM32.2399 9.9541C33.2722 9.9541 34.0788 9.24316 34.0788 8.30664V7.73926L32.3083 7.84863C31.4265 7.91016 30.9274 8.2998 30.9274 8.91504C30.9274 9.54395 31.447 9.9541 32.2399 9.9541ZM31.8298 11.123C30.4216 11.123 29.4372 10.248 29.4372 8.95605C29.4372 7.69824 30.4011 6.92578 32.11 6.83008L34.0788 6.71387V6.16016C34.0788 5.36035 33.5388 4.88184 32.6364 4.88184C31.7819 4.88184 31.2487 5.29199 31.1188 5.93457H29.7243C29.8063 4.63574 30.9138 3.67871 32.6911 3.67871C34.4343 3.67871 35.5485 4.60156 35.5485 6.04395V11H34.1335V9.81738H34.0993C33.6823 10.6172 32.7731 11.123 31.8298 11.123ZM36.9841 11V3.80859H38.3923V5.01172H38.4265C38.8161 4.19141 39.5817 3.68555 40.6891 3.68555C42.2751 3.68555 43.1843 4.69727 43.1843 6.34473V11H41.7009V6.63184C41.7009 5.55176 41.195 4.95703 40.1696 4.95703C39.1306 4.95703 38.4606 5.69531 38.4606 6.80957V11H36.9841ZM45.0436 2.10645H46.527V3.80859H47.8942V4.97754H46.527V8.94238C46.527 9.56445 46.8005 9.84473 47.402 9.84473C47.5524 9.84473 47.7917 9.83105 47.8874 9.81055V10.9795C47.7233 11.0205 47.3952 11.0479 47.0671 11.0479C45.611 11.0479 45.0436 10.4941 45.0436 9.10645V4.97754H43.9977V3.80859H45.0436V2.10645ZM51.9411 4.86816C50.9089 4.86816 50.1843 5.6543 50.1091 6.74121H53.7048C53.6706 5.64062 52.9733 4.86816 51.9411 4.86816ZM53.6979 8.8877H55.0993C54.8942 10.2002 53.6501 11.1367 52.0026 11.1367C49.8903 11.1367 48.612 9.70801 48.612 7.43848C48.612 5.18262 49.9108 3.67871 51.9411 3.67871C53.9372 3.67871 55.1813 5.08691 55.1813 7.26758V7.77344H50.1022V7.8623C50.1022 9.11328 50.8542 9.94043 52.0368 9.94043C52.8776 9.94043 53.4997 9.5166 53.6979 8.8877ZM59.3376 4.86816C58.3054 4.86816 57.5807 5.6543 57.5056 6.74121H61.1013C61.0671 5.64062 60.3698 4.86816 59.3376 4.86816ZM61.0944 8.8877H62.4958C62.2907 10.2002 61.0466 11.1367 59.3991 11.1367C57.2868 11.1367 56.0085 9.70801 56.0085 7.43848C56.0085 5.18262 57.3073 3.67871 59.3376 3.67871C61.3337 3.67871 62.5778 5.08691 62.5778 7.26758V7.77344H57.4987V7.8623C57.4987 9.11328 58.2507 9.94043 59.4333 9.94043C60.2741 9.94043 60.8962 9.5166 61.0944 8.8877ZM66.4265 11.123C64.6081 11.123 63.405 9.67383 63.405 7.4043C63.405 5.13477 64.6081 3.69238 66.4128 3.69238C67.445 3.69238 68.2653 4.21191 68.6686 5.00488H68.696V1.13574H70.1794V11H68.7438V9.77637H68.7165C68.2927 10.5967 67.4724 11.123 66.4265 11.123ZM66.8161 4.93652C65.6472 4.93652 64.9157 5.89355 64.9157 7.4043C64.9157 8.92188 65.6472 9.87207 66.8161 9.87207C67.9509 9.87207 68.7097 8.9082 68.7097 7.4043C68.7097 5.91406 67.9509 4.93652 66.8161 4.93652Z" fill="#717171"/>
<path d="M2.92743 35V26.6533H2.89325L0.316101 28.4854V26.9814L2.91376 25.1357H4.4245V35H2.92743ZM10.3513 37.6797C10.235 37.6797 9.85907 37.666 9.74969 37.6455V36.4492C9.85907 36.4766 10.1052 36.4766 10.2282 36.4766C10.9186 36.4766 11.2809 36.1895 11.5065 35.4512C11.5065 35.4375 11.6364 35.0137 11.6364 35.0068L9.03876 27.8086H10.6384L12.4636 33.6602H12.4841L14.3093 27.8086H15.8679L13.1677 35.376C12.5524 37.1191 11.8483 37.6797 10.3513 37.6797ZM19.5388 28.8682C18.5065 28.8682 17.7819 29.6543 17.7067 30.7412H21.3024C21.2682 29.6406 20.571 28.8682 19.5388 28.8682ZM21.2956 32.8877H22.697C22.4919 34.2002 21.2477 35.1367 19.6003 35.1367C17.488 35.1367 16.2097 33.708 16.2097 31.4385C16.2097 29.1826 17.5085 27.6787 19.5388 27.6787C21.5349 27.6787 22.779 29.0869 22.779 31.2676V31.7734H17.6999V31.8623C17.6999 33.1133 18.4518 33.9404 19.6345 33.9404C20.4753 33.9404 21.0974 33.5166 21.2956 32.8877ZM26.4431 33.9541C27.4753 33.9541 28.2819 33.2432 28.2819 32.3066V31.7393L26.5114 31.8486C25.6296 31.9102 25.1306 32.2998 25.1306 32.915C25.1306 33.5439 25.6501 33.9541 26.4431 33.9541ZM26.0329 35.123C24.6247 35.123 23.6403 34.248 23.6403 32.9561C23.6403 31.6982 24.6042 30.9258 26.3132 30.8301L28.2819 30.7139V30.1602C28.2819 29.3604 27.7419 28.8818 26.8395 28.8818C25.985 28.8818 25.4518 29.292 25.322 29.9346H23.9274C24.0095 28.6357 25.1169 27.6787 26.8942 27.6787C28.6374 27.6787 29.7516 28.6016 29.7516 30.0439V35H28.3366V33.8174H28.3024C27.8854 34.6172 26.9763 35.123 26.0329 35.123ZM31.1872 35V27.8086H32.5954V29.0322H32.6296C32.8688 28.1914 33.5114 27.6924 34.3591 27.6924C34.571 27.6924 34.7556 27.7266 34.8649 27.7471V29.1211C34.7487 29.0732 34.489 29.0391 34.2018 29.0391C33.2516 29.0391 32.6638 29.6748 32.6638 30.6934V35H31.1872Z" fill="black"/>
</svg>
