<svg width="168" height="64" viewBox="0 0 168 64" fill="none" xmlns="http://www.w3.org/2000/svg">
<rect width="168" height="64" rx="7" fill="#F4F4F4"/>
<path fill-rule="evenodd" clip-rule="evenodd" d="M25.7778 41H30.2222C33.3433 41 34.9038 41 36.0248 40.2646C36.51 39.9462 36.9267 39.5371 37.251 39.0607C38 37.9601 38 36.4279 38 33.3636C38 30.2994 38 28.7672 37.251 27.6666C36.9267 27.1901 36.51 26.781 36.0248 26.4627C35.3044 25.9901 34.4027 25.8212 33.022 25.7609C32.3631 25.7609 31.7959 25.2707 31.6667 24.6364C31.4728 23.6849 30.6219 23 29.6337 23H26.3663C25.378 23 24.5271 23.6849 24.3333 24.6364C24.2041 25.2707 23.6368 25.7609 22.978 25.7609C21.5973 25.8212 20.6955 25.9901 19.9752 26.4627C19.4899 26.781 19.0733 27.1901 18.749 27.6666C18 28.7672 18 30.2994 18 33.3636C18 36.4279 18 37.9601 18.749 39.0607C19.0733 39.5371 19.4899 39.9462 19.9752 40.2646C21.0962 41 22.6567 41 25.7778 41ZM28 29.2727C25.6988 29.2727 23.8333 31.1043 23.8333 33.3636C23.8333 35.623 25.6988 37.4545 28 37.4545C30.3012 37.4545 32.1667 35.623 32.1667 33.3636C32.1667 31.1043 30.3012 29.2727 28 29.2727ZM28 30.9091C26.6193 30.9091 25.5 32.008 25.5 33.3636C25.5 34.7192 26.6193 35.8182 28 35.8182C29.3807 35.8182 30.5 34.7192 30.5 33.3636C30.5 32.008 29.3807 30.9091 28 30.9091ZM32.7222 30.0909C32.7222 29.639 33.0953 29.2727 33.5556 29.2727H34.6667C35.1269 29.2727 35.5 29.639 35.5 30.0909C35.5 30.5428 35.1269 30.9091 34.6667 30.9091H33.5556C33.0953 30.9091 32.7222 30.5428 32.7222 30.0909Z" fill="#4E4E4E"/>
<path d="M48.957 29V19.1357H50.3789L53.7969 27.4482H53.8379L57.2559 19.1357H58.6777V29H57.5293V21.3779H57.4883L54.3369 29H53.2979L50.1465 21.3779H50.1055V29H48.957ZM62.2803 29.1367C60.8652 29.1367 59.915 28.2822 59.915 26.9902V26.9766C59.915 25.7666 60.8584 25.0078 62.4922 24.9121L64.5293 24.7959V24.2012C64.5293 23.333 63.9619 22.8066 62.9707 22.8066C62.0547 22.8066 61.4805 23.2441 61.3438 23.8799L61.3301 23.9414H60.1816L60.1885 23.8662C60.291 22.6973 61.3096 21.7539 62.9844 21.7539C64.666 21.7539 65.7188 22.6631 65.7188 24.085V29H64.5293V27.8447H64.502C64.085 28.624 63.2305 29.1367 62.2803 29.1367ZM61.1318 26.9902C61.1318 27.6738 61.6924 28.1045 62.5469 28.1045C63.668 28.1045 64.5293 27.332 64.5293 26.2998V25.7188L62.6289 25.835C61.6787 25.8896 61.1318 26.3135 61.1318 26.9766V26.9902ZM67.8994 20.6875C67.4893 20.6875 67.1543 20.3525 67.1543 19.9424C67.1543 19.5254 67.4893 19.1973 67.8994 19.1973C68.3164 19.1973 68.6445 19.5254 68.6445 19.9424C68.6445 20.3525 68.3164 20.6875 67.8994 20.6875ZM67.3047 29V21.8906H68.4941V29H67.3047ZM70.1143 29V21.8906H71.3037V22.9023H71.3311C71.7139 22.2393 72.4385 21.7539 73.5186 21.7539C75.0771 21.7539 75.9795 22.7656 75.9795 24.3857V29H74.79V24.5977C74.79 23.4424 74.25 22.8066 73.1562 22.8066C72.0352 22.8066 71.3037 23.6064 71.3037 24.8164V29H70.1143ZM83.3145 29.1367C81.2979 29.1367 80.0195 27.7012 80.0195 25.4385V25.4316C80.0195 23.1895 81.3252 21.7539 83.3008 21.7539C85.0713 21.7539 86.1172 22.9297 86.2676 24.1465L86.2744 24.2012H85.1123L85.0986 24.1465C84.9209 23.4355 84.3467 22.8066 83.3008 22.8066C82.0635 22.8066 81.2363 23.832 81.2363 25.4453V25.4521C81.2363 27.1064 82.084 28.084 83.3145 28.084C84.2852 28.084 84.9072 27.5371 85.1055 26.7441L85.1191 26.6895H86.2881L86.2812 26.7373C86.0898 28.0908 84.9209 29.1367 83.3145 29.1367ZM89.46 29.1367C88.0449 29.1367 87.0947 28.2822 87.0947 26.9902V26.9766C87.0947 25.7666 88.0381 25.0078 89.6719 24.9121L91.709 24.7959V24.2012C91.709 23.333 91.1416 22.8066 90.1504 22.8066C89.2344 22.8066 88.6602 23.2441 88.5234 23.8799L88.5098 23.9414H87.3613L87.3682 23.8662C87.4707 22.6973 88.4893 21.7539 90.1641 21.7539C91.8457 21.7539 92.8984 22.6631 92.8984 24.085V29H91.709V27.8447H91.6816C91.2646 28.624 90.4102 29.1367 89.46 29.1367ZM88.3115 26.9902C88.3115 27.6738 88.8721 28.1045 89.7266 28.1045C90.8477 28.1045 91.709 27.332 91.709 26.2998V25.7188L89.8086 25.835C88.8584 25.8896 88.3115 26.3135 88.3115 26.9766V26.9902ZM94.4092 29V21.8906H95.5986V22.9297H95.626C95.9473 22.2256 96.6582 21.7539 97.5742 21.7539C98.5449 21.7539 99.2627 22.2529 99.5703 23.1211H99.5977C99.9941 22.2666 100.828 21.7539 101.826 21.7539C103.234 21.7539 104.144 22.6768 104.144 24.0918V29H102.954V24.3652C102.954 23.3877 102.414 22.8066 101.478 22.8066C100.534 22.8066 99.8711 23.5107 99.8711 24.4814V29H98.6816V24.2354C98.6816 23.374 98.1074 22.8066 97.2256 22.8066C96.2822 22.8066 95.5986 23.5518 95.5986 24.543V29H94.4092ZM108.587 29.1367C106.543 29.1367 105.312 27.708 105.312 25.4727V25.4658C105.312 23.2646 106.57 21.7539 108.512 21.7539C110.453 21.7539 111.636 23.1963 111.636 25.3291V25.7666H106.516C106.543 27.2295 107.35 28.084 108.614 28.084C109.517 28.084 110.152 27.6328 110.357 27.0244L110.378 26.9629H111.547L111.533 27.0312C111.301 28.207 110.139 29.1367 108.587 29.1367ZM108.505 22.8066C107.473 22.8066 106.666 23.5107 106.536 24.8369H110.426C110.31 23.4561 109.544 22.8066 108.505 22.8066ZM112.839 29V21.8906H114.028V23.0938H114.056C114.295 22.2734 114.91 21.7539 115.71 21.7539C115.915 21.7539 116.093 21.7881 116.188 21.8018V22.957C116.093 22.9229 115.84 22.8887 115.553 22.8887C114.63 22.8887 114.028 23.5312 114.028 24.6113V29H112.839ZM119.101 29.1367C117.686 29.1367 116.735 28.2822 116.735 26.9902V26.9766C116.735 25.7666 117.679 25.0078 119.312 24.9121L121.35 24.7959V24.2012C121.35 23.333 120.782 22.8066 119.791 22.8066C118.875 22.8066 118.301 23.2441 118.164 23.8799L118.15 23.9414H117.002L117.009 23.8662C117.111 22.6973 118.13 21.7539 119.805 21.7539C121.486 21.7539 122.539 22.6631 122.539 24.085V29H121.35V27.8447H121.322C120.905 28.624 120.051 29.1367 119.101 29.1367ZM117.952 26.9902C117.952 27.6738 118.513 28.1045 119.367 28.1045C120.488 28.1045 121.35 27.332 121.35 26.2998V25.7188L119.449 25.835C118.499 25.8896 117.952 26.3135 117.952 26.9766V26.9902Z" fill="#C4C4C4"/>
<path d="M53.4551 45V43.0381H48.5195V41.7051L52.71 35.1357H54.9248V41.7529H56.2852V43.0381H54.9248V45H53.4551ZM49.9414 41.7734H53.4688V36.3457H53.4277L49.9414 41.7324V41.7734ZM61.002 45.1641C58.8213 45.1641 57.2764 43.9951 57.2764 42.3271V42.3135C57.2764 41.0693 58.1719 40.085 59.457 39.8047V39.7705C58.3564 39.4561 57.6387 38.6357 57.6387 37.5898V37.5762C57.6387 36.0723 59.04 34.9717 61.002 34.9717C62.9639 34.9717 64.3721 36.0723 64.3721 37.5762V37.5898C64.3721 38.6357 63.6543 39.4561 62.5537 39.7705V39.8047C63.8389 40.085 64.7275 41.0693 64.7275 42.3135V42.3271C64.7275 43.9951 63.1895 45.1641 61.002 45.1641ZM61.002 39.2578C62.1025 39.2578 62.8545 38.6221 62.8545 37.7266V37.7129C62.8545 36.8105 62.0957 36.1816 61.002 36.1816C59.9082 36.1816 59.1562 36.8105 59.1562 37.7129V37.7266C59.1562 38.6221 59.9082 39.2578 61.002 39.2578ZM61.002 43.9404C62.2598 43.9404 63.1553 43.2227 63.1553 42.2246V42.2109C63.1553 41.2061 62.2666 40.4814 61.002 40.4814C59.7373 40.4814 58.8486 41.2061 58.8486 42.2109V42.2246C58.8486 43.2227 59.7441 43.9404 61.002 43.9404ZM66.1562 41.6641V40.3311H70.5518V41.6641H66.1562ZM74.2705 45V36.6533H74.2363L71.6592 38.4307V36.9814L74.2568 35.1357H75.7676V45H74.2705ZM78.1738 45V43.9473L81.6465 40.4541C82.959 39.1416 83.2529 38.6221 83.2529 37.8564V37.8428C83.2461 36.9062 82.5352 36.2363 81.5371 36.2363C80.3818 36.2363 79.5547 37.0156 79.541 38.0137V38.0547H78.0918V38.0137C78.0918 36.25 79.5889 34.9717 81.5166 34.9717C83.4102 34.9717 84.7637 36.1611 84.7637 37.7539V37.7676C84.7637 38.8955 84.2373 39.6953 82.4668 41.4453L80.2246 43.6465V43.708H84.9209V45H78.1738ZM89.1934 41.6641V40.3311H93.5889V41.6641H89.1934ZM97.3076 45V36.6533H97.2734L94.6963 38.4307V36.9814L97.2939 35.1357H98.8047V45H97.3076ZM101.211 45V43.9473L104.684 40.4541C105.996 39.1416 106.29 38.6221 106.29 37.8564V37.8428C106.283 36.9062 105.572 36.2363 104.574 36.2363C103.419 36.2363 102.592 37.0156 102.578 38.0137V38.0547H101.129V38.0137C101.129 36.25 102.626 34.9717 104.554 34.9717C106.447 34.9717 107.801 36.1611 107.801 37.7539V37.7676C107.801 38.8955 107.274 39.6953 105.504 41.4453L103.262 43.6465V43.708H107.958V45H101.211ZM112.306 45V35.1357H114.076L117.269 43.0107H117.31L120.509 35.1357H122.272V45H120.878V37.7197H120.83L117.856 45H116.722L113.748 37.7197H113.7V45H112.306ZM124.091 45V35.1357H127.762C129.696 35.1357 131.036 36.4346 131.036 38.3691V38.3828C131.036 40.3105 129.696 41.6299 127.762 41.6299H125.622V45H124.091ZM127.379 36.4277H125.622V40.3447H127.379C128.712 40.3447 129.478 39.627 129.478 38.3896V38.376C129.478 37.1455 128.712 36.4277 127.379 36.4277Z" fill="#4E4E4E"/>
</svg>
