<svg width="876" height="18" viewBox="0 0 876 18" fill="none" xmlns="http://www.w3.org/2000/svg">
<path d="M0.228516 14L4.84277 1.31738H6.96973L11.5752 14H9.50977L8.34961 10.5723H3.46289L2.29395 14H0.228516ZM5.88867 3.41797L3.99023 8.99023H7.81348L5.92383 3.41797H5.88867ZM14.5371 14L11.2061 4.75391H13.2275L15.5479 12.1455H15.5918L17.9121 4.75391H19.8896L16.5762 14H14.5371ZM24.5742 14.1846C21.8584 14.1846 20.2148 12.3301 20.2148 9.41211V9.40332C20.2148 6.51172 21.8848 4.57812 24.4775 4.57812C27.0703 4.57812 28.6611 6.44141 28.6611 9.21875V9.86035H22.1133C22.1484 11.6094 23.1064 12.6289 24.6182 12.6289C25.7432 12.6289 26.4902 12.0488 26.7275 11.3545L26.7539 11.2842H28.5557L28.5381 11.3809C28.2393 12.8486 26.8154 14.1846 24.5742 14.1846ZM24.4863 6.13379C23.2559 6.13379 22.3066 6.96875 22.1396 8.51562H26.7803C26.6221 6.91602 25.7256 6.13379 24.4863 6.13379ZM30.1377 14V4.75391H32.0361V6.33594H32.0801C32.3789 5.25488 33.1523 4.57812 34.207 4.57812C34.4795 4.57812 34.7168 4.62207 34.8662 4.64844V6.41504C34.7168 6.35352 34.3828 6.30957 34.0137 6.30957C32.792 6.30957 32.0361 7.10938 32.0361 8.48926V14H30.1377ZM38.5664 14.167C36.7207 14.167 35.4814 13.0332 35.4814 11.3721V11.3545C35.4814 9.74609 36.7295 8.76172 38.918 8.62988L41.4316 8.48047V7.78613C41.4316 6.7666 40.7725 6.15137 39.5947 6.15137C38.4961 6.15137 37.8193 6.66992 37.6611 7.4082L37.6436 7.4873H35.8506L35.8594 7.39062C35.9912 5.7998 37.3711 4.57812 39.6475 4.57812C41.9062 4.57812 43.3389 5.77344 43.3389 7.62793V14H41.4316V12.541H41.3965C40.8604 13.5342 39.7881 14.167 38.5664 14.167ZM37.3975 11.3281C37.3975 12.1367 38.0654 12.6465 39.085 12.6465C40.4209 12.6465 41.4316 11.7412 41.4316 10.5371V9.81641L39.1729 9.95703C38.0303 10.0273 37.3975 10.5283 37.3975 11.3105V11.3281ZM49.2363 17.2607C46.8633 17.2607 45.3604 16.1621 45.0791 14.7471L45.0703 14.668H46.9512L46.9863 14.7383C47.2412 15.3271 48.041 15.7314 49.2275 15.7314C50.7393 15.7314 51.5742 14.9229 51.5742 13.6309V12.3652H51.5303C51.0029 13.3672 49.9482 14.0088 48.6211 14.0088C46.3008 14.0088 44.7715 12.1895 44.7715 9.30664V9.29785C44.7715 6.39746 46.3184 4.57812 48.665 4.57812C49.9658 4.57812 50.9854 5.28125 51.5303 6.32715H51.5742V4.75391H53.4814V13.7451C53.4814 15.8545 51.8467 17.2607 49.2363 17.2607ZM49.1572 12.4619C50.6074 12.4619 51.5742 11.2402 51.5742 9.33301V9.32422C51.5742 7.42578 50.5986 6.2041 49.1572 6.2041C47.6543 6.2041 46.7139 7.41699 46.7139 9.32422V9.33301C46.7139 11.2666 47.6543 12.4619 49.1572 12.4619ZM59.3086 14.1846C56.5928 14.1846 54.9492 12.3301 54.9492 9.41211V9.40332C54.9492 6.51172 56.6191 4.57812 59.2119 4.57812C61.8047 4.57812 63.3955 6.44141 63.3955 9.21875V9.86035H56.8477C56.8828 11.6094 57.8408 12.6289 59.3525 12.6289C60.4775 12.6289 61.2246 12.0488 61.4619 11.3545L61.4883 11.2842H63.29L63.2725 11.3809C62.9736 12.8486 61.5498 14.1846 59.3086 14.1846ZM59.2207 6.13379C57.9902 6.13379 57.041 6.96875 56.874 8.51562H61.5146C61.3564 6.91602 60.46 6.13379 59.2207 6.13379Z" fill="black"/>
<g clip-path="url(#clip0_320_1841)">
<rect width="356.5" height="5" rx="2.5" transform="matrix(-1 0 0 1 840 5.5)" fill="#D9D9D9"/>
<rect width="356.5" height="5" rx="2.5" transform="matrix(-1 0 0 1 488.5 5.5)" fill="#FFB547"/>
</g>
<path opacity="0.4" d="M871.125 14.1875C868.719 14.1875 867.148 12.875 866.992 11.0391L866.984 10.9375H868.664L868.672 11.0234C868.781 12.0234 869.727 12.7266 871.125 12.7266C872.5 12.7266 873.43 11.9609 873.43 10.8672V10.8516C873.43 9.57812 872.508 8.86719 871 8.86719H869.633V7.50781H870.953C872.242 7.50781 873.117 6.75 873.117 5.70312V5.6875C873.117 4.60156 872.383 3.96875 871.109 3.96875C869.859 3.96875 868.984 4.625 868.875 5.67188L868.867 5.74219H867.227L867.234 5.66406C867.406 3.78125 868.906 2.53906 871.109 2.53906C873.352 2.53906 874.82 3.72656 874.82 5.46094V5.47656C874.82 6.875 873.82 7.8125 872.445 8.10156V8.14062C874.102 8.28906 875.211 9.28906 875.211 10.8672V10.8828C875.211 12.8125 873.516 14.1875 871.125 14.1875Z" fill="black"/>
<defs>
<clipPath id="clip0_320_1841">
<rect width="708" height="5" fill="white" transform="matrix(-1 0 0 1 840 5.5)"/>
</clipPath>
</defs>
</svg>
