<svg width="168" height="64" viewBox="0 0 168 64" fill="none" xmlns="http://www.w3.org/2000/svg">
<rect width="168" height="64" rx="7" fill="#F4F4F4"/>
<g clip-path="url(#clip0_366_3917)">
<path fill-rule="evenodd" clip-rule="evenodd" d="M22.6075 23.2503C21.7646 24.0932 21.7646 25.4498 21.7646 28.163L21.7646 35.8371C21.7646 38.5504 21.7646 39.907 22.6075 40.7499C23.4504 41.5928 24.807 41.5928 27.5202 41.5928L28.4795 41.5928C31.1927 41.5928 32.5493 41.5928 33.3922 40.7499C34.235 39.907 34.235 38.5504 34.235 35.8372L34.2351 28.1631C34.2351 25.4498 34.2351 24.0932 33.3922 23.2503C32.5493 22.4074 31.1927 22.4074 28.4795 22.4074L27.5202 22.4074C24.807 22.4074 23.4504 22.4074 22.6075 23.2503ZM30.3977 26.0356C30.8119 26.0356 31.1477 25.6999 31.1477 25.2856C31.1477 24.8714 30.8119 24.5356 30.3977 24.5356L25.6013 24.5356C25.1871 24.5356 24.8513 24.8714 24.8513 25.2856C24.8513 25.6999 25.1871 26.0356 25.6013 26.0356L30.3977 26.0356ZM27.9993 38.7155C28.794 38.7154 29.4382 38.0712 29.4382 37.2765C29.4382 36.4819 28.794 35.8376 27.9994 35.8376C27.2046 35.8377 26.5605 36.4819 26.5604 37.2766C26.5604 38.0712 27.2046 38.7155 27.9993 38.7155Z" fill="#4E4E4E"/>
</g>
<path d="M52.1836 29.1641C50.0508 29.1641 48.6084 28.1182 48.4854 26.4297L48.4785 26.334H49.709L49.7227 26.4297C49.8662 27.4209 50.8232 28.0293 52.252 28.0293C53.6738 28.0293 54.5693 27.3867 54.5693 26.3682V26.3613C54.5693 25.4932 54.002 25.0078 52.6484 24.707L51.5547 24.4678C49.627 24.0439 48.7246 23.1758 48.7246 21.7334V21.7266C48.7314 20.1064 50.167 18.9717 52.1973 18.9717C54.125 18.9717 55.5332 20.0859 55.6426 21.6992L55.6494 21.8018H54.4189L54.4053 21.7061C54.2549 20.7012 53.4141 20.1064 52.1631 20.1064C50.8438 20.1133 49.9824 20.7422 49.9824 21.6924V21.6992C49.9824 22.5059 50.5771 23.0117 51.8623 23.292L52.9561 23.5312C54.9795 23.9756 55.8271 24.7959 55.8271 26.2998V26.3066C55.8271 28.0566 54.4395 29.1641 52.1836 29.1641ZM60.0312 29.1367C58.0146 29.1367 56.7363 27.7012 56.7363 25.4385V25.4316C56.7363 23.1895 58.042 21.7539 60.0176 21.7539C61.7881 21.7539 62.834 22.9297 62.9844 24.1465L62.9912 24.2012H61.8291L61.8154 24.1465C61.6377 23.4355 61.0635 22.8066 60.0176 22.8066C58.7803 22.8066 57.9531 23.832 57.9531 25.4453V25.4521C57.9531 27.1064 58.8008 28.084 60.0312 28.084C61.002 28.084 61.624 27.5371 61.8223 26.7441L61.8359 26.6895H63.0049L62.998 26.7373C62.8066 28.0908 61.6377 29.1367 60.0312 29.1367ZM64.0986 29V21.8906H65.2881V23.0938H65.3154C65.5547 22.2734 66.1699 21.7539 66.9697 21.7539C67.1748 21.7539 67.3525 21.7881 67.4482 21.8018V22.957C67.3525 22.9229 67.0996 22.8887 66.8125 22.8887C65.8896 22.8887 65.2881 23.5312 65.2881 24.6113V29H64.0986ZM71.0029 29.1367C68.959 29.1367 67.7285 27.708 67.7285 25.4727V25.4658C67.7285 23.2646 68.9863 21.7539 70.9277 21.7539C72.8691 21.7539 74.0518 23.1963 74.0518 25.3291V25.7666H68.9316C68.959 27.2295 69.7656 28.084 71.0303 28.084C71.9326 28.084 72.5684 27.6328 72.7734 27.0244L72.7939 26.9629H73.9629L73.9492 27.0312C73.7168 28.207 72.5547 29.1367 71.0029 29.1367ZM70.9209 22.8066C69.8887 22.8066 69.082 23.5107 68.9521 24.8369H72.8418C72.7256 23.4561 71.96 22.8066 70.9209 22.8066ZM78.1807 29.1367C76.1367 29.1367 74.9062 27.708 74.9062 25.4727V25.4658C74.9062 23.2646 76.1641 21.7539 78.1055 21.7539C80.0469 21.7539 81.2295 23.1963 81.2295 25.3291V25.7666H76.1094C76.1367 27.2295 76.9434 28.084 78.208 28.084C79.1104 28.084 79.7461 27.6328 79.9512 27.0244L79.9717 26.9629H81.1406L81.127 27.0312C80.8945 28.207 79.7324 29.1367 78.1807 29.1367ZM78.0986 22.8066C77.0664 22.8066 76.2598 23.5107 76.1299 24.8369H80.0195C79.9033 23.4561 79.1377 22.8066 78.0986 22.8066ZM82.4326 29V21.8906H83.6221V22.9023H83.6494C84.0322 22.2393 84.7568 21.7539 85.8369 21.7539C87.3955 21.7539 88.2979 22.7656 88.2979 24.3857V29H87.1084V24.5977C87.1084 23.4424 86.5684 22.8066 85.4746 22.8066C84.3535 22.8066 83.6221 23.6064 83.6221 24.8164V29H82.4326ZM95.209 29.1367C93.5342 29.1367 92.5225 28.2822 92.3789 27.0107L92.3721 26.9492H93.5615L93.5752 27.0176C93.7188 27.7285 94.2451 28.1455 95.2158 28.1455C96.1797 28.1455 96.7539 27.7422 96.7539 27.0996V27.0928C96.7539 26.5801 96.4873 26.293 95.6807 26.0947L94.5527 25.8213C93.2129 25.5 92.5635 24.8779 92.5635 23.8525V23.8457C92.5635 22.6221 93.6367 21.7539 95.1748 21.7539C96.7334 21.7539 97.7246 22.6631 97.8135 23.8525L97.8203 23.9414H96.6855L96.6787 23.8936C96.583 23.2031 96.0566 22.7451 95.1748 22.7451C94.3135 22.7451 93.7803 23.1621 93.7803 23.791V23.7979C93.7803 24.2832 94.1016 24.6182 94.8877 24.8096L96.0156 25.083C97.4512 25.4316 97.9707 25.999 97.9707 27.0107V27.0176C97.9707 28.2617 96.7949 29.1367 95.209 29.1367ZM99.8779 20.6875C99.4678 20.6875 99.1328 20.3525 99.1328 19.9424C99.1328 19.5254 99.4678 19.1973 99.8779 19.1973C100.295 19.1973 100.623 19.5254 100.623 19.9424C100.623 20.3525 100.295 20.6875 99.8779 20.6875ZM99.2832 29V21.8906H100.473V29H99.2832ZM101.942 29V28.1523L105.873 22.8955V22.875H101.949V21.8906H107.227V22.7588L103.323 27.9951V28.0156H107.247V29H101.942ZM111.294 29.1367C109.25 29.1367 108.02 27.708 108.02 25.4727V25.4658C108.02 23.2646 109.277 21.7539 111.219 21.7539C113.16 21.7539 114.343 23.1963 114.343 25.3291V25.7666H109.223C109.25 27.2295 110.057 28.084 111.321 28.084C112.224 28.084 112.859 27.6328 113.064 27.0244L113.085 26.9629H114.254L114.24 27.0312C114.008 28.207 112.846 29.1367 111.294 29.1367ZM111.212 22.8066C110.18 22.8066 109.373 23.5107 109.243 24.8369H113.133C113.017 23.4561 112.251 22.8066 111.212 22.8066Z" fill="#A7A7A7"/>
<path d="M52.4775 45.1641C50.4609 45.1641 48.6016 43.7627 48.6016 40.2148V40.2012C48.6016 36.9131 50.0713 34.9717 52.5391 34.9717C54.2959 34.9717 55.6152 35.9766 55.9297 37.4463L55.9502 37.5283H54.4121L54.3916 37.46C54.1113 36.7217 53.4688 36.2568 52.5254 36.2568C50.8301 36.2568 50.1396 37.8906 50.0781 39.8457C50.0713 39.9346 50.0713 40.0234 50.0713 40.1123H50.1055C50.4951 39.2236 51.4932 38.5264 52.833 38.5264C54.7197 38.5264 56.0801 39.9004 56.0801 41.7666V41.7803C56.0801 43.749 54.5557 45.1641 52.4775 45.1641ZM50.3721 41.7871C50.3721 42.9561 51.2881 43.8789 52.457 43.8789C53.626 43.8789 54.5557 42.9697 54.5557 41.8213V41.8076C54.5557 40.6182 53.6807 39.7705 52.4775 39.7705C51.2812 39.7705 50.3721 40.6113 50.3721 41.7803V41.7871ZM58.3359 45.1025C57.8301 45.1025 57.4336 44.7061 57.4336 44.207C57.4336 43.7012 57.8301 43.3115 58.3359 43.3115C58.835 43.3115 59.2314 43.7012 59.2314 44.207C59.2314 44.7061 58.835 45.1025 58.3359 45.1025ZM60.8516 45L65.2334 36.4619V36.4277H60.0312V35.1357H66.7441V36.4619L62.458 45H60.8516ZM68.624 38.7451L68.4668 35.1357H69.834L69.6768 38.7451H68.624ZM70.8936 38.7451L70.7432 35.1357H72.1104L71.9531 38.7451H70.8936Z" fill="#4E4E4E"/>
<defs>
<clipPath id="clip0_366_3917">
<rect width="24" height="24" fill="white" transform="translate(16 20)"/>
</clipPath>
</defs>
</svg>
