<svg width="1040" height="128" viewBox="0 0 1040 128" fill="none" xmlns="http://www.w3.org/2000/svg">
<path d="M1040 127.5H0V128.5H1040V127.5Z" fill="#CDCDCD" mask="url(#path-1-inside-1_158_732)"/>
<path d="M8.42188 18L7.28906 14.7734H2.80469L1.67188 18H0.195312L4.35156 6.72656H5.74219L9.89844 18H8.42188ZM5.02344 8.4375L3.21875 13.5781H6.875L5.07031 8.4375H5.02344ZM13.8984 18.1406C11.8281 18.1406 10.4219 16.4844 10.4219 13.9375C10.4219 11.3906 11.8203 9.73438 13.8672 9.73438C15.0312 9.73438 15.9688 10.3047 16.4531 11.1953H16.4844V6.72656H17.8438V18H16.5469V16.625H16.5234C16 17.5625 15.0703 18.1406 13.8984 18.1406ZM14.1562 10.9297C12.7188 10.9297 11.8125 12.1016 11.8125 13.9375C11.8125 15.7812 12.7188 16.9453 14.1562 16.9453C15.5547 16.9453 16.4922 15.7578 16.4922 13.9375C16.4922 12.125 15.5547 10.9297 14.1562 10.9297ZM22.7578 18.1406C20.6875 18.1406 19.2812 16.4844 19.2812 13.9375C19.2812 11.3906 20.6797 9.73438 22.7266 9.73438C23.8906 9.73438 24.8281 10.3047 25.3125 11.1953H25.3438V6.72656H26.7031V18H25.4062V16.625H25.3828C24.8594 17.5625 23.9297 18.1406 22.7578 18.1406ZM23.0156 10.9297C21.5781 10.9297 20.6719 12.1016 20.6719 13.9375C20.6719 15.7812 21.5781 16.9453 23.0156 16.9453C24.4141 16.9453 25.3516 15.7578 25.3516 13.9375C25.3516 12.125 24.4141 10.9297 23.0156 10.9297ZM28.6094 18V9.875H29.9688V18H28.6094ZM29.2891 8.50781C28.8281 8.50781 28.4453 8.125 28.4453 7.66406C28.4453 7.19531 28.8281 6.82031 29.2891 6.82031C29.7578 6.82031 30.1406 7.19531 30.1406 7.66406C30.1406 8.125 29.7578 8.50781 29.2891 8.50781ZM32.2422 7.91406H33.6016V9.875H35.1797V10.9922H33.6016V15.8203C33.6016 16.5625 33.9141 16.8984 34.6094 16.8984C34.7656 16.8984 35.0781 16.875 35.1719 16.8594V18C35.0078 18.0391 34.6328 18.0625 34.3125 18.0625C32.8203 18.0625 32.2422 17.4531 32.2422 15.8906V10.9922H31.0312V9.875H32.2422V7.91406ZM36.7031 18V9.875H38.0625V18H36.7031ZM37.3828 8.50781C36.9219 8.50781 36.5391 8.125 36.5391 7.66406C36.5391 7.19531 36.9219 6.82031 37.3828 6.82031C37.8516 6.82031 38.2344 7.19531 38.2344 7.66406C38.2344 8.125 37.8516 8.50781 37.3828 8.50781ZM43.2656 18.1406C41.0156 18.1406 39.5 16.5234 39.5 13.9375C39.5 11.3438 41.0156 9.73438 43.2656 9.73438C45.5078 9.73438 47.0234 11.3438 47.0234 13.9375C47.0234 16.5234 45.5078 18.1406 43.2656 18.1406ZM43.2656 16.9453C44.7031 16.9453 45.6406 15.8516 45.6406 13.9375C45.6406 12.0234 44.7031 10.9297 43.2656 10.9297C41.8281 10.9297 40.8828 12.0234 40.8828 13.9375C40.8828 15.8516 41.8281 16.9453 43.2656 16.9453ZM48.3984 18V9.875H49.6797V11.1719H49.7109C50.1641 10.2969 51.0312 9.73438 52.2891 9.73438C54.0703 9.73438 55.1016 10.8828 55.1016 12.7266V18H53.7422V12.9688C53.7422 11.6562 53.125 10.9375 51.875 10.9375C50.5938 10.9375 49.7578 11.8438 49.7578 13.2188V18H48.3984ZM59.5156 16.9844C60.7969 16.9844 61.7812 16.0859 61.7812 14.9141V14.25L59.6094 14.3828C58.5156 14.4531 57.8906 14.9375 57.8906 15.7031C57.8906 16.4766 58.5391 16.9844 59.5156 16.9844ZM59.2109 18.1406C57.5938 18.1406 56.5078 17.1641 56.5078 15.7031C56.5078 14.3125 57.5781 13.4375 59.4531 13.3281L61.7812 13.1953V12.5156C61.7812 11.5234 61.125 10.9297 60 10.9297C58.9531 10.9297 58.2969 11.4219 58.125 12.2188H56.8125C56.9062 10.8125 58.1094 9.73438 60.0312 9.73438C61.9375 9.73438 63.1406 10.7656 63.1406 12.3828V18H61.8516V16.6016H61.8203C61.3359 17.5312 60.3047 18.1406 59.2109 18.1406ZM64.9375 18V6.72656H66.2969V18H64.9375ZM68.2031 18V6.72656H69.5625V18H68.2031ZM72.0703 21.0391C71.9062 21.0391 71.6328 21.0234 71.4844 20.9922V19.8516C71.6328 19.8828 71.8438 19.8906 72.0156 19.8906C72.7734 19.8906 73.1953 19.5234 73.5078 18.5781L73.6953 18.0078L70.6953 9.875H72.1484L74.3984 16.6406H74.4219L76.6719 9.875H78.1016L74.9062 18.5703C74.2109 20.4688 73.5391 21.0391 72.0703 21.0391Z" fill="black"/>
<path d="M945.21 17V6.43115H948.762C951.89 6.43115 953.75 8.37939 953.75 11.6973V11.7119C953.75 15.0444 951.904 17 948.762 17H945.21ZM946.528 15.8135H948.674C951.069 15.8135 952.402 14.3486 952.402 11.7266V11.7119C952.402 9.0752 951.069 7.61768 948.674 7.61768H946.528V15.8135ZM955.925 19.5635C955.676 19.5635 955.405 19.5342 955.244 19.5049V18.4648C955.354 18.4868 955.5 18.5088 955.654 18.5088C956.46 18.5088 956.907 18.3037 957.214 17.4395L957.368 17.0073L954.541 9.38281H955.903L958.005 15.7256H958.035L960.144 9.38281H961.484L958.511 17.4761C957.969 18.9336 957.302 19.5635 955.925 19.5635ZM962.488 17V9.38281H963.762V10.4668H963.792C964.202 9.75635 964.978 9.23633 966.135 9.23633C967.805 9.23633 968.772 10.3203 968.772 12.0562V17H967.498V12.2832C967.498 11.0454 966.919 10.3643 965.747 10.3643C964.546 10.3643 963.762 11.2212 963.762 12.5176V17H962.488ZM972.625 17.1465C971.108 17.1465 970.09 16.231 970.09 14.8467V14.832C970.09 13.5356 971.101 12.7227 972.852 12.6201L975.034 12.4956V11.8584C975.034 10.9282 974.426 10.3643 973.364 10.3643C972.383 10.3643 971.768 10.833 971.621 11.5142L971.606 11.5801H970.376L970.383 11.4995C970.493 10.2471 971.584 9.23633 973.379 9.23633C975.181 9.23633 976.309 10.2104 976.309 11.7339V17H975.034V15.7622H975.005C974.558 16.5972 973.643 17.1465 972.625 17.1465ZM971.394 14.8467C971.394 15.5791 971.995 16.0405 972.91 16.0405C974.111 16.0405 975.034 15.2129 975.034 14.1069V13.4844L972.998 13.6089C971.98 13.6675 971.394 14.1216 971.394 14.832V14.8467ZM977.927 17V9.38281H979.202V10.4961H979.231C979.575 9.7417 980.337 9.23633 981.318 9.23633C982.358 9.23633 983.127 9.771 983.457 10.7012H983.486C983.911 9.78564 984.805 9.23633 985.874 9.23633C987.383 9.23633 988.357 10.2251 988.357 11.7412V17H987.083V12.0342C987.083 10.9868 986.504 10.3643 985.5 10.3643C984.49 10.3643 983.779 11.1187 983.779 12.1587V17H982.505V11.895C982.505 10.9722 981.89 10.3643 980.945 10.3643C979.934 10.3643 979.202 11.1626 979.202 12.2246V17H977.927ZM990.701 8.09375C990.261 8.09375 989.902 7.73486 989.902 7.29541C989.902 6.84863 990.261 6.49707 990.701 6.49707C991.147 6.49707 991.499 6.84863 991.499 7.29541C991.499 7.73486 991.147 8.09375 990.701 8.09375ZM990.063 17V9.38281H991.338V17H990.063ZM996.23 17.1465C994.07 17.1465 992.7 15.6084 992.7 13.1841V13.1768C992.7 10.7744 994.099 9.23633 996.216 9.23633C998.113 9.23633 999.233 10.4961 999.395 11.7998L999.402 11.8584H998.157L998.142 11.7998C997.952 11.0381 997.336 10.3643 996.216 10.3643C994.89 10.3643 994.004 11.4629 994.004 13.1914V13.1987C994.004 14.9712 994.912 16.0186 996.23 16.0186C997.271 16.0186 997.937 15.4326 998.149 14.583L998.164 14.5244H999.417L999.409 14.5757C999.204 16.0259 997.952 17.1465 996.23 17.1465ZM1003.86 17V6.43115H1005.18V17H1003.86ZM1009.74 17.1465C1007.94 17.1465 1006.86 16.231 1006.7 14.8687L1006.7 14.8027H1007.97L1007.99 14.876C1008.14 15.6377 1008.7 16.0845 1009.74 16.0845C1010.78 16.0845 1011.39 15.6523 1011.39 14.9639V14.9565C1011.39 14.4072 1011.11 14.0996 1010.24 13.8872L1009.03 13.5942C1007.6 13.25 1006.9 12.5835 1006.9 11.4849V11.4775C1006.9 10.1665 1008.05 9.23633 1009.7 9.23633C1011.37 9.23633 1012.43 10.2104 1012.53 11.4849L1012.53 11.5801H1011.32L1011.31 11.5288C1011.21 10.7891 1010.64 10.2983 1009.7 10.2983C1008.78 10.2983 1008.21 10.7451 1008.21 11.4189V11.4263C1008.21 11.9463 1008.55 12.3052 1009.39 12.5103L1010.6 12.8032C1012.14 13.1768 1012.7 13.7847 1012.7 14.8687V14.876C1012.7 16.209 1011.44 17.1465 1009.74 17.1465ZM1014.09 17V6.43115H1015.36V17H1014.09ZM1019.31 17.1465C1017.79 17.1465 1016.77 16.231 1016.77 14.8467V14.832C1016.77 13.5356 1017.79 12.7227 1019.54 12.6201L1021.72 12.4956V11.8584C1021.72 10.9282 1021.11 10.3643 1020.05 10.3643C1019.07 10.3643 1018.45 10.833 1018.31 11.5142L1018.29 11.5801H1017.06L1017.07 11.4995C1017.18 10.2471 1018.27 9.23633 1020.06 9.23633C1021.87 9.23633 1022.99 10.2104 1022.99 11.7339V17H1021.72V15.7622H1021.69C1021.24 16.5972 1020.33 17.1465 1019.31 17.1465ZM1018.08 14.8467C1018.08 15.5791 1018.68 16.0405 1019.59 16.0405C1020.8 16.0405 1021.72 15.2129 1021.72 14.1069V13.4844L1019.68 13.6089C1018.66 13.6675 1018.08 14.1216 1018.08 14.832V14.8467ZM1024.61 17V9.38281H1025.89V10.4668H1025.92C1026.33 9.75635 1027.1 9.23633 1028.26 9.23633C1029.93 9.23633 1030.9 10.3203 1030.9 12.0562V17H1029.62V12.2832C1029.62 11.0454 1029.04 10.3643 1027.87 10.3643C1026.67 10.3643 1025.89 11.2212 1025.89 12.5176V17H1024.61ZM1035.39 17.1465C1033.44 17.1465 1032.15 15.5938 1032.15 13.1914V13.1841C1032.15 10.7817 1033.45 9.23633 1035.36 9.23633C1036.44 9.23633 1037.33 9.77832 1037.8 10.6572H1037.83V6.43115H1039.11V17H1037.83V15.7109H1037.8C1037.33 16.5972 1036.48 17.1465 1035.39 17.1465ZM1035.63 16.0186C1036.92 16.0186 1037.84 14.8979 1037.84 13.1914V13.1841C1037.84 11.4849 1036.92 10.3643 1035.63 10.3643C1034.29 10.3643 1033.45 11.4482 1033.45 13.1841V13.1914C1033.45 14.9419 1034.29 16.0186 1035.63 16.0186ZM922.278 41L926.211 30.4312H927.515L931.44 41H930.056L928.987 37.9751H924.731L923.662 41H922.278ZM926.848 32.0132L925.134 36.8545H928.591L926.877 32.0132H926.848ZM932.524 41V30.4312H933.799V41H932.524ZM937.029 41L934.897 33.3828H936.165L937.688 39.5791H937.717L939.438 33.3828H940.669L942.397 39.5791H942.427L943.95 33.3828H945.21L943.086 41H941.79L940.068 35.104H940.039L938.325 41H937.029ZM948.337 41.1465C946.821 41.1465 945.803 40.231 945.803 38.8467V38.832C945.803 37.5356 946.814 36.7227 948.564 36.6201L950.747 36.4956V35.8584C950.747 34.9282 950.139 34.3643 949.077 34.3643C948.096 34.3643 947.48 34.833 947.334 35.5142L947.319 35.5801H946.089L946.096 35.4995C946.206 34.2471 947.297 33.2363 949.092 33.2363C950.894 33.2363 952.021 34.2104 952.021 35.7339V41H950.747V39.7622H950.718C950.271 40.5972 949.355 41.1465 948.337 41.1465ZM947.107 38.8467C947.107 39.5791 947.708 40.0405 948.623 40.0405C949.824 40.0405 950.747 39.2129 950.747 38.1069V37.4844L948.711 37.6089C947.693 37.6675 947.107 38.1216 947.107 38.832V38.8467ZM954.373 43.5635C954.124 43.5635 953.853 43.5342 953.691 43.5049V42.4648C953.801 42.4868 953.948 42.5088 954.102 42.5088C954.907 42.5088 955.354 42.3037 955.662 41.4395L955.815 41.0073L952.988 33.3828H954.351L956.453 39.7256H956.482L958.591 33.3828H959.932L956.958 41.4761C956.416 42.9336 955.75 43.5635 954.373 43.5635ZM963.638 41.1465C961.843 41.1465 960.759 40.231 960.605 38.8687L960.598 38.8027H961.873L961.887 38.876C962.041 39.6377 962.605 40.0845 963.645 40.0845C964.678 40.0845 965.293 39.6523 965.293 38.9639V38.9565C965.293 38.4072 965.007 38.0996 964.143 37.8872L962.935 37.5942C961.499 37.25 960.803 36.5835 960.803 35.4849V35.4775C960.803 34.1665 961.953 33.2363 963.601 33.2363C965.271 33.2363 966.333 34.2104 966.428 35.4849L966.436 35.5801H965.22L965.212 35.5288C965.11 34.7891 964.546 34.2983 963.601 34.2983C962.678 34.2983 962.107 34.7451 962.107 35.4189V35.4263C962.107 35.9463 962.451 36.3052 963.293 36.5103L964.502 36.8032C966.04 37.1768 966.597 37.7847 966.597 38.8687V38.876C966.597 40.209 965.337 41.1465 963.638 41.1465ZM967.966 37.3086V36.1221H972.654V37.3086H967.966ZM979.019 41.1758C976.016 41.1758 974.141 39.0737 974.141 35.7192V35.7046C974.141 32.3574 976.023 30.2554 979.019 30.2554C982.007 30.2554 983.882 32.3574 983.882 35.7046V35.7192C983.882 39.0737 982.014 41.1758 979.019 41.1758ZM979.019 39.96C981.194 39.96 982.534 38.2974 982.534 35.7192V35.7046C982.534 33.1118 981.172 31.4712 979.019 31.4712C976.858 31.4712 975.488 33.1045 975.488 35.7046V35.7192C975.488 38.3193 976.851 39.96 979.019 39.96ZM985.325 41V33.3828H986.599V34.4668H986.628C987.039 33.7563 987.815 33.2363 988.972 33.2363C990.642 33.2363 991.609 34.3203 991.609 36.0562V41H990.334V36.2832C990.334 35.0454 989.756 34.3643 988.584 34.3643C987.383 34.3643 986.599 35.2212 986.599 36.5176V41H985.325ZM999.175 41.1465C997.227 41.1465 995.938 39.5938 995.938 37.1914V37.1841C995.938 34.7817 997.241 33.2363 999.153 33.2363C1000.23 33.2363 1001.12 33.7783 1001.59 34.6572H1001.62V30.4312H1002.9V41H1001.62V39.7109H1001.59C1001.12 40.5972 1000.27 41.1465 999.175 41.1465ZM999.424 40.0186C1000.71 40.0186 1001.63 38.8979 1001.63 37.1914V37.1841C1001.63 35.4849 1000.71 34.3643 999.424 34.3643C998.076 34.3643 997.241 35.4482 997.241 37.1841V37.1914C997.241 38.9419 998.076 40.0186 999.424 40.0186ZM1005.33 32.0938C1004.9 32.0938 1004.54 31.7349 1004.54 31.2954C1004.54 30.8486 1004.9 30.4971 1005.33 30.4971C1005.78 30.4971 1006.13 30.8486 1006.13 31.2954C1006.13 31.7349 1005.78 32.0938 1005.33 32.0938ZM1004.7 41V33.3828H1005.97V41H1004.7ZM1010.41 41.1465C1008.62 41.1465 1007.53 40.231 1007.38 38.8687L1007.37 38.8027H1008.65L1008.66 38.876C1008.81 39.6377 1009.38 40.0845 1010.42 40.0845C1011.45 40.0845 1012.07 39.6523 1012.07 38.9639V38.9565C1012.07 38.4072 1011.78 38.0996 1010.92 37.8872L1009.71 37.5942C1008.27 37.25 1007.58 36.5835 1007.58 35.4849V35.4775C1007.58 34.1665 1008.73 33.2363 1010.37 33.2363C1012.04 33.2363 1013.11 34.2104 1013.2 35.4849L1013.21 35.5801H1011.99L1011.98 35.5288C1011.88 34.7891 1011.32 34.2983 1010.37 34.2983C1009.45 34.2983 1008.88 34.7451 1008.88 35.4189V35.4263C1008.88 35.9463 1009.22 36.3052 1010.07 36.5103L1011.27 36.8032C1012.81 37.1768 1013.37 37.7847 1013.37 38.8687V38.876C1013.37 40.209 1012.11 41.1465 1010.41 41.1465ZM1014.69 43.5635V33.3828H1015.97V34.6719H1016C1016.47 33.7856 1017.32 33.2363 1018.42 33.2363C1020.36 33.2363 1021.65 34.7891 1021.65 37.1914V37.1987C1021.65 39.6011 1020.35 41.1465 1018.44 41.1465C1017.36 41.1465 1016.47 40.6045 1016 39.7256H1015.97V43.5635H1014.69ZM1018.17 40.0186C1019.51 40.0186 1020.35 38.9346 1020.35 37.1987V37.1914C1020.35 35.4409 1019.51 34.3643 1018.17 34.3643C1016.88 34.3643 1015.96 35.4849 1015.96 37.1914V37.1987C1015.96 38.8979 1016.88 40.0186 1018.17 40.0186ZM1023.01 41V30.4312H1024.28V41H1023.01ZM1028.23 41.1465C1026.71 41.1465 1025.7 40.231 1025.7 38.8467V38.832C1025.7 37.5356 1026.71 36.7227 1028.46 36.6201L1030.64 36.4956V35.8584C1030.64 34.9282 1030.03 34.3643 1028.97 34.3643C1027.99 34.3643 1027.37 34.833 1027.23 35.5142L1027.21 35.5801H1025.98L1025.99 35.4995C1026.1 34.2471 1027.19 33.2363 1028.98 33.2363C1030.79 33.2363 1031.91 34.2104 1031.91 35.7339V41H1030.64V39.7622H1030.61C1030.16 40.5972 1029.25 41.1465 1028.23 41.1465ZM1027 38.8467C1027 39.5791 1027.6 40.0405 1028.52 40.0405C1029.72 40.0405 1030.64 39.2129 1030.64 38.1069V37.4844L1028.6 37.6089C1027.59 37.6675 1027 38.1216 1027 38.832V38.8467ZM1034.27 43.5635C1034.02 43.5635 1033.75 43.5342 1033.58 43.5049V42.4648C1033.69 42.4868 1033.84 42.5088 1033.99 42.5088C1034.8 42.5088 1035.25 42.3037 1035.55 41.4395L1035.71 41.0073L1032.88 33.3828H1034.24L1036.35 39.7256H1036.37L1038.48 33.3828H1039.82L1036.85 41.4761C1036.31 42.9336 1035.64 43.5635 1034.27 43.5635ZM963.77 65V54.4312H965.088V59.0015H970.889V54.4312H972.207V65H970.889V60.188H965.088V65H963.77ZM974.258 65V54.4312H977.81C980.938 54.4312 982.798 56.3794 982.798 59.6973V59.7119C982.798 63.0444 980.952 65 977.81 65H974.258ZM975.576 63.8135H977.722C980.117 63.8135 981.45 62.3486 981.45 59.7266V59.7119C981.45 57.0752 980.117 55.6177 977.722 55.6177H975.576V63.8135ZM984.438 65V54.4312H988.401C990.437 54.4312 991.77 55.6763 991.77 57.5806V57.5952C991.77 59.0601 990.964 60.1953 989.646 60.6128L992.092 65H990.547L988.284 60.8179H985.757V65H984.438ZM985.757 59.6533H988.284C989.639 59.6533 990.408 58.9209 990.408 57.6245V57.6099C990.408 56.3501 989.58 55.603 988.225 55.603H985.757V59.6533ZM999.175 65.1465C997.227 65.1465 995.938 63.5938 995.938 61.1914V61.1841C995.938 58.7817 997.241 57.2363 999.153 57.2363C1000.23 57.2363 1001.12 57.7783 1001.59 58.6572H1001.62V54.4312H1002.9V65H1001.62V63.7109H1001.59C1001.12 64.5972 1000.27 65.1465 999.175 65.1465ZM999.424 64.0186C1000.71 64.0186 1001.63 62.8979 1001.63 61.1914V61.1841C1001.63 59.4849 1000.71 58.3643 999.424 58.3643C998.076 58.3643 997.241 59.4482 997.241 61.1841V61.1914C997.241 62.9419 998.076 64.0186 999.424 64.0186ZM1005.33 56.0938C1004.9 56.0938 1004.54 55.7349 1004.54 55.2954C1004.54 54.8486 1004.9 54.4971 1005.33 54.4971C1005.78 54.4971 1006.13 54.8486 1006.13 55.2954C1006.13 55.7349 1005.78 56.0938 1005.33 56.0938ZM1004.7 65V57.3828H1005.97V65H1004.7ZM1010.41 65.1465C1008.62 65.1465 1007.53 64.231 1007.38 62.8687L1007.37 62.8027H1008.65L1008.66 62.876C1008.81 63.6377 1009.38 64.0845 1010.42 64.0845C1011.45 64.0845 1012.07 63.6523 1012.07 62.9639V62.9565C1012.07 62.4072 1011.78 62.0996 1010.92 61.8872L1009.71 61.5942C1008.27 61.25 1007.58 60.5835 1007.58 59.4849V59.4775C1007.58 58.1665 1008.73 57.2363 1010.37 57.2363C1012.04 57.2363 1013.11 58.2104 1013.2 59.4849L1013.21 59.5801H1011.99L1011.98 59.5288C1011.88 58.7891 1011.32 58.2983 1010.37 58.2983C1009.45 58.2983 1008.88 58.7451 1008.88 59.4189V59.4263C1008.88 59.9463 1009.22 60.3052 1010.07 60.5103L1011.27 60.8032C1012.81 61.1768 1013.37 61.7847 1013.37 62.8687V62.876C1013.37 64.209 1012.11 65.1465 1010.41 65.1465ZM1014.69 67.5635V57.3828H1015.97V58.6719H1016C1016.47 57.7856 1017.32 57.2363 1018.42 57.2363C1020.36 57.2363 1021.65 58.7891 1021.65 61.1914V61.1987C1021.65 63.6011 1020.35 65.1465 1018.44 65.1465C1017.36 65.1465 1016.47 64.6045 1016 63.7256H1015.97V67.5635H1014.69ZM1018.17 64.0186C1019.51 64.0186 1020.35 62.9346 1020.35 61.1987V61.1914C1020.35 59.4409 1019.51 58.3643 1018.17 58.3643C1016.88 58.3643 1015.96 59.4849 1015.96 61.1914V61.1987C1015.96 62.8979 1016.88 64.0186 1018.17 64.0186ZM1023.01 65V54.4312H1024.28V65H1023.01ZM1028.23 65.1465C1026.71 65.1465 1025.7 64.231 1025.7 62.8467V62.832C1025.7 61.5356 1026.71 60.7227 1028.46 60.6201L1030.64 60.4956V59.8584C1030.64 58.9282 1030.03 58.3643 1028.97 58.3643C1027.99 58.3643 1027.37 58.833 1027.23 59.5142L1027.21 59.5801H1025.98L1025.99 59.4995C1026.1 58.2471 1027.19 57.2363 1028.98 57.2363C1030.79 57.2363 1031.91 58.2104 1031.91 59.7339V65H1030.64V63.7622H1030.61C1030.16 64.5972 1029.25 65.1465 1028.23 65.1465ZM1027 62.8467C1027 63.5791 1027.6 64.0405 1028.52 64.0405C1029.72 64.0405 1030.64 63.2129 1030.64 62.1069V61.4844L1028.6 61.6089C1027.59 61.6675 1027 62.1216 1027 62.832V62.8467ZM1034.27 67.5635C1034.02 67.5635 1033.75 67.5342 1033.58 67.5049V66.4648C1033.69 66.4868 1033.84 66.5088 1033.99 66.5088C1034.8 66.5088 1035.25 66.3037 1035.55 65.4395L1035.71 65.0073L1032.88 57.3828H1034.24L1036.35 63.7256H1036.37L1038.48 57.3828H1039.82L1036.85 65.4761C1036.31 66.9336 1035.64 67.5635 1034.27 67.5635ZM983.054 89V79.6177H979.722V78.4312H987.705V79.6177H984.373V89H983.054ZM987.214 89V81.3828H988.489V82.6719H988.518C988.774 81.793 989.434 81.2363 990.291 81.2363C990.51 81.2363 990.701 81.2729 990.803 81.2876V82.5254C990.701 82.4888 990.43 82.4521 990.122 82.4521C989.133 82.4521 988.489 83.1406 988.489 84.2979V89H987.214ZM994.443 89.1465C992.773 89.1465 991.807 88.0625 991.807 86.3267V81.3828H993.081V86.0996C993.081 87.3374 993.66 88.0186 994.832 88.0186C996.033 88.0186 996.816 87.1616 996.816 85.8652V81.3828H998.091V89H996.816V87.916H996.787C996.377 88.6265 995.601 89.1465 994.443 89.1465ZM1002.89 89.1465C1000.7 89.1465 999.38 87.6157 999.38 85.2207V85.2134C999.38 82.855 1000.73 81.2363 1002.81 81.2363C1004.89 81.2363 1006.15 82.7817 1006.15 85.0669V85.5356H1000.67C1000.7 87.103 1001.56 88.0186 1002.92 88.0186C1003.88 88.0186 1004.57 87.5352 1004.79 86.8833L1004.81 86.8174H1006.06L1006.04 86.8906C1005.8 88.1504 1004.55 89.1465 1002.89 89.1465ZM1002.8 82.3643C1001.69 82.3643 1000.83 83.1187 1000.69 84.5396H1004.86C1004.73 83.0601 1003.91 82.3643 1002.8 82.3643ZM1013.39 89V79.6177H1010.06V78.4312H1018.04V79.6177H1014.71V89H1013.39ZM1020.42 89.1465C1018.3 89.1465 1016.88 87.6157 1016.88 85.1914V85.1768C1016.88 82.7524 1018.31 81.2363 1020.41 81.2363C1022.51 81.2363 1023.94 82.7451 1023.94 85.1768V85.1914C1023.94 87.623 1022.52 89.1465 1020.42 89.1465ZM1020.42 88.0186C1021.76 88.0186 1022.63 86.9785 1022.63 85.1914V85.1768C1022.63 83.3896 1021.76 82.3643 1020.41 82.3643C1019.08 82.3643 1018.19 83.397 1018.19 85.1768V85.1914C1018.19 86.9858 1019.07 88.0186 1020.42 88.0186ZM1025.23 89V81.3828H1026.5V82.4668H1026.53C1026.94 81.7563 1027.72 81.2363 1028.87 81.2363C1030.54 81.2363 1031.51 82.3203 1031.51 84.0562V89H1030.24V84.2832C1030.24 83.0454 1029.66 82.3643 1028.49 82.3643C1027.29 82.3643 1026.5 83.2212 1026.5 84.5176V89H1025.23ZM1036.27 89.1465C1034.08 89.1465 1032.76 87.6157 1032.76 85.2207V85.2134C1032.76 82.855 1034.11 81.2363 1036.19 81.2363C1038.27 81.2363 1039.54 82.7817 1039.54 85.0669V85.5356H1034.05C1034.08 87.103 1034.95 88.0186 1036.3 88.0186C1037.27 88.0186 1037.95 87.5352 1038.17 86.8833L1038.19 86.8174H1039.44L1039.43 86.8906C1039.18 88.1504 1037.93 89.1465 1036.27 89.1465ZM1036.18 82.3643C1035.08 82.3643 1034.21 83.1187 1034.07 84.5396H1038.24C1038.12 83.0601 1037.3 82.3643 1036.18 82.3643ZM945.752 113L942.874 102.431H944.25L946.382 111.11H946.411L948.806 102.431H950.139L952.534 111.11H952.563L954.695 102.431H956.072L953.193 113H951.948L949.487 104.533H949.458L946.997 113H945.752ZM957.947 104.094C957.507 104.094 957.148 103.735 957.148 103.295C957.148 102.849 957.507 102.497 957.947 102.497C958.394 102.497 958.745 102.849 958.745 103.295C958.745 103.735 958.394 104.094 957.947 104.094ZM957.31 113V105.383H958.584V113H957.31ZM963.184 113.146C961.235 113.146 959.946 111.594 959.946 109.191V109.184C959.946 106.782 961.25 105.236 963.162 105.236C964.238 105.236 965.125 105.778 965.601 106.657H965.63V102.431H966.904V113H965.63V111.711H965.601C965.125 112.597 964.275 113.146 963.184 113.146ZM963.433 112.019C964.722 112.019 965.637 110.898 965.637 109.191V109.184C965.637 107.485 964.714 106.364 963.433 106.364C962.085 106.364 961.25 107.448 961.25 109.184V109.191C961.25 110.942 962.085 112.019 963.433 112.019ZM971.76 113.146C969.57 113.146 968.252 111.616 968.252 109.221V109.213C968.252 106.855 969.6 105.236 971.68 105.236C973.76 105.236 975.027 106.782 975.027 109.067V109.536H969.541C969.57 111.103 970.435 112.019 971.79 112.019C972.756 112.019 973.438 111.535 973.657 110.883L973.679 110.817H974.932L974.917 110.891C974.668 112.15 973.423 113.146 971.76 113.146ZM971.672 106.364C970.566 106.364 969.702 107.119 969.563 108.54H973.73C973.606 107.06 972.786 106.364 971.672 106.364ZM982.549 113.146C980.388 113.146 979.019 111.608 979.019 109.184V109.177C979.019 106.774 980.417 105.236 982.534 105.236C984.431 105.236 985.552 106.496 985.713 107.8L985.72 107.858H984.475L984.46 107.8C984.27 107.038 983.655 106.364 982.534 106.364C981.208 106.364 980.322 107.463 980.322 109.191V109.199C980.322 110.971 981.23 112.019 982.549 112.019C983.589 112.019 984.255 111.433 984.468 110.583L984.482 110.524H985.735L985.728 110.576C985.522 112.026 984.27 113.146 982.549 113.146ZM990.063 113.146C987.947 113.146 986.533 111.616 986.533 109.191V109.177C986.533 106.752 987.954 105.236 990.056 105.236C992.158 105.236 993.586 106.745 993.586 109.177V109.191C993.586 111.623 992.166 113.146 990.063 113.146ZM990.071 112.019C991.411 112.019 992.283 110.979 992.283 109.191V109.177C992.283 107.39 991.404 106.364 990.056 106.364C988.73 106.364 987.837 107.397 987.837 109.177V109.191C987.837 110.986 988.723 112.019 990.071 112.019ZM994.941 113V102.431H996.216V113H994.941ZM1001.09 113.146C998.977 113.146 997.563 111.616 997.563 109.191V109.177C997.563 106.752 998.984 105.236 1001.09 105.236C1003.19 105.236 1004.62 106.745 1004.62 109.177V109.191C1004.62 111.623 1003.2 113.146 1001.09 113.146ZM1001.1 112.019C1002.44 112.019 1003.31 110.979 1003.31 109.191V109.177C1003.31 107.39 1002.43 106.364 1001.09 106.364C999.761 106.364 998.867 107.397 998.867 109.177V109.191C998.867 110.986 999.753 112.019 1001.1 112.019ZM1005.91 113V105.383H1007.18V106.672H1007.21C1007.47 105.793 1008.12 105.236 1008.98 105.236C1009.2 105.236 1009.39 105.273 1009.49 105.288V106.525C1009.39 106.489 1009.12 106.452 1008.81 106.452C1007.82 106.452 1007.18 107.141 1007.18 108.298V113H1005.91ZM1016.25 115.563C1014.83 113.754 1014.17 111.601 1014.17 108.994C1014.17 106.386 1014.83 104.248 1016.25 102.431H1017.32C1016.27 103.654 1015.47 106.547 1015.47 108.994C1015.47 111.44 1016.27 114.34 1017.32 115.563H1016.25ZM1018.64 113V102.431H1022.41C1024.39 102.431 1025.8 103.801 1025.8 105.808V105.822C1025.8 107.829 1024.39 109.228 1022.41 109.228H1019.96V113H1018.64ZM1022.07 103.603H1019.96V108.056H1022.07C1023.58 108.056 1024.45 107.229 1024.45 105.837V105.822C1024.45 104.431 1023.58 103.603 1022.07 103.603ZM1030.71 113.176C1028.52 113.176 1027.11 111.96 1026.97 110.29L1026.96 110.202H1028.23L1028.24 110.275C1028.35 111.315 1029.3 112.033 1030.71 112.033C1032.09 112.033 1033.03 111.257 1033.03 110.136V110.122C1033.03 108.825 1032.1 108.1 1030.62 108.1H1029.3V106.987H1030.57C1031.83 106.987 1032.71 106.21 1032.71 105.156V105.141C1032.71 104.035 1031.98 103.398 1030.69 103.398C1029.45 103.398 1028.56 104.057 1028.45 105.126L1028.44 105.2H1027.18L1027.18 105.126C1027.35 103.405 1028.71 102.255 1030.69 102.255C1032.71 102.255 1034.03 103.376 1034.03 104.98V104.995C1034.03 106.298 1033.11 107.192 1031.79 107.47V107.5C1033.33 107.631 1034.38 108.591 1034.38 110.092V110.107C1034.38 111.872 1032.82 113.176 1030.71 113.176ZM1036.53 115.563H1035.46C1036.51 114.34 1037.31 111.44 1037.31 108.994C1037.31 106.547 1036.51 103.654 1035.46 102.431H1036.53C1037.96 104.248 1038.61 106.386 1038.61 108.994C1038.61 111.601 1037.96 113.754 1036.53 115.563Z" fill="black"/>
</svg>
