<svg width="876" height="16" viewBox="0 0 876 16" fill="none" xmlns="http://www.w3.org/2000/svg">
<path d="M1.16895 14V1.31738H5.88867C8.37598 1.31738 10.0986 2.9873 10.0986 5.47461V5.49219C10.0986 7.9707 8.37598 9.66699 5.88867 9.66699H3.1377V14H1.16895ZM5.39648 2.97852H3.1377V8.01465H5.39648C7.11035 8.01465 8.09473 7.0918 8.09473 5.50098V5.4834C8.09473 3.90137 7.11035 2.97852 5.39648 2.97852ZM15.1611 14.1846C12.5068 14.1846 10.7754 12.3477 10.7754 9.37695V9.35938C10.7754 6.40625 12.5244 4.57812 15.1523 4.57812C17.7891 4.57812 19.5469 6.39746 19.5469 9.35938V9.37695C19.5469 12.3564 17.8066 14.1846 15.1611 14.1846ZM15.1699 12.5938C16.6553 12.5938 17.6045 11.416 17.6045 9.37695V9.35938C17.6045 7.33789 16.6377 6.16895 15.1523 6.16895C13.6934 6.16895 12.7178 7.33789 12.7178 9.35938V9.37695C12.7178 11.4248 13.6846 12.5938 15.1699 12.5938ZM24.9873 14.1846C22.333 14.1846 20.6016 12.3477 20.6016 9.37695V9.35938C20.6016 6.40625 22.3506 4.57812 24.9785 4.57812C27.6152 4.57812 29.373 6.39746 29.373 9.35938V9.37695C29.373 12.3564 27.6328 14.1846 24.9873 14.1846ZM24.9961 12.5938C26.4814 12.5938 27.4307 11.416 27.4307 9.37695V9.35938C27.4307 7.33789 26.4639 6.16895 24.9785 6.16895C23.5195 6.16895 22.5439 7.33789 22.5439 9.35938V9.37695C22.5439 11.4248 23.5107 12.5938 24.9961 12.5938ZM30.8408 14V4.75391H32.7393V6.33594H32.7832C33.082 5.25488 33.8555 4.57812 34.9102 4.57812C35.1826 4.57812 35.4199 4.62207 35.5693 4.64844V6.41504C35.4199 6.35352 35.0859 6.30957 34.7168 6.30957C33.4951 6.30957 32.7393 7.10938 32.7393 8.48926V14H30.8408Z" fill="black"/>
<g clip-path="url(#clip0_320_1855)">
<rect width="357.5" height="5" rx="2.5" transform="matrix(-1 0 0 1 846 5.5)" fill="#D9D9D9"/>
<rect width="357.5" height="5" rx="2.5" transform="matrix(-1 0 0 1 489.5 5.5)" fill="#FFB547"/>
</g>
<path opacity="0.4" d="M872.414 14V4.46094H872.375L869.43 6.49219V4.83594L872.398 2.72656H874.125V14H872.414Z" fill="black"/>
<defs>
<clipPath id="clip0_320_1855">
<rect width="714" height="5" fill="white" transform="matrix(-1 0 0 1 846 5.5)"/>
</clipPath>
</defs>
</svg>
