<svg width="168" height="64" viewBox="0 0 168 64" fill="none" xmlns="http://www.w3.org/2000/svg">
<rect width="168" height="64" rx="7" fill="#F4F4F4"/>
<path fill-rule="evenodd" clip-rule="evenodd" d="M30.2222 41H25.7778C22.6567 41 21.0962 41 19.9752 40.2646C19.4899 39.9462 19.0733 39.5371 18.749 39.0607C18 37.9601 18 36.4279 18 33.3636C18 30.2994 18 28.7672 18.749 27.6666C19.0733 27.1901 19.4899 26.781 19.9752 26.4627C20.6955 25.9901 21.5973 25.8212 22.978 25.7609C23.6368 25.7609 24.2041 25.2707 24.3333 24.6364C24.5271 23.6849 25.378 23 26.3663 23H29.6337C30.6219 23 31.4728 23.6849 31.6667 24.6364C31.7959 25.2707 32.3631 25.7609 33.022 25.7609C34.4027 25.8212 35.3044 25.9901 36.0248 26.4627C36.51 26.781 36.9267 27.1901 37.251 27.6666C38 28.7672 38 30.2994 38 33.3636C38 36.4279 38 37.9601 37.251 39.0607C36.9267 39.5371 36.51 39.9462 36.0248 40.2646C34.9038 41 33.3433 41 30.2222 41ZM31.2697 29.5996C31.2697 29.1854 30.9339 28.8496 30.5197 28.8496C30.1055 28.8496 29.7697 29.1854 29.7697 29.5996V29.7432C28.2996 28.9986 26.4581 29.2407 25.2295 30.4692C23.6995 31.9992 23.6995 34.4798 25.2295 36.0098C26.7595 37.5397 29.2401 37.5397 30.77 36.0098C31.421 35.3588 31.7957 34.5337 31.8923 33.6844C31.9391 33.2728 31.6434 32.9012 31.2319 32.8544C30.8203 32.8076 30.4487 33.1033 30.4019 33.5148C30.3422 34.0392 30.112 34.5465 29.7094 34.9491C28.7652 35.8933 27.2344 35.8933 26.2902 34.9491C25.346 34.0049 25.346 32.4741 26.2902 31.5299C26.9379 30.8822 27.8617 30.6788 28.6828 30.9198C28.3737 31.0637 28.1928 31.4061 28.2661 31.7542C28.3515 32.1595 28.7492 32.4189 29.1546 32.3335L30.6743 32.0135C31.0213 31.9404 31.2697 31.6342 31.2697 31.2796V29.5996Z" fill="#4E4E4E"/>
<path d="M48.957 29V19.1357H54.9453V20.2432H50.1875V23.6338H54.5557V24.7275H50.1875V29H48.957ZM56.1689 29V21.8906H57.3584V23.0938H57.3857C57.625 22.2734 58.2402 21.7539 59.04 21.7539C59.2451 21.7539 59.4229 21.7881 59.5186 21.8018V22.957C59.4229 22.9229 59.1699 22.8887 58.8828 22.8887C57.96 22.8887 57.3584 23.5312 57.3584 24.6113V29H56.1689ZM63.0938 29.1367C61.1182 29.1367 59.7988 27.708 59.7988 25.4453V25.4316C59.7988 23.1689 61.125 21.7539 63.0869 21.7539C65.0488 21.7539 66.3818 23.1621 66.3818 25.4316V25.4453C66.3818 27.7148 65.0557 29.1367 63.0938 29.1367ZM63.1006 28.084C64.3516 28.084 65.165 27.1133 65.165 25.4453V25.4316C65.165 23.7637 64.3447 22.8066 63.0869 22.8066C61.8496 22.8066 61.0156 23.7705 61.0156 25.4316V25.4453C61.0156 27.1201 61.8428 28.084 63.1006 28.084ZM67.585 29V21.8906H68.7744V22.9023H68.8018C69.1846 22.2393 69.9092 21.7539 70.9893 21.7539C72.5479 21.7539 73.4502 22.7656 73.4502 24.3857V29H72.2607V24.5977C72.2607 23.4424 71.7207 22.8066 70.627 22.8066C69.5059 22.8066 68.7744 23.6064 68.7744 24.8164V29H67.585ZM77.2783 29.1367C75.9727 29.1367 75.3301 28.5488 75.3301 27.1885V22.875H74.291V21.8906H75.3301V19.9697H76.5605V21.8906H77.9141V22.875H76.5605V27.1816C76.5605 27.9404 76.8955 28.1523 77.5312 28.1523C77.6748 28.1523 77.8115 28.1318 77.9141 28.125V29.0889C77.7637 29.1094 77.5107 29.1367 77.2783 29.1367ZM79.2334 25.5547V24.4473H83.6084V25.5547H79.2334ZM88.1406 29.1367C86.124 29.1367 84.8457 27.7012 84.8457 25.4385V25.4316C84.8457 23.1895 86.1514 21.7539 88.127 21.7539C89.8975 21.7539 90.9434 22.9297 91.0938 24.1465L91.1006 24.2012H89.9385L89.9248 24.1465C89.7471 23.4355 89.1729 22.8066 88.127 22.8066C86.8896 22.8066 86.0625 23.832 86.0625 25.4453V25.4521C86.0625 27.1064 86.9102 28.084 88.1406 28.084C89.1113 28.084 89.7334 27.5371 89.9316 26.7441L89.9453 26.6895H91.1143L91.1074 26.7373C90.916 28.0908 89.7471 29.1367 88.1406 29.1367ZM94.2861 29.1367C92.8711 29.1367 91.9209 28.2822 91.9209 26.9902V26.9766C91.9209 25.7666 92.8643 25.0078 94.498 24.9121L96.5352 24.7959V24.2012C96.5352 23.333 95.9678 22.8066 94.9766 22.8066C94.0605 22.8066 93.4863 23.2441 93.3496 23.8799L93.3359 23.9414H92.1875L92.1943 23.8662C92.2969 22.6973 93.3154 21.7539 94.9902 21.7539C96.6719 21.7539 97.7246 22.6631 97.7246 24.085V29H96.5352V27.8447H96.5078C96.0908 28.624 95.2363 29.1367 94.2861 29.1367ZM93.1377 26.9902C93.1377 27.6738 93.6982 28.1045 94.5527 28.1045C95.6738 28.1045 96.5352 27.332 96.5352 26.2998V25.7188L94.6348 25.835C93.6846 25.8896 93.1377 26.3135 93.1377 26.9766V26.9902ZM99.2354 29V21.8906H100.425V22.9297H100.452C100.773 22.2256 101.484 21.7539 102.4 21.7539C103.371 21.7539 104.089 22.2529 104.396 23.1211H104.424C104.82 22.2666 105.654 21.7539 106.652 21.7539C108.061 21.7539 108.97 22.6768 108.97 24.0918V29H107.78V24.3652C107.78 23.3877 107.24 22.8066 106.304 22.8066C105.36 22.8066 104.697 23.5107 104.697 24.4814V29H103.508V24.2354C103.508 23.374 102.934 22.8066 102.052 22.8066C101.108 22.8066 100.425 23.5518 100.425 24.543V29H99.2354ZM113.413 29.1367C111.369 29.1367 110.139 27.708 110.139 25.4727V25.4658C110.139 23.2646 111.396 21.7539 113.338 21.7539C115.279 21.7539 116.462 23.1963 116.462 25.3291V25.7666H111.342C111.369 27.2295 112.176 28.084 113.44 28.084C114.343 28.084 114.979 27.6328 115.184 27.0244L115.204 26.9629H116.373L116.359 27.0312C116.127 28.207 114.965 29.1367 113.413 29.1367ZM113.331 22.8066C112.299 22.8066 111.492 23.5107 111.362 24.8369H115.252C115.136 23.4561 114.37 22.8066 113.331 22.8066ZM117.665 29V21.8906H118.854V23.0938H118.882C119.121 22.2734 119.736 21.7539 120.536 21.7539C120.741 21.7539 120.919 21.7881 121.015 21.8018V22.957C120.919 22.9229 120.666 22.8887 120.379 22.8887C119.456 22.8887 118.854 23.5312 118.854 24.6113V29H117.665ZM123.927 29.1367C122.512 29.1367 121.562 28.2822 121.562 26.9902V26.9766C121.562 25.7666 122.505 25.0078 124.139 24.9121L126.176 24.7959V24.2012C126.176 23.333 125.608 22.8066 124.617 22.8066C123.701 22.8066 123.127 23.2441 122.99 23.8799L122.977 23.9414H121.828L121.835 23.8662C121.938 22.6973 122.956 21.7539 124.631 21.7539C126.312 21.7539 127.365 22.6631 127.365 24.085V29H126.176V27.8447H126.148C125.731 28.624 124.877 29.1367 123.927 29.1367ZM122.778 26.9902C122.778 27.6738 123.339 28.1045 124.193 28.1045C125.314 28.1045 126.176 27.332 126.176 26.2998V25.7188L124.275 25.835C123.325 25.8896 122.778 26.3135 122.778 26.9766V26.9902Z" fill="#C4C4C4"/>
<path d="M51.2607 45V36.6533H51.2266L48.6494 38.4307V36.9814L51.2471 35.1357H52.7578V45H51.2607ZM55.1641 45V43.9473L58.6367 40.4541C59.9492 39.1416 60.2432 38.6221 60.2432 37.8564V37.8428C60.2363 36.9062 59.5254 36.2363 58.5273 36.2363C57.3721 36.2363 56.5449 37.0156 56.5312 38.0137V38.0547H55.082V38.0137C55.082 36.25 56.5791 34.9717 58.5068 34.9717C60.4004 34.9717 61.7539 36.1611 61.7539 37.7539V37.7676C61.7539 38.8955 61.2275 39.6953 59.457 41.4453L57.2148 43.6465V43.708H61.9111V45H55.1641ZM66.2588 45V35.1357H68.0293L71.2217 43.0107H71.2627L74.4619 35.1357H76.2256V45H74.8311V37.7197H74.7832L71.8096 45H70.6748L67.7012 37.7197H67.6533V45H66.2588ZM78.0439 45V35.1357H81.7148C83.6494 35.1357 84.9893 36.4346 84.9893 38.3691V38.3828C84.9893 40.3105 83.6494 41.6299 81.7148 41.6299H79.5752V45H78.0439ZM81.332 36.4277H79.5752V40.3447H81.332C82.665 40.3447 83.4307 39.627 83.4307 38.3896V38.376C83.4307 37.1455 82.665 36.4277 81.332 36.4277Z" fill="#4E4E4E"/>
</svg>
