<svg width="158" height="56" viewBox="0 0 158 56" fill="none" xmlns="http://www.w3.org/2000/svg">
<rect x="0.666687" width="56" height="56" rx="11" fill="#F6F6F6"/>
<path d="M27.4567 31.17C27.2567 31.17 27.0667 31.09 26.9267 30.95L24.5067 28.53C24.2167 28.24 24.2167 27.76 24.5067 27.47C24.7967 27.18 25.2767 27.18 25.5667 27.47L27.4567 29.36L31.7567 25.06C32.0467 24.77 32.5267 24.77 32.8167 25.06C33.1067 25.35 33.1067 25.83 32.8167 26.12L27.9867 30.95C27.8467 31.09 27.6567 31.17 27.4567 31.17Z" fill="#797979"/>
<path d="M28.6667 38.75C28.0367 38.75 27.4067 38.54 26.9167 38.12L25.3367 36.76C25.1767 36.62 24.7767 36.48 24.5667 36.48H22.8467C21.3667 36.48 20.1667 35.28 20.1667 33.8V32.09C20.1667 31.88 20.0267 31.49 19.8867 31.33L18.5367 29.74C17.7167 28.77 17.7167 27.24 18.5367 26.27L19.8867 24.68C20.0267 24.52 20.1667 24.13 20.1667 23.92V22.2C20.1667 20.72 21.3667 19.52 22.8467 19.52H24.5767C24.7867 19.52 25.1867 19.37 25.3467 19.24L26.9267 17.88C27.9067 17.04 29.4367 17.04 30.4167 17.88L31.9967 19.24C32.1567 19.38 32.5567 19.52 32.7667 19.52H34.4667C35.9467 19.52 37.1467 20.72 37.1467 22.2V23.9C37.1467 24.11 37.2967 24.51 37.4367 24.67L38.7967 26.25C39.6367 27.23 39.6367 28.76 38.7967 29.74L37.4367 31.32C37.2967 31.48 37.1467 31.88 37.1467 32.09V33.79C37.1467 35.27 35.9467 36.47 34.4667 36.47H32.7667C32.5567 36.47 32.1567 36.62 31.9967 36.75L30.4167 38.11C29.9267 38.54 29.2967 38.75 28.6667 38.75ZM22.8467 21.02C22.1967 21.02 21.6667 21.55 21.6667 22.2V23.91C21.6667 24.48 21.3967 25.21 21.0267 25.64L19.6767 27.23C19.3267 27.64 19.3267 28.35 19.6767 28.76L21.0267 30.35C21.3967 30.79 21.6667 31.51 21.6667 32.08V33.79C21.6667 34.44 22.1967 34.97 22.8467 34.97H24.5767C25.1567 34.97 25.8867 35.24 26.3267 35.62L27.9067 36.98C28.3167 37.33 29.0367 37.33 29.4467 36.98L31.0267 35.62C31.4667 35.25 32.1967 34.97 32.7767 34.97H34.4767C35.1267 34.97 35.6567 34.44 35.6567 33.79V32.09C35.6567 31.51 35.9267 30.78 36.3067 30.34L37.6667 28.76C38.0167 28.35 38.0167 27.63 37.6667 27.22L36.3067 25.64C35.9267 25.2 35.6567 24.47 35.6567 23.89V22.2C35.6567 21.55 35.1267 21.02 34.4767 21.02H32.7767C32.1967 21.02 31.4667 20.75 31.0267 20.37L29.4467 19.01C29.0367 18.66 28.3167 18.66 27.9067 19.01L26.3267 20.38C25.8867 20.75 25.1467 21.02 24.5767 21.02H22.8467Z" fill="#797979"/>
<path d="M82.0729 16.8984C82.0729 19.5713 80.4938 21.1641 77.821 21.1641C74.9977 21.1641 73.2204 19.1885 73.2204 16.0234C73.2204 12.9131 74.9909 10.9717 77.8005 10.9717C79.9948 10.9717 81.6559 12.2705 81.9977 14.2393H80.4255C80.0563 13.0156 79.0925 12.3115 77.8073 12.3115C75.9206 12.3115 74.7858 13.6924 74.7858 16.0098C74.7858 18.3682 75.9548 19.8242 77.8347 19.8242C79.4343 19.8242 80.5417 18.7988 80.5622 17.3018V17.1309H78.0124V15.8936H82.0729V16.8984ZM89.5583 13.8086V21H88.1432V19.7832H88.1091C87.7126 20.6445 86.9811 21.1299 85.8806 21.1299C84.3151 21.1299 83.3581 20.1113 83.3581 18.4639V13.8086H84.8347V18.1768C84.8347 19.2705 85.3542 19.8584 86.3727 19.8584C87.4391 19.8584 88.0817 19.1201 88.0817 17.999V13.8086H89.5583ZM93.5368 19.9541C94.569 19.9541 95.3757 19.2432 95.3757 18.3066V17.7393L93.6052 17.8486C92.7233 17.9102 92.2243 18.2998 92.2243 18.915C92.2243 19.5439 92.7438 19.9541 93.5368 19.9541ZM93.1266 21.123C91.7184 21.123 90.7341 20.248 90.7341 18.9561C90.7341 17.6982 91.6979 16.9258 93.4069 16.8301L95.3757 16.7139V16.1602C95.3757 15.3604 94.8356 14.8818 93.9333 14.8818C93.0788 14.8818 92.5456 15.292 92.4157 15.9346H91.0212C91.1032 14.6357 92.2106 13.6787 93.988 13.6787C95.7311 13.6787 96.8454 14.6016 96.8454 16.0439V21H95.4304V19.8174H95.3962C94.9792 20.6172 94.07 21.123 93.1266 21.123ZM98.2809 21V13.8086H99.6891V15.0322H99.7233C99.9626 14.1914 100.605 13.6924 101.453 13.6924C101.665 13.6924 101.849 13.7266 101.959 13.7471V15.1211C101.842 15.0732 101.583 15.0391 101.296 15.0391C100.345 15.0391 99.7575 15.6748 99.7575 16.6934V21H98.2809ZM105.24 19.9541C106.272 19.9541 107.079 19.2432 107.079 18.3066V17.7393L105.308 17.8486C104.426 17.9102 103.927 18.2998 103.927 18.915C103.927 19.5439 104.447 19.9541 105.24 19.9541ZM104.83 21.123C103.422 21.123 102.437 20.248 102.437 18.9561C102.437 17.6982 103.401 16.9258 105.11 16.8301L107.079 16.7139V16.1602C107.079 15.3604 106.539 14.8818 105.636 14.8818C104.782 14.8818 104.249 15.292 104.119 15.9346H102.724C102.806 14.6357 103.914 13.6787 105.691 13.6787C107.434 13.6787 108.549 14.6016 108.549 16.0439V21H107.133V19.8174H107.099C106.682 20.6172 105.773 21.123 104.83 21.123ZM109.984 21V13.8086H111.392V15.0117H111.426C111.816 14.1914 112.582 13.6855 113.689 13.6855C115.275 13.6855 116.184 14.6973 116.184 16.3447V21H114.701V16.6318C114.701 15.5518 114.195 14.957 113.17 14.957C112.131 14.957 111.461 15.6953 111.461 16.8096V21H109.984ZM118.044 12.1064H119.527V13.8086H120.894V14.9775H119.527V18.9424C119.527 19.5645 119.8 19.8447 120.402 19.8447C120.552 19.8447 120.792 19.8311 120.887 19.8105V20.9795C120.723 21.0205 120.395 21.0479 120.067 21.0479C118.611 21.0479 118.044 20.4941 118.044 19.1064V14.9775H116.998V13.8086H118.044V12.1064ZM124.941 14.8682C123.909 14.8682 123.184 15.6543 123.109 16.7412H126.705C126.671 15.6406 125.973 14.8682 124.941 14.8682ZM126.698 18.8877H128.099C127.894 20.2002 126.65 21.1367 125.003 21.1367C122.89 21.1367 121.612 19.708 121.612 17.4385C121.612 15.1826 122.911 13.6787 124.941 13.6787C126.937 13.6787 128.181 15.0869 128.181 17.2676V17.7734H123.102V17.8623C123.102 19.1133 123.854 19.9404 125.037 19.9404C125.878 19.9404 126.5 19.5166 126.698 18.8877ZM132.338 14.8682C131.305 14.8682 130.581 15.6543 130.506 16.7412H134.101C134.067 15.6406 133.37 14.8682 132.338 14.8682ZM134.094 18.8877H135.496C135.291 20.2002 134.047 21.1367 132.399 21.1367C130.287 21.1367 129.008 19.708 129.008 17.4385C129.008 15.1826 130.307 13.6787 132.338 13.6787C134.334 13.6787 135.578 15.0869 135.578 17.2676V17.7734H130.499V17.8623C130.499 19.1133 131.251 19.9404 132.433 19.9404C133.274 19.9404 133.896 19.5166 134.094 18.8877ZM139.426 21.123C137.608 21.123 136.405 19.6738 136.405 17.4043C136.405 15.1348 137.608 13.6924 139.413 13.6924C140.445 13.6924 141.265 14.2119 141.669 15.0049H141.696V11.1357H143.179V21H141.744V19.7764H141.716C141.293 20.5967 140.472 21.123 139.426 21.123ZM139.816 14.9365C138.647 14.9365 137.916 15.8936 137.916 17.4043C137.916 18.9219 138.647 19.8721 139.816 19.8721C140.951 19.8721 141.71 18.9082 141.71 17.4043C141.71 15.9141 140.951 14.9365 139.816 14.9365Z" fill="#717171"/>
<path d="M75.9274 45V36.6533H75.8932L73.3161 38.4854V36.9814L75.9138 35.1357H77.4245V45H75.9274ZM83.3513 47.6797C83.235 47.6797 82.8591 47.666 82.7497 47.6455V46.4492C82.8591 46.4766 83.1052 46.4766 83.2282 46.4766C83.9186 46.4766 84.2809 46.1895 84.5065 45.4512C84.5065 45.4375 84.6364 45.0137 84.6364 45.0068L82.0388 37.8086H83.6384L85.4636 43.6602H85.4841L87.3093 37.8086H88.8679L86.1677 45.376C85.5524 47.1191 84.8483 47.6797 83.3513 47.6797ZM92.5388 38.8682C91.5065 38.8682 90.7819 39.6543 90.7067 40.7412H94.3024C94.2682 39.6406 93.571 38.8682 92.5388 38.8682ZM94.2956 42.8877H95.697C95.4919 44.2002 94.2477 45.1367 92.6003 45.1367C90.488 45.1367 89.2097 43.708 89.2097 41.4385C89.2097 39.1826 90.5085 37.6787 92.5388 37.6787C94.5349 37.6787 95.779 39.0869 95.779 41.2676V41.7734H90.6999V41.8623C90.6999 43.1133 91.4518 43.9404 92.6345 43.9404C93.4753 43.9404 94.0974 43.5166 94.2956 42.8877ZM99.4431 43.9541C100.475 43.9541 101.282 43.2432 101.282 42.3066V41.7393L99.5114 41.8486C98.6296 41.9102 98.1306 42.2998 98.1306 42.915C98.1306 43.5439 98.6501 43.9541 99.4431 43.9541ZM99.0329 45.123C97.6247 45.123 96.6403 44.248 96.6403 42.9561C96.6403 41.6982 97.6042 40.9258 99.3132 40.8301L101.282 40.7139V40.1602C101.282 39.3604 100.742 38.8818 99.8395 38.8818C98.985 38.8818 98.4518 39.292 98.322 39.9346H96.9274C97.0095 38.6357 98.1169 37.6787 99.8942 37.6787C101.637 37.6787 102.752 38.6016 102.752 40.0439V45H101.337V43.8174H101.302C100.885 44.6172 99.9763 45.123 99.0329 45.123ZM104.187 45V37.8086H105.595V39.0322H105.63C105.869 38.1914 106.511 37.6924 107.359 37.6924C107.571 37.6924 107.756 37.7266 107.865 37.7471V39.1211C107.749 39.0732 107.489 39.0391 107.202 39.0391C106.252 39.0391 105.664 39.6748 105.664 40.6934V45H104.187Z" fill="black"/>
</svg>
