<svg width="158" height="56" viewBox="0 0 158 56" fill="none" xmlns="http://www.w3.org/2000/svg">
<rect x="0.333328" width="56" height="56" rx="11" fill="#F6F6F6"/>
<path fill-rule="evenodd" clip-rule="evenodd" d="M23.7686 17.25H32.898C33.4679 17.25 33.9519 17.25 34.3518 17.2913C34.7776 17.3353 35.1711 17.4309 35.5429 17.6607C35.9147 17.8905 36.1762 18.1997 36.406 18.5609C36.6218 18.9001 36.8382 19.333 37.0931 19.8428L37.1096 19.8757C37.1193 19.8952 37.1282 19.915 37.1362 19.9353L38.5398 23.4834C38.7068 23.9056 38.8919 24.4323 38.946 24.9713C39.0014 25.5226 38.9254 26.1541 38.4934 26.7019C38.1401 27.15 37.6488 27.4863 37.0833 27.6463V37.25H38.3333C38.7475 37.25 39.0833 37.5858 39.0833 38C39.0833 38.4142 38.7475 38.75 38.3333 38.75H18.3333C17.9191 38.75 17.5833 38.4142 17.5833 38C17.5833 37.5858 17.9191 37.25 18.3333 37.25H19.5833V27.6464C19.0178 27.4863 18.5264 27.15 18.1731 26.7019C17.7411 26.1541 17.6651 25.5226 17.7205 24.9713C17.7746 24.4323 17.9597 23.9056 18.1267 23.4834L19.5303 19.9353C19.5383 19.915 19.5472 19.8952 19.5569 19.8757L19.5734 19.8428C19.8283 19.333 20.0447 18.9001 20.2606 18.5609C20.4904 18.1997 20.7519 17.8905 21.1236 17.6607C21.4954 17.4309 21.8889 17.3353 22.3147 17.2913C22.7147 17.25 23.1986 17.25 23.7686 17.25ZM34.3332 26.8875C34.6692 27.2433 35.0991 27.5096 35.5833 27.6465V37.25H31.5833V34.4678C31.5833 34.028 31.5833 33.6486 31.5551 33.3374C31.5253 33.0082 31.4592 32.6822 31.2819 32.375C31.0844 32.033 30.8003 31.7489 30.4583 31.5514C30.1511 31.3741 29.8251 31.308 29.496 31.2782C29.1847 31.25 28.8053 31.25 28.3655 31.25H28.3011C27.8613 31.25 27.4819 31.25 27.1706 31.2782C26.8415 31.308 26.5155 31.3741 26.2083 31.5514C25.8663 31.7489 25.5822 32.033 25.3848 32.375C25.2074 32.6822 25.1413 33.0082 25.1115 33.3374C25.0833 33.6486 25.0833 34.028 25.0833 34.4677V37.25H21.0833V27.6465C21.5675 27.5095 21.9973 27.2433 22.3332 26.8875C22.8346 27.4186 23.5452 27.75 24.3332 27.75C25.1213 27.75 25.8319 27.4186 26.3332 26.8875C26.8346 27.4186 27.5452 27.75 28.3332 27.75C29.1212 27.75 29.8318 27.4186 30.3332 26.8875C30.8346 27.4186 31.5452 27.75 32.3332 27.75C33.1212 27.75 33.8318 27.4186 34.3332 26.8875ZM26.5833 37.25H30.0833V34.5C30.0833 34.0189 30.0826 33.7082 30.0612 33.4727C30.0408 33.2476 30.0064 33.1659 29.9828 33.125C29.917 33.011 29.8223 32.9163 29.7083 32.8505C29.6674 32.8269 29.5857 32.7925 29.3606 32.7721C29.1251 32.7507 28.8144 32.75 28.3333 32.75C27.8522 32.75 27.5415 32.7507 27.306 32.7721C27.0809 32.7925 26.9992 32.8269 26.9583 32.8505C26.8443 32.9163 26.7496 33.011 26.6838 33.125C26.6602 33.1659 26.6258 33.2476 26.6054 33.4727C26.584 33.7082 26.5833 34.0189 26.5833 34.5V37.25ZM23.0832 25C23.0832 25.6904 23.6429 26.25 24.3332 26.25C25.0236 26.25 25.5832 25.6904 25.5832 25C25.5832 24.5858 25.919 24.25 26.3332 24.25C26.7474 24.25 27.0832 24.5858 27.0832 25C27.0832 25.6904 27.6429 26.25 28.3332 26.25C29.0236 26.25 29.5832 25.6904 29.5832 25C29.5832 24.5858 29.919 24.25 30.3332 24.25C30.7474 24.25 31.0832 24.5858 31.0832 25C31.0832 25.6904 31.6429 26.25 32.3332 26.25C33.0236 26.25 33.5832 25.6904 33.5832 25C33.5832 24.5858 33.919 24.25 34.3332 24.25C34.7474 24.25 35.0832 24.5858 35.0832 25C35.0832 25.6904 35.6429 26.25 36.3332 26.25C36.7312 26.25 37.0855 26.0649 37.3156 25.7731C37.4295 25.6286 37.4846 25.4309 37.4535 25.1211C37.4212 24.799 37.3023 24.4328 37.145 24.0352L35.7534 20.5174C35.4857 19.982 35.3068 19.6275 35.1404 19.3661C34.9805 19.1147 34.8658 19.0056 34.7543 18.9367C34.6428 18.8678 34.4939 18.814 34.1975 18.7834C33.8838 18.7509 33.4779 18.75 32.8611 18.75H23.8055C23.1887 18.75 22.7827 18.7509 22.469 18.7834C22.1726 18.814 22.0238 18.8678 21.9122 18.9367C21.8007 19.0056 21.6861 19.1147 21.5261 19.3661C21.3598 19.6275 21.1809 19.982 20.9132 20.5174L19.5216 24.0352C19.3643 24.4328 19.2453 24.799 19.213 25.1212C19.1819 25.431 19.237 25.6286 19.3509 25.7731C19.581 26.0649 19.9353 26.25 20.3332 26.25C21.0236 26.25 21.5832 25.6904 21.5832 25C21.5832 24.5858 21.919 24.25 22.3332 24.25C22.7475 24.25 23.0832 24.5858 23.0832 25Z" fill="#797979"/>
<path d="M74.7738 21H73.2425V11.1357H74.7738V21ZM76.4144 21V13.8086H77.8226V15.0117H77.8568C78.2464 14.1914 79.012 13.6855 80.1195 13.6855C81.7054 13.6855 82.6146 14.6973 82.6146 16.3447V21H81.1312V16.6318C81.1312 15.5518 80.6253 14.957 79.5999 14.957C78.5609 14.957 77.8909 15.6953 77.8909 16.8096V21H76.4144ZM86.6273 18.252H88.138C88.2474 19.2295 89.1976 19.8721 90.4964 19.8721C91.7406 19.8721 92.6361 19.2295 92.6361 18.3477C92.6361 17.582 92.096 17.124 90.8177 16.8096L89.5394 16.502C87.7279 16.0645 86.887 15.2168 86.887 13.8428C86.887 12.1406 88.3704 10.9717 90.4759 10.9717C92.5609 10.9717 93.9896 12.1406 94.0374 13.8428H92.5472C92.4583 12.8584 91.6449 12.2637 90.4554 12.2637C89.2659 12.2637 88.4525 12.8652 88.4525 13.7402C88.4525 14.4375 88.972 14.8477 90.2435 15.1621L91.3304 15.4287C93.3538 15.9072 94.1947 16.7207 94.1947 18.1631C94.1947 20.0088 92.7249 21.1641 90.387 21.1641C88.1995 21.1641 86.723 20.0361 86.6273 18.252ZM95.8216 12.1064H97.305V13.8086H98.6722V14.9775H97.305V18.9424C97.305 19.5645 97.5784 19.8447 98.18 19.8447C98.3304 19.8447 98.5697 19.8311 98.6654 19.8105V20.9795C98.5013 21.0205 98.1732 21.0479 97.845 21.0479C96.389 21.0479 95.8216 20.4941 95.8216 19.1064V14.9775H94.7757V13.8086H95.8216V12.1064ZM102.801 21.1367C100.743 21.1367 99.39 19.7217 99.39 17.4043C99.39 15.0938 100.75 13.6787 102.801 13.6787C104.852 13.6787 106.212 15.0938 106.212 17.4043C106.212 19.7217 104.859 21.1367 102.801 21.1367ZM102.801 19.9199C103.963 19.9199 104.708 19.0039 104.708 17.4043C104.708 15.8115 103.956 14.8955 102.801 14.8955C101.646 14.8955 100.894 15.8115 100.894 17.4043C100.894 19.0039 101.646 19.9199 102.801 19.9199ZM113.527 16.2832H112.118C111.968 15.5176 111.394 14.9092 110.43 14.9092C109.288 14.9092 108.536 15.8594 108.536 17.4043C108.536 18.9834 109.295 19.8994 110.444 19.8994C111.353 19.8994 111.948 19.4004 112.118 18.5664H113.54C113.383 20.0977 112.16 21.1367 110.43 21.1367C108.372 21.1367 107.033 19.7285 107.033 17.4043C107.033 15.1211 108.372 13.6787 110.416 13.6787C112.269 13.6787 113.397 14.8682 113.527 16.2832ZM116.131 16.8916L119.036 13.8086H120.773L117.792 16.9053L120.889 21H119.173L116.733 17.8076L116.118 18.416V21H114.641V11.1357H116.118V16.8916H116.131Z" fill="#717171"/>
<path d="M77.221 45H75.6898V36.4551H72.6683V35.1357H80.2357V36.4551H77.221V45ZM82.6351 45.1367C80.5775 45.1367 79.224 43.7217 79.224 41.4043C79.224 39.0938 80.5843 37.6787 82.6351 37.6787C84.6859 37.6787 86.0462 39.0938 86.0462 41.4043C86.0462 43.7217 84.6927 45.1367 82.6351 45.1367ZM82.6351 43.9199C83.7972 43.9199 84.5423 43.0039 84.5423 41.4043C84.5423 39.8115 83.7904 38.8955 82.6351 38.8955C81.4798 38.8955 80.7279 39.8115 80.7279 41.4043C80.7279 43.0039 81.4798 43.9199 82.6351 43.9199ZM89.888 45.123C88.0697 45.123 86.8665 43.6738 86.8665 41.4043C86.8665 39.1348 88.0697 37.6924 89.8743 37.6924C90.9066 37.6924 91.7269 38.2119 92.1302 39.0049H92.1575V35.1357H93.6409V45H92.2054V43.7764H92.1781C91.7542 44.5967 90.9339 45.123 89.888 45.123ZM90.2777 38.9365C89.1087 38.9365 88.3773 39.8936 88.3773 41.4043C88.3773 42.9219 89.1087 43.8721 90.2777 43.8721C91.4124 43.8721 92.1712 42.9082 92.1712 41.4043C92.1712 39.9141 91.4124 38.9365 90.2777 38.9365ZM97.6741 43.9541C98.7064 43.9541 99.513 43.2432 99.513 42.3066V41.7393L97.7425 41.8486C96.8607 41.9102 96.3616 42.2998 96.3616 42.915C96.3616 43.5439 96.8812 43.9541 97.6741 43.9541ZM97.264 45.123C95.8558 45.123 94.8714 44.248 94.8714 42.9561C94.8714 41.6982 95.8353 40.9258 97.5443 40.8301L99.513 40.7139V40.1602C99.513 39.3604 98.973 38.8818 98.0706 38.8818C97.2161 38.8818 96.6829 39.292 96.5531 39.9346H95.1585C95.2406 38.6357 96.348 37.6787 98.1253 37.6787C99.8685 37.6787 100.983 38.6016 100.983 40.0439V45H99.5677V43.8174H99.5335C99.1165 44.6172 98.2074 45.123 97.264 45.123ZM103.129 47.6797C103.013 47.6797 102.637 47.666 102.528 47.6455V46.4492C102.637 46.4766 102.883 46.4766 103.006 46.4766C103.697 46.4766 104.059 46.1895 104.285 45.4512C104.285 45.4375 104.414 45.0137 104.414 45.0068L101.817 37.8086H103.416L105.242 43.6602H105.262L107.087 37.8086H108.646L105.946 45.376C105.33 47.1191 104.626 47.6797 103.129 47.6797Z" fill="black"/>
</svg>
