<svg width="876" height="18" viewBox="0 0 876 18" fill="none" xmlns="http://www.w3.org/2000/svg">
<path d="M1.16895 14V1.31738H6.23145C8.48145 1.31738 9.95801 2.57422 9.95801 4.49023V4.50781C9.95801 5.84375 8.94727 7.08301 7.61133 7.27637V7.31152C9.41309 7.49609 10.582 8.73535 10.582 10.4053V10.4229C10.582 12.6465 8.95605 14 6.25781 14H1.16895ZM5.75684 2.92578H3.1377V6.72266H5.31738C7.05762 6.72266 7.99805 6.01953 7.99805 4.74512V4.72754C7.99805 3.56738 7.18066 2.92578 5.75684 2.92578ZM5.72168 8.24316H3.1377V12.3916H5.85352C7.62012 12.3916 8.56934 11.6797 8.56934 10.3262V10.3086C8.56934 8.94629 7.60254 8.24316 5.72168 8.24316ZM15.9961 14.1846C13.2803 14.1846 11.6367 12.3301 11.6367 9.41211V9.40332C11.6367 6.51172 13.3066 4.57812 15.8994 4.57812C18.4922 4.57812 20.083 6.44141 20.083 9.21875V9.86035H13.5352C13.5703 11.6094 14.5283 12.6289 16.04 12.6289C17.165 12.6289 17.9121 12.0488 18.1494 11.3545L18.1758 11.2842H19.9775L19.96 11.3809C19.6611 12.8486 18.2373 14.1846 15.9961 14.1846ZM15.9082 6.13379C14.6777 6.13379 13.7285 6.96875 13.5615 8.51562H18.2021C18.0439 6.91602 17.1475 6.13379 15.9082 6.13379ZM21.6299 14V1.31738H23.5283V14H21.6299ZM29.4521 14.1846C26.7979 14.1846 25.0664 12.3477 25.0664 9.37695V9.35938C25.0664 6.40625 26.8154 4.57812 29.4434 4.57812C32.0801 4.57812 33.8379 6.39746 33.8379 9.35938V9.37695C33.8379 12.3564 32.0977 14.1846 29.4521 14.1846ZM29.4609 12.5938C30.9463 12.5938 31.8955 11.416 31.8955 9.37695V9.35938C31.8955 7.33789 30.9287 6.16895 29.4434 6.16895C27.9844 6.16895 27.0088 7.33789 27.0088 9.35938V9.37695C27.0088 11.4248 27.9756 12.5938 29.4609 12.5938ZM37.0898 14L34.5498 4.75391H36.4482L38.1357 12.0312H38.1709L40.0957 4.75391H41.9238L43.8574 12.0312H43.9014L45.5889 4.75391H47.4697L44.9385 14H42.9609L41.0186 7.07422H40.9746L39.0498 14H37.0898ZM51.5742 14L56.1885 1.31738H58.3154L62.9209 14H60.8555L59.6953 10.5723H54.8086L53.6396 14H51.5742ZM57.2344 3.41797L55.3359 8.99023H59.1592L57.2695 3.41797H57.2344ZM65.8828 14L62.5518 4.75391H64.5732L66.8936 12.1455H66.9375L69.2578 4.75391H71.2354L67.9219 14H65.8828ZM75.9199 14.1846C73.2041 14.1846 71.5605 12.3301 71.5605 9.41211V9.40332C71.5605 6.51172 73.2305 4.57812 75.8232 4.57812C78.416 4.57812 80.0068 6.44141 80.0068 9.21875V9.86035H73.459C73.4941 11.6094 74.4521 12.6289 75.9639 12.6289C77.0889 12.6289 77.8359 12.0488 78.0732 11.3545L78.0996 11.2842H79.9014L79.8838 11.3809C79.585 12.8486 78.1611 14.1846 75.9199 14.1846ZM75.832 6.13379C74.6016 6.13379 73.6523 6.96875 73.4854 8.51562H78.126C77.9678 6.91602 77.0713 6.13379 75.832 6.13379ZM81.4834 14V4.75391H83.3818V6.33594H83.4258C83.7246 5.25488 84.498 4.57812 85.5527 4.57812C85.8252 4.57812 86.0625 4.62207 86.2119 4.64844V6.41504C86.0625 6.35352 85.7285 6.30957 85.3594 6.30957C84.1377 6.30957 83.3818 7.10938 83.3818 8.48926V14H81.4834ZM89.9121 14.167C88.0664 14.167 86.8271 13.0332 86.8271 11.3721V11.3545C86.8271 9.74609 88.0752 8.76172 90.2637 8.62988L92.7773 8.48047V7.78613C92.7773 6.7666 92.1182 6.15137 90.9404 6.15137C89.8418 6.15137 89.165 6.66992 89.0068 7.4082L88.9893 7.4873H87.1963L87.2051 7.39062C87.3369 5.7998 88.7168 4.57812 90.9932 4.57812C93.252 4.57812 94.6846 5.77344 94.6846 7.62793V14H92.7773V12.541H92.7422C92.2061 13.5342 91.1338 14.167 89.9121 14.167ZM88.7432 11.3281C88.7432 12.1367 89.4111 12.6465 90.4307 12.6465C91.7666 12.6465 92.7773 11.7412 92.7773 10.5371V9.81641L90.5186 9.95703C89.376 10.0273 88.7432 10.5283 88.7432 11.3105V11.3281ZM100.582 17.2607C98.209 17.2607 96.7061 16.1621 96.4248 14.7471L96.416 14.668H98.2969L98.332 14.7383C98.5869 15.3271 99.3867 15.7314 100.573 15.7314C102.085 15.7314 102.92 14.9229 102.92 13.6309V12.3652H102.876C102.349 13.3672 101.294 14.0088 99.9668 14.0088C97.6465 14.0088 96.1172 12.1895 96.1172 9.30664V9.29785C96.1172 6.39746 97.6641 4.57812 100.011 4.57812C101.312 4.57812 102.331 5.28125 102.876 6.32715H102.92V4.75391H104.827V13.7451C104.827 15.8545 103.192 17.2607 100.582 17.2607ZM100.503 12.4619C101.953 12.4619 102.92 11.2402 102.92 9.33301V9.32422C102.92 7.42578 101.944 6.2041 100.503 6.2041C99 6.2041 98.0596 7.41699 98.0596 9.32422V9.33301C98.0596 11.2666 99 12.4619 100.503 12.4619ZM110.654 14.1846C107.938 14.1846 106.295 12.3301 106.295 9.41211V9.40332C106.295 6.51172 107.965 4.57812 110.558 4.57812C113.15 4.57812 114.741 6.44141 114.741 9.21875V9.86035H108.193C108.229 11.6094 109.187 12.6289 110.698 12.6289C111.823 12.6289 112.57 12.0488 112.808 11.3545L112.834 11.2842H114.636L114.618 11.3809C114.319 12.8486 112.896 14.1846 110.654 14.1846ZM110.566 6.13379C109.336 6.13379 108.387 6.96875 108.22 8.51562H112.86C112.702 6.91602 111.806 6.13379 110.566 6.13379Z" fill="black"/>
<g clip-path="url(#clip0_320_1848)">
<rect width="365.5" height="5" rx="2.5" transform="matrix(-1 0 0 1 843 5.5)" fill="#D9D9D9"/>
<rect width="365.5" height="5" rx="2.5" transform="matrix(-1 0 0 1 497.5 5.5)" fill="#FFB547"/>
</g>
<path opacity="0.4" d="M871.062 14.1875C868.57 14.1875 866.805 12.8516 866.805 10.9453V10.9297C866.805 9.50781 867.828 8.38281 869.297 8.0625V8.02344C868.039 7.66406 867.219 6.72656 867.219 5.53125V5.51562C867.219 3.79688 868.82 2.53906 871.062 2.53906C873.305 2.53906 874.914 3.79688 874.914 5.51562V5.53125C874.914 6.72656 874.094 7.66406 872.836 8.02344V8.0625C874.305 8.38281 875.32 9.50781 875.32 10.9297V10.9453C875.32 12.8516 873.562 14.1875 871.062 14.1875ZM871.062 7.4375C872.32 7.4375 873.18 6.71094 873.18 5.6875V5.67188C873.18 4.64062 872.312 3.92188 871.062 3.92188C869.812 3.92188 868.953 4.64062 868.953 5.67188V5.6875C868.953 6.71094 869.812 7.4375 871.062 7.4375ZM871.062 12.7891C872.5 12.7891 873.523 11.9688 873.523 10.8281V10.8125C873.523 9.66406 872.508 8.83594 871.062 8.83594C869.617 8.83594 868.602 9.66406 868.602 10.8125V10.8281C868.602 11.9688 869.625 12.7891 871.062 12.7891Z" fill="black"/>
<defs>
<clipPath id="clip0_320_1848">
<rect width="711" height="5" fill="white" transform="matrix(-1 0 0 1 843 5.5)"/>
</clipPath>
</defs>
</svg>
