<svg width="1040" height="32" viewBox="0 0 1040 32" fill="none" xmlns="http://www.w3.org/2000/svg">
<mask id="path-1-inside-1_158_730" fill="white">
<path d="M0 0H1040V32H0V0Z"/>
</mask>
<path d="M1040 31.5H0V32.5H1040V31.5Z" fill="#CDCDCD" mask="url(#path-1-inside-1_158_730)"/>
<path d="M5.35156 18H3.94531V7.99219H0.390625V6.72656H8.90625V7.99219H5.35156V18ZM10.25 18V6.72656H11.6094V11.1719H11.6406C12.0938 10.2656 12.9844 9.73438 14.2188 9.73438C16 9.73438 17.0781 10.9375 17.0781 12.75V18H15.7188V13C15.7188 11.7109 15.0703 10.9375 13.7969 10.9375C12.4453 10.9375 11.6094 11.8594 11.6094 13.2656V18H10.25ZM22.0625 10.9141C20.7891 10.9141 19.8984 11.8906 19.8125 13.2422H24.2266C24.1953 11.8828 23.3438 10.9141 22.0625 10.9141ZM24.1953 15.6719H25.5312C25.2969 17.0938 23.9219 18.1406 22.1484 18.1406C19.8203 18.1406 18.4062 16.5234 18.4062 13.9688C18.4062 11.4453 19.8438 9.73438 22.0859 9.73438C24.2812 9.73438 25.6328 11.3281 25.6328 13.7891V14.3047H19.8047V14.3828C19.8047 15.9375 20.7188 16.9609 22.1797 16.9609C23.2109 16.9609 23.9688 16.4375 24.1953 15.6719ZM34.2344 9.73438C36.3047 9.73438 37.7109 11.3906 37.7109 13.9375C37.7109 16.4844 36.3125 18.1406 34.2656 18.1406C33.1016 18.1406 32.1641 17.5703 31.6797 16.6797H31.6484V20.7109H30.2891V9.875H31.5781V11.25H31.6094C32.1094 10.3359 33.0547 9.73438 34.2344 9.73438ZM33.9688 16.9453C35.4141 16.9453 36.3203 15.7812 36.3203 13.9375C36.3203 12.1016 35.4141 10.9297 33.9688 10.9297C32.5781 10.9297 31.6406 12.1328 31.6406 13.9375C31.6406 15.75 32.5781 16.9453 33.9688 16.9453ZM39.1562 18V9.875H40.5156V18H39.1562ZM39.8359 8.50781C39.375 8.50781 38.9922 8.125 38.9922 7.66406C38.9922 7.19531 39.375 6.82031 39.8359 6.82031C40.3047 6.82031 40.6875 7.19531 40.6875 7.66406C40.6875 8.125 40.3047 8.50781 39.8359 8.50781ZM45.2266 14.9062H45.1953L43.2344 18H41.7266L44.4922 13.9375L41.7734 9.875H43.2891L45.2422 12.9219H45.2734L47.2031 9.875H48.7188L45.9766 13.8828L48.6797 18H47.1719L45.2266 14.9062ZM52.9688 10.9141C51.6953 10.9141 50.8047 11.8906 50.7188 13.2422H55.1328C55.1016 11.8828 54.25 10.9141 52.9688 10.9141ZM55.1016 15.6719H56.4375C56.2031 17.0938 54.8281 18.1406 53.0547 18.1406C50.7266 18.1406 49.3125 16.5234 49.3125 13.9688C49.3125 11.4453 50.75 9.73438 52.9922 9.73438C55.1875 9.73438 56.5391 11.3281 56.5391 13.7891V14.3047H50.7109V14.3828C50.7109 15.9375 51.625 16.9609 53.0859 16.9609C54.1172 16.9609 54.875 16.4375 55.1016 15.6719ZM57.9844 18V6.72656H59.3438V18H57.9844ZM67.5391 18.1406C65.4688 18.1406 64.0625 16.4844 64.0625 13.9375C64.0625 11.3906 65.4609 9.73438 67.5078 9.73438C68.6719 9.73438 69.6094 10.3047 70.0938 11.1953H70.125V6.72656H71.4844V18H70.1875V16.625H70.1641C69.6406 17.5625 68.7109 18.1406 67.5391 18.1406ZM67.7969 10.9297C66.3594 10.9297 65.4531 12.1016 65.4531 13.9375C65.4531 15.7812 66.3594 16.9453 67.7969 16.9453C69.1953 16.9453 70.1328 15.7578 70.1328 13.9375C70.1328 12.125 69.1953 10.9297 67.7969 10.9297ZM76.5781 10.9141C75.3047 10.9141 74.4141 11.8906 74.3281 13.2422H78.7422C78.7109 11.8828 77.8594 10.9141 76.5781 10.9141ZM78.7109 15.6719H80.0469C79.8125 17.0938 78.4375 18.1406 76.6641 18.1406C74.3359 18.1406 72.9219 16.5234 72.9219 13.9688C72.9219 11.4453 74.3594 9.73438 76.6016 9.73438C78.7969 9.73438 80.1484 11.3281 80.1484 13.7891V14.3047H74.3203V14.3828C74.3203 15.9375 75.2344 16.9609 76.6953 16.9609C77.7266 16.9609 78.4844 16.4375 78.7109 15.6719ZM81.5234 18V9.875H82.8047V11.1719H82.8359C83.2891 10.2969 84.1562 9.73438 85.4141 9.73438C87.1953 9.73438 88.2266 10.8828 88.2266 12.7266V18H86.8672V12.9688C86.8672 11.6562 86.25 10.9375 85 10.9375C83.7188 10.9375 82.8828 11.8438 82.8828 13.2188V18H81.5234ZM89.8203 12.1172C89.8203 10.7266 91.0625 9.73438 92.8516 9.73438C94.5312 9.73438 95.7656 10.7344 95.8281 12.1094H94.5312C94.4375 11.3281 93.8047 10.8438 92.8047 10.8438C91.8125 10.8438 91.1562 11.3359 91.1562 12.0469C91.1562 12.6094 91.5859 12.9844 92.5078 13.2188L93.7656 13.5234C95.4062 13.9375 96 14.5312 96 15.7266C96 17.1406 94.6641 18.1406 92.7656 18.1406C90.9844 18.1406 89.7422 17.1719 89.6016 15.7344H90.9609C91.1094 16.5781 91.75 17.0312 92.8516 17.0312C93.9531 17.0312 94.6328 16.5625 94.6328 15.8281C94.6328 15.25 94.2969 14.9375 93.3828 14.6953L91.9531 14.3281C90.5234 13.9609 89.8203 13.2266 89.8203 12.1172ZM97.4844 18V9.875H98.8438V18H97.4844ZM98.1641 8.50781C97.7031 8.50781 97.3203 8.125 97.3203 7.66406C97.3203 7.19531 97.7031 6.82031 98.1641 6.82031C98.6328 6.82031 99.0156 7.19531 99.0156 7.66406C99.0156 8.125 98.6328 8.50781 98.1641 8.50781ZM101.117 7.91406H102.477V9.875H104.055V10.9922H102.477V15.8203C102.477 16.5625 102.789 16.8984 103.484 16.8984C103.641 16.8984 103.953 16.875 104.047 16.8594V18C103.883 18.0391 103.508 18.0625 103.188 18.0625C101.695 18.0625 101.117 17.4531 101.117 15.8906V10.9922H99.9062V9.875H101.117V7.91406ZM106.18 21.0391C106.016 21.0391 105.742 21.0234 105.594 20.9922V19.8516C105.742 19.8828 105.953 19.8906 106.125 19.8906C106.883 19.8906 107.305 19.5234 107.617 18.5781L107.805 18.0078L104.805 9.875H106.258L108.508 16.6406H108.531L110.781 9.875H112.211L109.016 18.5703C108.32 20.4688 107.648 21.0391 106.18 21.0391Z" fill="black"/>
<path d="M994.881 17V14.8027H989.571V13.6089L994.208 6.43115H996.156V13.6455H997.65V14.8027H996.156V17H994.881ZM990.875 13.6455H994.881V7.55908H994.837L990.875 13.6162V13.6455ZM1002.75 17.1758C1000.8 17.1758 998.734 15.8281 998.734 11.9097V11.895C998.734 8.33545 1000.25 6.25537 1002.84 6.25537C1004.63 6.25537 1005.97 7.28076 1006.32 8.81885L1006.34 8.91406H1005L1004.97 8.8335C1004.66 7.96191 1003.9 7.41992 1002.82 7.41992C1000.85 7.41992 1000.07 9.33154 1000.02 11.5508C1000.01 11.624 1000.01 11.6973 1000.01 11.7778H1000.04C1000.46 10.8403 1001.55 10.0786 1002.98 10.0786C1005 10.0786 1006.49 11.5654 1006.49 13.5723V13.5869C1006.49 15.667 1004.91 17.1758 1002.75 17.1758ZM1000.32 13.5723C1000.32 14.9272 1001.38 16.0039 1002.73 16.0039C1004.08 16.0039 1005.15 14.9492 1005.15 13.6162V13.6016C1005.15 12.2246 1004.15 11.2358 1002.75 11.2358C1001.37 11.2358 1000.32 12.2173 1000.32 13.5649V13.5723ZM1011.87 17.1758C1009.43 17.1758 1007.99 15.0737 1007.99 11.7192V11.7046C1007.99 8.3501 1009.43 6.25537 1011.87 6.25537C1014.3 6.25537 1015.76 8.3501 1015.76 11.7046V11.7192C1015.76 15.0737 1014.3 17.1758 1011.87 17.1758ZM1011.87 16.0259C1013.48 16.0259 1014.43 14.3706 1014.43 11.7192V11.7046C1014.43 9.05322 1013.48 7.4126 1011.87 7.4126C1010.25 7.4126 1009.32 9.05322 1009.32 11.7046V11.7192C1009.32 14.3706 1010.25 16.0259 1011.87 16.0259ZM1020.33 19.5635V9.38281H1021.6V10.6719H1021.63C1022.11 9.78564 1022.96 9.23633 1024.05 9.23633C1025.99 9.23633 1027.28 10.7891 1027.28 13.1914V13.1987C1027.28 15.6011 1025.98 17.1465 1024.07 17.1465C1022.99 17.1465 1022.11 16.6045 1021.63 15.7256H1021.6V19.5635H1020.33ZM1023.8 16.0186C1025.15 16.0186 1025.98 14.9346 1025.98 13.1987V13.1914C1025.98 11.4409 1025.15 10.3643 1023.8 10.3643C1022.51 10.3643 1021.59 11.4849 1021.59 13.1914V13.1987C1021.59 14.8979 1022.52 16.0186 1023.8 16.0186ZM1028.57 19.5635V9.38281H1029.85V10.6719H1029.88C1030.35 9.78564 1031.2 9.23633 1032.29 9.23633C1034.24 9.23633 1035.53 10.7891 1035.53 13.1914V13.1987C1035.53 15.6011 1034.23 17.1465 1032.32 17.1465C1031.24 17.1465 1030.35 16.6045 1029.88 15.7256H1029.85V19.5635H1028.57ZM1032.04 16.0186C1033.39 16.0186 1034.23 14.9346 1034.23 13.1987V13.1914C1034.23 11.4409 1033.39 10.3643 1032.04 10.3643C1030.76 10.3643 1029.84 11.4849 1029.84 13.1914V13.1987C1029.84 14.8979 1030.76 16.0186 1032.04 16.0186ZM1037.54 8.09375C1037.1 8.09375 1036.74 7.73486 1036.74 7.29541C1036.74 6.84863 1037.1 6.49707 1037.54 6.49707C1037.98 6.49707 1038.34 6.84863 1038.34 7.29541C1038.34 7.73486 1037.98 8.09375 1037.54 8.09375ZM1036.9 17V9.38281H1038.17V17H1036.9Z" fill="black"/>
</svg>
