<svg width="1040" height="32" viewBox="0 0 1040 32" fill="none" xmlns="http://www.w3.org/2000/svg">
<mask id="path-1-inside-1_160_750" fill="white">
<path d="M0 0H1040V32H0V0Z"/>
</mask>
<path d="M1040 31.5H0V32.5H1040V31.5Z" fill="#CDCDCD" mask="url(#path-1-inside-1_160_750)"/>
<path d="M1.09375 18V6.72656H2.46094L8.66406 15.625H8.70312V6.72656H10.0938V18H8.72656L2.52344 9.10156H2.48438V18H1.09375ZM14.8438 18.1562C13.0625 18.1562 12.0312 17 12.0312 15.1484V9.875H13.3906V14.9062C13.3906 16.2266 14.0078 16.9531 15.2578 16.9531C16.5391 16.9531 17.375 16.0391 17.375 14.6562V9.875H18.7344V18H17.375V16.8438H17.3438C16.9062 17.6016 16.0781 18.1562 14.8438 18.1562ZM20.5078 18V9.875H21.8672V11.0625H21.8984C22.2656 10.2578 23.0781 9.71875 24.125 9.71875C25.2344 9.71875 26.0547 10.2891 26.4062 11.2812H26.4375C26.8906 10.3047 27.8438 9.71875 28.9844 9.71875C30.5938 9.71875 31.6328 10.7734 31.6328 12.3906V18H30.2734V12.7031C30.2734 11.5859 29.6562 10.9219 28.5859 10.9219C27.5078 10.9219 26.75 11.7266 26.75 12.8359V18H25.3906V12.5547C25.3906 11.5703 24.7344 10.9219 23.7266 10.9219C22.6484 10.9219 21.8672 11.7734 21.8672 12.9062V18H20.5078ZM37.4062 18.1562C36.2422 18.1562 35.3359 17.5703 34.8281 16.625H34.7969V18H33.4375V6.72656H34.7969V11.2344H34.8281C35.3359 10.2969 36.2812 9.71875 37.4297 9.71875C39.4688 9.71875 40.8594 11.3672 40.8594 13.9297V13.9375C40.8594 16.5 39.4844 18.1562 37.4062 18.1562ZM37.1406 16.9531C38.5781 16.9531 39.4688 15.8047 39.4688 13.9375V13.9297C39.4688 12.0781 38.5781 10.9219 37.1406 10.9219C35.7734 10.9219 34.7891 12.1172 34.7891 13.9297V13.9375C34.7891 15.7578 35.7656 16.9531 37.1406 16.9531ZM45.5703 18.1562C43.2344 18.1562 41.8281 16.5234 41.8281 13.9688V13.9609C41.8281 11.4453 43.2656 9.71875 45.4844 9.71875C47.7031 9.71875 49.0547 11.3672 49.0547 13.8047V14.3047H43.2031C43.2344 15.9766 44.1562 16.9531 45.6016 16.9531C46.6328 16.9531 47.3594 16.4375 47.5938 15.7422L47.6172 15.6719H48.9531L48.9375 15.75C48.6719 17.0938 47.3438 18.1562 45.5703 18.1562ZM45.4766 10.9219C44.2969 10.9219 43.375 11.7266 43.2266 13.2422H47.6719C47.5391 11.6641 46.6641 10.9219 45.4766 10.9219ZM50.4297 18V9.875H51.7891V11.25H51.8203C52.0938 10.3125 52.7969 9.71875 53.7109 9.71875C53.9453 9.71875 54.1484 9.75781 54.2578 9.77344V11.0938C54.1484 11.0547 53.8594 11.0156 53.5312 11.0156C52.4766 11.0156 51.7891 11.75 51.7891 12.9844V18H50.4297ZM62.0156 18.1562C59.7578 18.1562 58.25 16.5234 58.25 13.9375V13.9219C58.25 11.3359 59.7656 9.71875 62.0078 9.71875C64.25 9.71875 65.7734 11.3281 65.7734 13.9219V13.9375C65.7734 16.5312 64.2578 18.1562 62.0156 18.1562ZM62.0234 16.9531C63.4531 16.9531 64.3828 15.8438 64.3828 13.9375V13.9219C64.3828 12.0156 63.4453 10.9219 62.0078 10.9219C60.5938 10.9219 59.6406 12.0234 59.6406 13.9219V13.9375C59.6406 15.8516 60.5859 16.9531 62.0234 16.9531ZM67.5859 18V11H66.4531V9.875H67.5859V8.875C67.5859 7.3125 68.3125 6.57031 69.8125 6.57031C70.1172 6.57031 70.4375 6.59375 70.6406 6.625V7.72656C70.4766 7.70312 70.2656 7.69531 70.0547 7.69531C69.3047 7.69531 68.9297 8.07812 68.9297 8.88281V9.875H70.6016V11H68.9453V18H67.5859ZM78.6562 18.1562C76.3516 18.1562 74.8906 16.5156 74.8906 13.9297V13.9219C74.8906 11.3594 76.3828 9.71875 78.6406 9.71875C80.6641 9.71875 81.8594 11.0625 82.0312 12.4531L82.0391 12.5156H80.7109L80.6953 12.4531C80.4922 11.6406 79.8359 10.9219 78.6406 10.9219C77.2266 10.9219 76.2812 12.0938 76.2812 13.9375V13.9453C76.2812 15.8359 77.25 16.9531 78.6562 16.9531C79.7656 16.9531 80.4766 16.3281 80.7031 15.4219L80.7188 15.3594H82.0547L82.0469 15.4141C81.8281 16.9609 80.4922 18.1562 78.6562 18.1562ZM86.6719 18.1562C84.4141 18.1562 82.9062 16.5234 82.9062 13.9375V13.9219C82.9062 11.3359 84.4219 9.71875 86.6641 9.71875C88.9062 9.71875 90.4297 11.3281 90.4297 13.9219V13.9375C90.4297 16.5312 88.9141 18.1562 86.6719 18.1562ZM86.6797 16.9531C88.1094 16.9531 89.0391 15.8438 89.0391 13.9375V13.9219C89.0391 12.0156 88.1016 10.9219 86.6641 10.9219C85.25 10.9219 84.2969 12.0234 84.2969 13.9219V13.9375C84.2969 15.8516 85.2422 16.9531 86.6797 16.9531ZM91.8047 18V9.875H93.1641V11.25H93.1953C93.4688 10.3125 94.1719 9.71875 95.0859 9.71875C95.3203 9.71875 95.5234 9.75781 95.6328 9.77344V11.0938C95.5234 11.0547 95.2344 11.0156 94.9062 11.0156C93.8516 11.0156 93.1641 11.75 93.1641 12.9844V18H91.8047ZM99.6953 18.1562C97.3594 18.1562 95.9531 16.5234 95.9531 13.9688V13.9609C95.9531 11.4453 97.3906 9.71875 99.6094 9.71875C101.828 9.71875 103.18 11.3672 103.18 13.8047V14.3047H97.3281C97.3594 15.9766 98.2812 16.9531 99.7266 16.9531C100.758 16.9531 101.484 16.4375 101.719 15.7422L101.742 15.6719H103.078L103.062 15.75C102.797 17.0938 101.469 18.1562 99.6953 18.1562ZM99.6016 10.9219C98.4219 10.9219 97.5 11.7266 97.3516 13.2422H101.797C101.664 11.6641 100.789 10.9219 99.6016 10.9219ZM107.438 18.1562C105.523 18.1562 104.367 17.1797 104.203 15.7266L104.195 15.6562H105.555L105.57 15.7344C105.734 16.5469 106.336 17.0234 107.445 17.0234C108.547 17.0234 109.203 16.5625 109.203 15.8281V15.8203C109.203 15.2344 108.898 14.9062 107.977 14.6797L106.688 14.3672C105.156 14 104.414 13.2891 104.414 12.1172V12.1094C104.414 10.7109 105.641 9.71875 107.398 9.71875C109.18 9.71875 110.312 10.7578 110.414 12.1172L110.422 12.2188H109.125L109.117 12.1641C109.008 11.375 108.406 10.8516 107.398 10.8516C106.414 10.8516 105.805 11.3281 105.805 12.0469V12.0547C105.805 12.6094 106.172 12.9922 107.07 13.2109L108.359 13.5234C110 13.9219 110.594 14.5703 110.594 15.7266V15.7344C110.594 17.1562 109.25 18.1562 107.438 18.1562Z" fill="black"/>
<path d="M1034.68 17.1758C1032.73 17.1758 1030.67 15.8281 1030.67 11.9097V11.895C1030.67 8.33545 1032.18 6.25537 1034.77 6.25537C1036.56 6.25537 1037.9 7.28076 1038.25 8.81885L1038.28 8.91406H1036.94L1036.91 8.8335C1036.59 7.96191 1035.84 7.41992 1034.75 7.41992C1032.78 7.41992 1032.01 9.33154 1031.95 11.5508C1031.94 11.624 1031.94 11.6973 1031.94 11.7778H1031.97C1032.4 10.8403 1033.48 10.0786 1034.91 10.0786C1036.93 10.0786 1038.42 11.5654 1038.42 13.5723V13.5869C1038.42 15.667 1036.84 17.1758 1034.68 17.1758ZM1032.26 13.5723C1032.26 14.9272 1033.31 16.0039 1034.67 16.0039C1036.01 16.0039 1037.08 14.9492 1037.08 13.6162V13.6016C1037.08 12.2246 1036.08 11.2358 1034.69 11.2358C1033.3 11.2358 1032.26 12.2173 1032.26 13.5649V13.5723Z" fill="black"/>
<line x1="0.25" y1="31.75" x2="1037.89" y2="31.75" stroke="white" stroke-width="0.5" stroke-linecap="round"/>
</svg>
