<svg width="1040" height="32" viewBox="0 0 1040 32" fill="none" xmlns="http://www.w3.org/2000/svg">
<mask id="path-1-inside-1_160_749" fill="white">
<path d="M0 0H1040V32H0V0Z"/>
</mask>
<path d="M1040 31.5H0V32.5H1040V31.5Z" fill="#CDCDCD" mask="url(#path-1-inside-1_160_749)"/>
<path d="M5.73438 18.1875C2.625 18.1875 0.65625 15.9297 0.65625 12.3594C0.65625 8.82031 2.64844 6.53906 5.73438 6.53906C8.1875 6.53906 10.0547 8.03125 10.4141 10.2812H8.99219C8.63281 8.80469 7.34375 7.83594 5.73438 7.83594C3.53125 7.83594 2.10156 9.61719 2.10156 12.3594C2.10156 15.125 3.51562 16.8906 5.74219 16.8906C7.39844 16.8906 8.58594 16.0938 8.99219 14.7188H10.4141C9.89844 16.9453 8.22656 18.1875 5.73438 18.1875ZM12.0781 6.72656H16.1016C18.2188 6.72656 19.7109 8.21094 19.7109 10.3438C19.7109 12.4844 18.2031 13.9766 16.0859 13.9766H13.4844V18H12.0781V6.72656ZM13.4844 7.97656V12.7266H15.7344C17.3438 12.7266 18.2656 11.8438 18.2656 10.3438C18.2656 8.85156 17.3516 7.97656 15.7344 7.97656H13.4844ZM22.7344 6.72656V13.9531C22.7344 15.6562 23.8516 16.8906 25.8047 16.8906C27.7578 16.8906 28.875 15.6562 28.875 13.9531V6.72656H30.2812V14.0469C30.2812 16.4531 28.6016 18.1875 25.8047 18.1875C23.0078 18.1875 21.3281 16.4531 21.3281 14.0469V6.72656H22.7344Z" fill="black"/>
<path d="M973.183 17L977.116 6.43115H978.42L982.346 17H980.961L979.892 13.9751H975.637L974.567 17H973.183ZM977.753 8.01318L976.04 12.8545H979.497L977.783 8.01318H977.753ZM985.502 17V7.83008H985.473L982.675 9.77832V8.45264L985.488 6.43115H986.777V17H985.502ZM993.281 17.1758C991.333 17.1758 989.267 15.8281 989.267 11.9097V11.895C989.267 8.33545 990.783 6.25537 993.369 6.25537C995.163 6.25537 996.503 7.28076 996.855 8.81885L996.877 8.91406H995.537L995.507 8.8335C995.192 7.96191 994.438 7.41992 993.354 7.41992C991.384 7.41992 990.607 9.33154 990.549 11.5508C990.542 11.624 990.542 11.6973 990.542 11.7778H990.571C990.996 10.8403 992.08 10.0786 993.515 10.0786C995.529 10.0786 997.023 11.5654 997.023 13.5723V13.5869C997.023 15.667 995.441 17.1758 993.281 17.1758ZM990.856 13.5723C990.856 14.9272 991.911 16.0039 993.266 16.0039C994.614 16.0039 995.683 14.9492 995.683 13.6162V13.6016C995.683 12.2246 994.68 11.2358 993.288 11.2358C991.904 11.2358 990.856 12.2173 990.856 13.5649V13.5723ZM1001.96 17V6.43115H1005.97C1007.78 6.43115 1009 7.48584 1009 9.06787V9.08252C1009 10.1738 1008.18 11.2358 1007.09 11.3896V11.4189C1008.61 11.5947 1009.53 12.6201 1009.53 14.019V14.0337C1009.53 15.894 1008.2 17 1005.95 17H1001.96ZM1005.67 7.5957H1003.28V10.9868H1005.26C1006.82 10.9868 1007.67 10.3643 1007.67 9.22168V9.20703C1007.67 8.16699 1006.94 7.5957 1005.67 7.5957ZM1005.63 12.1221H1003.28V15.8354H1005.75C1007.34 15.8354 1008.18 15.1982 1008.18 13.9824V13.9678C1008.18 12.7446 1007.31 12.1221 1005.63 12.1221ZM1011.55 8.09375C1011.11 8.09375 1010.75 7.73486 1010.75 7.29541C1010.75 6.84863 1011.11 6.49707 1011.55 6.49707C1011.99 6.49707 1012.35 6.84863 1012.35 7.29541C1012.35 7.73486 1011.99 8.09375 1011.55 8.09375ZM1010.91 17V9.38281H1012.18V17H1010.91ZM1017.08 17.1465C1014.96 17.1465 1013.55 15.6157 1013.55 13.1914V13.1768C1013.55 10.7524 1014.97 9.23633 1017.07 9.23633C1019.17 9.23633 1020.6 10.7451 1020.6 13.1768V13.1914C1020.6 15.623 1019.18 17.1465 1017.08 17.1465ZM1017.08 16.0186C1018.42 16.0186 1019.3 14.9785 1019.3 13.1914V13.1768C1019.3 11.3896 1018.42 10.3643 1017.07 10.3643C1015.74 10.3643 1014.85 11.397 1014.85 13.1768V13.1914C1014.85 14.9858 1015.74 16.0186 1017.08 16.0186ZM1021.89 17V9.38281H1023.16V10.4668H1023.19C1023.6 9.75635 1024.38 9.23633 1025.54 9.23633C1027.21 9.23633 1028.17 10.3203 1028.17 12.0562V17H1026.9V12.2832C1026.9 11.0454 1026.32 10.3643 1025.15 10.3643C1023.95 10.3643 1023.16 11.2212 1023.16 12.5176V17H1021.89ZM1030.52 8.09375C1030.08 8.09375 1029.72 7.73486 1029.72 7.29541C1029.72 6.84863 1030.08 6.49707 1030.52 6.49707C1030.96 6.49707 1031.32 6.84863 1031.32 7.29541C1031.32 7.73486 1030.96 8.09375 1030.52 8.09375ZM1029.88 17V9.38281H1031.15V17H1029.88ZM1036.05 17.1465C1033.89 17.1465 1032.52 15.6084 1032.52 13.1841V13.1768C1032.52 10.7744 1033.92 9.23633 1036.03 9.23633C1037.93 9.23633 1039.05 10.4961 1039.21 11.7998L1039.22 11.8584H1037.97L1037.96 11.7998C1037.77 11.0381 1037.15 10.3643 1036.03 10.3643C1034.71 10.3643 1033.82 11.4629 1033.82 13.1914V13.1987C1033.82 14.9712 1034.73 16.0186 1036.05 16.0186C1037.09 16.0186 1037.75 15.4326 1037.97 14.583L1037.98 14.5244H1039.23L1039.23 14.5757C1039.02 16.0259 1037.77 17.1465 1036.05 17.1465Z" fill="black"/>
</svg>
