<svg width="1040" height="32" viewBox="0 0 1040 32" fill="none" xmlns="http://www.w3.org/2000/svg">
<mask id="path-1-inside-1_158_731" fill="white">
<path d="M0 0H1040V32H0V0Z"/>
</mask>
<path d="M1040 31.5H0V32.5H1040V31.5Z" fill="#CDCDCD" mask="url(#path-1-inside-1_158_731)"/>
<path d="M0.554688 14.8984H1.96875C2.10156 16.1172 3.25781 16.9219 4.86719 16.9219C6.39062 16.9219 7.5 16.1172 7.5 15.0078C7.5 14.0547 6.83594 13.4688 5.32031 13.0781L3.875 12.7031C1.79688 12.1719 0.875 11.2578 0.875 9.72656C0.875 7.85156 2.51562 6.53906 4.85938 6.53906C7.10156 6.53906 8.72656 7.86719 8.78906 9.75781H7.38281C7.25781 8.54688 6.28125 7.80469 4.8125 7.80469C3.35156 7.80469 2.33594 8.5625 2.33594 9.66406C2.33594 10.5156 2.96094 11.0234 4.49219 11.4219L5.67188 11.7344C8.00781 12.3203 8.95312 13.2188 8.95312 14.8359C8.95312 16.8984 7.32812 18.1875 4.73438 18.1875C2.34375 18.1875 0.6875 16.8906 0.554688 14.8984ZM17.1328 12.5391H15.8047C15.6094 11.6562 14.9219 10.9297 13.7266 10.9297C12.3203 10.9297 11.3672 12.0938 11.3672 13.9375C11.3672 15.8281 12.3359 16.9453 13.7422 16.9453C14.8516 16.9453 15.5781 16.3594 15.8125 15.3828H17.1484C16.9375 17 15.5781 18.1406 13.7344 18.1406C11.4844 18.1406 9.98438 16.5547 9.98438 13.9375C9.98438 11.375 11.4766 9.73438 13.7188 9.73438C15.75 9.73438 16.9609 11.0781 17.1328 12.5391ZM18.3984 18V9.875H19.6797V11.2031H19.7109C19.9766 10.3047 20.7266 9.73438 21.6797 9.73438C21.9141 9.73438 22.1172 9.77344 22.2266 9.78906V11.1094C22.1172 11.0703 21.8281 11.0312 21.5 11.0312C20.4453 11.0312 19.7578 11.7891 19.7578 12.9375V18H18.3984ZM26.2031 10.9141C24.9297 10.9141 24.0391 11.8906 23.9531 13.2422H28.3672C28.3359 11.8828 27.4844 10.9141 26.2031 10.9141ZM28.3359 15.6719H29.6719C29.4375 17.0938 28.0625 18.1406 26.2891 18.1406C23.9609 18.1406 22.5469 16.5234 22.5469 13.9688C22.5469 11.4453 23.9844 9.73438 26.2266 9.73438C28.4219 9.73438 29.7734 11.3281 29.7734 13.7891V14.3047H23.9453V14.3828C23.9453 15.9375 24.8594 16.9609 26.3203 16.9609C27.3516 16.9609 28.1094 16.4375 28.3359 15.6719ZM34.4062 10.9141C33.1328 10.9141 32.2422 11.8906 32.1562 13.2422H36.5703C36.5391 11.8828 35.6875 10.9141 34.4062 10.9141ZM36.5391 15.6719H37.875C37.6406 17.0938 36.2656 18.1406 34.4922 18.1406C32.1641 18.1406 30.75 16.5234 30.75 13.9688C30.75 11.4453 32.1875 9.73438 34.4297 9.73438C36.625 9.73438 37.9766 11.3281 37.9766 13.7891V14.3047H32.1484V14.3828C32.1484 15.9375 33.0625 16.9609 34.5234 16.9609C35.5547 16.9609 36.3125 16.4375 36.5391 15.6719ZM39.3516 18V9.875H40.6328V11.1719H40.6641C41.1172 10.2969 41.9844 9.73438 43.2422 9.73438C45.0234 9.73438 46.0547 10.8828 46.0547 12.7266V18H44.6953V12.9688C44.6953 11.6562 44.0781 10.9375 42.8281 10.9375C41.5469 10.9375 40.7109 11.8438 40.7109 13.2188V18H39.3516ZM51.5078 7.91406H52.8672V9.875H54.4453V10.9922H52.8672V15.8203C52.8672 16.5625 53.1797 16.8984 53.875 16.8984C54.0312 16.8984 54.3438 16.875 54.4375 16.8594V18C54.2734 18.0391 53.8984 18.0625 53.5781 18.0625C52.0859 18.0625 51.5078 17.4531 51.5078 15.8906V10.9922H50.2969V9.875H51.5078V7.91406ZM56.5703 21.0391C56.4062 21.0391 56.1328 21.0234 55.9844 20.9922V19.8516C56.1328 19.8828 56.3438 19.8906 56.5156 19.8906C57.2734 19.8906 57.6953 19.5234 58.0078 18.5781L58.1953 18.0078L55.1953 9.875H56.6484L58.8984 16.6406H58.9219L61.1719 9.875H62.6016L59.4062 18.5703C58.7109 20.4688 58.0391 21.0391 56.5703 21.0391ZM67.625 9.73438C69.6953 9.73438 71.1016 11.3906 71.1016 13.9375C71.1016 16.4844 69.7031 18.1406 67.6562 18.1406C66.4922 18.1406 65.5547 17.5703 65.0703 16.6797H65.0391V20.7109H63.6797V9.875H64.9688V11.25H65C65.5 10.3359 66.4453 9.73438 67.625 9.73438ZM67.3594 16.9453C68.8047 16.9453 69.7109 15.7812 69.7109 13.9375C69.7109 12.1016 68.8047 10.9297 67.3594 10.9297C65.9688 10.9297 65.0312 12.1328 65.0312 13.9375C65.0312 15.75 65.9688 16.9453 67.3594 16.9453ZM75.7344 10.9141C74.4609 10.9141 73.5703 11.8906 73.4844 13.2422H77.8984C77.8672 11.8828 77.0156 10.9141 75.7344 10.9141ZM77.8672 15.6719H79.2031C78.9688 17.0938 77.5938 18.1406 75.8203 18.1406C73.4922 18.1406 72.0781 16.5234 72.0781 13.9688C72.0781 11.4453 73.5156 9.73438 75.7578 9.73438C77.9531 9.73438 79.3047 11.3281 79.3047 13.7891V14.3047H73.4766V14.3828C73.4766 15.9375 74.3906 16.9609 75.8516 16.9609C76.8828 16.9609 77.6406 16.4375 77.8672 15.6719Z" fill="black"/>
<path d="M1007.49 17.1758C1004.49 17.1758 1002.62 15.0737 1002.62 11.7192V11.7046C1002.62 8.35742 1004.5 6.25537 1007.49 6.25537C1010.48 6.25537 1012.36 8.35742 1012.36 11.7046V11.7192C1012.36 15.0737 1010.49 17.1758 1007.49 17.1758ZM1007.49 15.96C1009.67 15.96 1011.01 14.2974 1011.01 11.7192V11.7046C1011.01 9.11182 1009.65 7.47119 1007.49 7.47119C1005.33 7.47119 1003.96 9.10449 1003.96 11.7046V11.7192C1003.96 14.3193 1005.33 15.96 1007.49 15.96ZM1014 17V6.43115H1015.32V15.8135H1020.41V17H1014ZM1021.86 17V6.43115H1028.41V7.61768H1023.18V11.0088H1028.14V12.1807H1023.18V15.8135H1028.41V17H1021.86ZM1030.15 17V6.43115H1033.71C1036.83 6.43115 1038.69 8.37939 1038.69 11.6973V11.7119C1038.69 15.0444 1036.85 17 1033.71 17H1030.15ZM1031.47 15.8135H1033.62C1036.01 15.8135 1037.35 14.3486 1037.35 11.7266V11.7119C1037.35 9.0752 1036.01 7.61768 1033.62 7.61768H1031.47V15.8135Z" fill="black"/>
</svg>
