<svg width="224" height="40" viewBox="0 0 224 40" fill="none" xmlns="http://www.w3.org/2000/svg">
<g opacity="0.2">
<rect x="32" y="8" width="24" height="24" rx="12" fill="black"/>
<path d="M43.2778 24.6127C43.0212 24.3697 42.722 24.1829 42.3952 24.0665L41.7101 21.3986L49.8697 19.1159L50.7438 22.5224L43.2778 24.6127ZM40.6801 17.3879L46.1201 15.8664L46.9948 19.274L41.5554 20.7956L40.6801 17.3879ZM40.9242 24.0153C40.7724 24.0581 40.6312 24.1188 40.4939 24.1858L38.0954 14.8398H37.1932C37.1026 15.0372 36.9131 15.1762 36.6892 15.1762H35.5631C35.252 15.1762 35 14.9124 35 14.5878C35 14.2632 35.252 14 35.5631 14H36.6892C36.8782 14 37.0368 14.1035 37.1392 14.2514H38.8717V14.2801L38.8976 14.2722L41.3782 23.9377C41.2269 23.9517 41.0756 23.9737 40.9242 24.0153ZM41.0699 24.5834C42.1213 24.2893 43.2018 24.9406 43.4836 26.0392C43.7654 27.1366 43.1416 28.265 42.0898 28.5592C41.0384 28.8523 39.9579 28.2009 39.6761 27.1034C39.3942 26.006 40.0186 24.8776 41.0699 24.5834ZM40.7735 26.8351C40.8939 27.3054 41.3574 27.5844 41.8079 27.4578C42.2585 27.3312 42.5257 26.8481 42.4053 26.3778C42.2849 25.9076 41.8214 25.6286 41.3709 25.754C40.9198 25.8806 40.6526 26.3643 40.7735 26.8351ZM50.6735 24.5216L44.1012 26.3598C44.0894 26.2029 44.0675 26.0443 44.027 25.8862C43.9871 25.7281 43.9291 25.5796 43.8644 25.4367L50.4024 23.6086L50.6735 24.5216Z" fill="white"/>
<path d="M68.2725 13.1641C66.0576 13.1641 64.5947 12.1113 64.4717 10.375L64.4648 10.2725H65.9551L65.9688 10.3613C66.1055 11.2705 67.0146 11.8379 68.334 11.8379C69.6533 11.8379 70.4873 11.2432 70.4873 10.3203V10.3135C70.4873 9.52051 69.9473 9.08984 68.6416 8.80273L67.5684 8.57715C65.6338 8.16699 64.6973 7.27832 64.6973 5.81543V5.80859C64.7041 4.12695 66.1875 2.97168 68.2725 2.97168C70.3301 2.97168 71.7383 4.09277 71.8408 5.74707L71.8477 5.86328H70.3574L70.3506 5.76758C70.2139 4.85156 69.4209 4.29785 68.252 4.29785C67.0283 4.30469 66.249 4.88574 66.249 5.74707V5.75391C66.249 6.49219 66.8096 6.94336 68.04 7.20996L69.1201 7.43555C71.1572 7.86621 72.0322 8.69336 72.0322 10.2178V10.2246C72.0322 12.0225 70.6104 13.1641 68.2725 13.1641ZM76.1778 13.1436C74.7559 13.1436 74.0723 12.542 74.0723 11.1064V6.98438H73.0401V5.80859H74.0723V3.93555H75.5831V5.80859H76.9298V6.98438H75.5831V11.0176C75.5831 11.749 75.9112 11.9678 76.5333 11.9678C76.6905 11.9678 76.8204 11.9541 76.9298 11.9404V13.082C76.7589 13.1094 76.4786 13.1436 76.1778 13.1436ZM81.465 13.1436C79.3527 13.1436 78.0744 11.7012 78.0744 9.43164V9.4248C78.0744 7.17578 79.3732 5.67188 81.3898 5.67188C83.4064 5.67188 84.6437 7.12109 84.6437 9.28125V9.78027H79.5509C79.5783 11.1406 80.3234 11.9336 81.4992 11.9336C82.3742 11.9336 82.9552 11.4824 83.1398 10.9424L83.1603 10.8877H84.5617L84.548 10.9629C84.3156 12.1045 83.2082 13.1436 81.465 13.1436ZM81.3966 6.88184C80.4396 6.88184 79.7013 7.53125 79.5714 8.73438H83.1808C83.0578 7.49023 82.3605 6.88184 81.3966 6.88184ZM86.2121 15.3926V5.80859H87.6887V7.0459H87.7229C88.1536 6.19141 88.9465 5.67188 89.9719 5.67188C91.8039 5.67188 92.9797 7.10742 92.9797 9.4043V9.41113C92.9797 11.7012 91.7971 13.1436 89.9924 13.1436C88.9739 13.1436 88.1467 12.624 87.7229 11.79H87.6887V15.3926H86.2121ZM89.5891 11.8721C90.7512 11.8721 91.4758 10.9287 91.4758 9.41113V9.4043C91.4758 7.87305 90.7444 6.93652 89.5891 6.93652C88.468 6.93652 87.6819 7.90723 87.6819 9.4043V9.41113C87.6819 10.9014 88.4748 11.8721 89.5891 11.8721ZM97.8461 13V11.9473L101.319 8.4541C102.631 7.1416 102.925 6.62207 102.925 5.85645V5.84277C102.918 4.90625 102.207 4.23633 101.209 4.23633C100.054 4.23633 99.227 5.01562 99.2133 6.01367V6.05469H97.7641V6.01367C97.7641 4.25 99.2611 2.97168 101.189 2.97168C103.082 2.97168 104.436 4.16113 104.436 5.75391V5.76758C104.436 6.89551 103.91 7.69531 102.139 9.44531L99.8969 11.6465V11.708H104.593V13H97.8461Z" fill="black"/>
<path d="M69.7983 35.2227C66.7925 35.2227 64.8071 33.7939 64.6401 31.4375L64.6309 31.2983H66.6533L66.6719 31.4189C66.8574 32.6528 68.0913 33.4229 69.8818 33.4229C71.6724 33.4229 72.8042 32.6157 72.8042 31.3633V31.354C72.8042 30.2778 72.0713 29.6934 70.2993 29.3037L68.8428 28.9976C66.2173 28.4409 64.9463 27.2349 64.9463 25.2495V25.2402C64.9556 22.958 66.9688 21.3901 69.7983 21.3901C72.5908 21.3901 74.502 22.9116 74.6411 25.1567L74.6504 25.3145H72.6279L72.6187 25.1846C72.4331 23.9414 71.3569 23.1899 69.7705 23.1899C68.1099 23.1992 67.0522 23.9878 67.0522 25.1567V25.166C67.0522 26.168 67.813 26.7803 69.4829 27.1421L70.9487 27.4482C73.7134 28.0327 74.9009 29.1553 74.9009 31.2241V31.2334C74.9009 33.6733 72.9712 35.2227 69.7983 35.2227ZM77.1779 35V21.6128H79.1818V26.8452H79.2282C79.7477 25.7134 80.7961 25.0547 82.2526 25.0547C84.34 25.0547 85.7131 26.6133 85.7131 28.9697V35H83.7092V29.3501C83.7092 27.7358 82.8928 26.771 81.4826 26.771C80.1003 26.771 79.1818 27.8286 79.1818 29.3501V35H77.1779ZM89.3168 23.7373C88.6673 23.7373 88.1478 23.2178 88.1478 22.5869C88.1478 21.9468 88.6673 21.4272 89.3168 21.4272C89.9754 21.4272 90.4857 21.9468 90.4857 22.5869C90.4857 23.2178 89.9754 23.7373 89.3168 23.7373ZM88.3148 35V25.2402H90.3187V35H88.3148ZM92.9576 38.2471V25.2402H94.9615V26.9194H95.0079C95.5923 25.7598 96.6685 25.0547 98.0601 25.0547C100.546 25.0547 102.142 27.0029 102.142 30.1201V30.1294C102.142 33.2373 100.537 35.1948 98.0879 35.1948C96.7056 35.1948 95.583 34.4897 95.0079 33.3579H94.9615V38.2471H92.9576ZM97.5406 33.4692C99.1177 33.4692 100.101 32.189 100.101 30.1294V30.1201C100.101 28.042 99.1084 26.771 97.5406 26.771C96.0191 26.771 94.9522 28.0884 94.9522 30.1201V30.1294C94.9522 32.1519 96.0284 33.4692 97.5406 33.4692ZM104.271 38.2471V25.2402H106.275V26.9194H106.321C106.905 25.7598 107.982 25.0547 109.373 25.0547C111.86 25.0547 113.455 27.0029 113.455 30.1201V30.1294C113.455 33.2373 111.85 35.1948 109.401 35.1948C108.019 35.1948 106.896 34.4897 106.321 33.3579H106.275V38.2471H104.271ZM108.854 33.4692C110.431 33.4692 111.414 32.189 111.414 30.1294V30.1201C111.414 28.042 110.422 26.771 108.854 26.771C107.332 26.771 106.265 28.0884 106.265 30.1201V30.1294C106.265 32.1519 107.342 33.4692 108.854 33.4692ZM116.669 23.7373C116.02 23.7373 115.5 23.2178 115.5 22.5869C115.5 21.9468 116.02 21.4272 116.669 21.4272C117.328 21.4272 117.838 21.9468 117.838 22.5869C117.838 23.2178 117.328 23.7373 116.669 23.7373ZM115.667 35V25.2402H117.671V35H115.667ZM120.31 35V25.2402H122.314V26.7153H122.36C122.871 25.7227 123.873 25.0547 125.348 25.0547C127.491 25.0547 128.725 26.437 128.725 28.6821V35H126.712V29.0625C126.712 27.5967 126.025 26.771 124.633 26.771C123.223 26.771 122.314 27.7915 122.314 29.313V35H120.31ZM135.511 38.4419C133.006 38.4419 131.419 37.2822 131.122 35.7886L131.113 35.7051H133.098L133.136 35.7793C133.405 36.4009 134.249 36.8276 135.501 36.8276C137.097 36.8276 137.978 35.9741 137.978 34.6104V33.2744H137.932C137.375 34.332 136.262 35.0093 134.861 35.0093C132.412 35.0093 130.798 33.0889 130.798 30.0459V30.0366C130.798 26.9751 132.43 25.0547 134.907 25.0547C136.281 25.0547 137.357 25.7969 137.932 26.9009H137.978V25.2402H139.991V34.731C139.991 36.9575 138.266 38.4419 135.511 38.4419ZM135.427 33.3765C136.958 33.3765 137.978 32.0869 137.978 30.0737V30.0645C137.978 28.0605 136.948 26.771 135.427 26.771C133.841 26.771 132.848 28.0513 132.848 30.0645V30.0737C132.848 32.1147 133.841 33.3765 135.427 33.3765Z" fill="black"/>
</g>
</svg>
