<svg width="876" height="16" viewBox="0 0 876 16" fill="none" xmlns="http://www.w3.org/2000/svg">
<path d="M1.16895 14V1.31738H9.21973V3.01367H3.1377V6.71387H8.89453V8.36621H3.1377V12.3037H9.21973V14H1.16895ZM10.3184 14L13.377 9.38574L10.3623 4.75391H12.498L14.5107 8.10254H14.5547L16.541 4.75391H18.6416L15.6006 9.32422L18.6064 14H16.5146L14.4668 10.5986H14.4229L12.375 14H10.3184ZM23.5986 14.1846C20.9004 14.1846 19.2129 12.3301 19.2129 9.36816V9.35938C19.2129 6.43262 20.9355 4.57812 23.5723 4.57812C25.9541 4.57812 27.3955 6.10742 27.5537 7.84766L27.5625 7.90918H25.752L25.7344 7.83887C25.5322 6.93359 24.8291 6.16895 23.5898 6.16895C22.1133 6.16895 21.1553 7.39941 21.1553 9.37695V9.38574C21.1553 11.4072 22.1309 12.5938 23.5986 12.5938C24.7676 12.5938 25.5146 11.917 25.7432 10.915L25.752 10.8447H27.5801L27.5713 10.9062C27.3691 12.7607 25.8223 14.1846 23.5986 14.1846ZM32.8711 14.1846C30.1553 14.1846 28.5117 12.3301 28.5117 9.41211V9.40332C28.5117 6.51172 30.1816 4.57812 32.7744 4.57812C35.3672 4.57812 36.958 6.44141 36.958 9.21875V9.86035H30.4102C30.4453 11.6094 31.4033 12.6289 32.915 12.6289C34.04 12.6289 34.7871 12.0488 35.0244 11.3545L35.0508 11.2842H36.8525L36.835 11.3809C36.5361 12.8486 35.1123 14.1846 32.8711 14.1846ZM32.7832 6.13379C31.5527 6.13379 30.6035 6.96875 30.4365 8.51562H35.0771C34.9189 6.91602 34.0225 6.13379 32.7832 6.13379ZM38.5049 14V1.31738H40.4033V14H38.5049ZM42.4248 14V1.31738H44.3232V14H42.4248ZM50.2207 14.1846C47.5049 14.1846 45.8613 12.3301 45.8613 9.41211V9.40332C45.8613 6.51172 47.5312 4.57812 50.124 4.57812C52.7168 4.57812 54.3076 6.44141 54.3076 9.21875V9.86035H47.7598C47.7949 11.6094 48.7529 12.6289 50.2646 12.6289C51.3896 12.6289 52.1367 12.0488 52.374 11.3545L52.4004 11.2842H54.2021L54.1846 11.3809C53.8857 12.8486 52.4619 14.1846 50.2207 14.1846ZM50.1328 6.13379C48.9023 6.13379 47.9531 6.96875 47.7861 8.51562H52.4268C52.2686 6.91602 51.3721 6.13379 50.1328 6.13379ZM55.7842 14V4.75391H57.6826V6.15137H57.7266C58.21 5.21094 59.1592 4.57812 60.5566 4.57812C62.5869 4.57812 63.7559 5.8877 63.7559 8.01465V14H61.8486V8.375C61.8486 6.98633 61.1982 6.2041 59.8799 6.2041C58.5439 6.2041 57.6826 7.1709 57.6826 8.6123V14H55.7842ZM68.8359 14.1846C67.0078 14.1846 66.1289 13.4111 66.1289 11.5654V6.26562H64.8018V4.75391H66.1289V2.3457H68.0713V4.75391H69.8027V6.26562H68.0713V11.4512C68.0713 12.3916 68.4932 12.6729 69.293 12.6729C69.4951 12.6729 69.6621 12.6553 69.8027 12.6377V14.1055C69.583 14.1406 69.2227 14.1846 68.8359 14.1846Z" fill="black"/>
<g clip-path="url(#clip0_320_1779)">
<rect width="664" height="5" rx="2.5" transform="matrix(-1 0 0 1 832 5.5)" fill="#D9D9D9"/>
<rect width="664" height="5" rx="2.5" transform="matrix(-1 0 0 1 796 5.5)" fill="#FFB547"/>
</g>
<path opacity="0.4" d="M852.445 14V4.46094H852.406L849.461 6.49219V4.83594L852.43 2.72656H854.156V14H852.445ZM861.023 14.1875C858.328 14.1875 856.719 11.9453 856.719 8.36719V8.35156C856.719 4.77344 858.328 2.53906 861.023 2.53906C863.711 2.53906 865.328 4.77344 865.328 8.35156V8.36719C865.328 11.9453 863.711 14.1875 861.023 14.1875ZM861.023 12.7266C862.625 12.7266 863.562 11.0703 863.562 8.36719V8.35156C863.562 5.64844 862.625 4.00781 861.023 4.00781C859.414 4.00781 858.484 5.64844 858.484 8.35156V8.36719C858.484 11.0703 859.414 12.7266 861.023 12.7266ZM871.008 14.1875C868.312 14.1875 866.703 11.9453 866.703 8.36719V8.35156C866.703 4.77344 868.312 2.53906 871.008 2.53906C873.695 2.53906 875.312 4.77344 875.312 8.35156V8.36719C875.312 11.9453 873.695 14.1875 871.008 14.1875ZM871.008 12.7266C872.609 12.7266 873.547 11.0703 873.547 8.36719V8.35156C873.547 5.64844 872.609 4.00781 871.008 4.00781C869.398 4.00781 868.469 5.64844 868.469 8.35156V8.36719C868.469 11.0703 869.398 12.7266 871.008 12.7266Z" fill="black"/>
<defs>
<clipPath id="clip0_320_1779">
<rect width="700" height="5" fill="white" transform="matrix(-1 0 0 1 832 5.5)"/>
</clipPath>
</defs>
</svg>
